G04 EAGLE Gerber RS-274X export*
G75*
%MOMM*%
%FSLAX34Y34*%
%LPD*%
%INTop Soldermask*%
%IPPOS*%
%AMOC8*
5,1,8,0,0,1.08239X$1,22.5*%
G01*
%ADD10C,1.511200*%
%ADD11R,1.503200X1.703200*%
%ADD12R,2.743200X2.743200*%
%ADD13R,1.803200X3.203200*%
%ADD14C,0.697853*%
%ADD15R,5.603200X6.403200*%
%ADD16R,1.203200X1.803200*%
%ADD17C,1.879600*%
%ADD18C,1.853200*%
%ADD19C,2.082800*%
%ADD20R,0.803200X2.403200*%
%ADD21R,1.503200X1.803200*%
%ADD22R,1.524000X0.762000*%
%ADD23R,1.524000X0.711200*%
%ADD24C,1.711200*%
%ADD25C,1.203200*%
%ADD26R,1.203200X1.603200*%
%ADD27C,1.727200*%
%ADD28C,3.505200*%
%ADD29C,3.403200*%
%ADD30C,0.959600*%


D10*
X992060Y465900D02*
X1005140Y465900D01*
X1005140Y440500D02*
X992060Y440500D01*
X992060Y415100D02*
X1005140Y415100D01*
X1005140Y389700D02*
X992060Y389700D01*
X992060Y364300D02*
X1005140Y364300D01*
X1005140Y338900D02*
X992060Y338900D01*
X992060Y313500D02*
X1005140Y313500D01*
X1005140Y288100D02*
X992060Y288100D01*
X992060Y262700D02*
X1005140Y262700D01*
X1005140Y237300D02*
X992060Y237300D01*
X992060Y211900D02*
X1005140Y211900D01*
X1005140Y186500D02*
X992060Y186500D01*
X992060Y161100D02*
X1005140Y161100D01*
X1005140Y135700D02*
X992060Y135700D01*
X992060Y110300D02*
X1005140Y110300D01*
X1005140Y84900D02*
X992060Y84900D01*
X992060Y59500D02*
X1005140Y59500D01*
X1005140Y34100D02*
X992060Y34100D01*
X992060Y8700D02*
X1005140Y8700D01*
X1005140Y-16700D02*
X992060Y-16700D01*
X1144460Y465900D02*
X1157540Y465900D01*
X1157540Y440500D02*
X1144460Y440500D01*
X1144460Y415100D02*
X1157540Y415100D01*
X1157540Y389700D02*
X1144460Y389700D01*
X1144460Y364300D02*
X1157540Y364300D01*
X1157540Y338900D02*
X1144460Y338900D01*
X1144460Y313500D02*
X1157540Y313500D01*
X1157540Y288100D02*
X1144460Y288100D01*
X1144460Y262700D02*
X1157540Y262700D01*
X1157540Y237300D02*
X1144460Y237300D01*
X1144460Y211900D02*
X1157540Y211900D01*
X1157540Y186500D02*
X1144460Y186500D01*
X1144460Y161100D02*
X1157540Y161100D01*
X1157540Y135700D02*
X1144460Y135700D01*
X1144460Y110300D02*
X1157540Y110300D01*
X1157540Y84900D02*
X1144460Y84900D01*
X1144460Y59500D02*
X1157540Y59500D01*
X1157540Y34100D02*
X1144460Y34100D01*
X1144460Y8700D02*
X1157540Y8700D01*
X1157540Y-16700D02*
X1144460Y-16700D01*
D11*
X921700Y575900D03*
X940700Y575900D03*
X925200Y384300D03*
X944200Y384300D03*
X1228200Y513900D03*
X1247200Y513900D03*
X1224000Y549900D03*
X1243000Y549900D03*
D12*
X1246795Y-69400D03*
X1199805Y-69400D03*
D13*
X934000Y313700D03*
X934000Y269700D03*
D14*
X1236127Y200037D02*
X1236127Y163483D01*
X1231073Y163483D01*
X1231073Y200037D01*
X1236127Y200037D01*
X1236127Y170113D02*
X1231073Y170113D01*
X1231073Y176743D02*
X1236127Y176743D01*
X1236127Y183373D02*
X1231073Y183373D01*
X1231073Y190003D02*
X1236127Y190003D01*
X1236127Y196633D02*
X1231073Y196633D01*
X1236127Y219363D02*
X1236127Y255917D01*
X1236127Y219363D02*
X1231073Y219363D01*
X1231073Y255917D01*
X1236127Y255917D01*
X1236127Y225993D02*
X1231073Y225993D01*
X1231073Y232623D02*
X1236127Y232623D01*
X1236127Y239253D02*
X1231073Y239253D01*
X1231073Y245883D02*
X1236127Y245883D01*
X1236127Y252513D02*
X1231073Y252513D01*
X1261527Y200037D02*
X1261527Y163483D01*
X1256473Y163483D01*
X1256473Y200037D01*
X1261527Y200037D01*
X1261527Y170113D02*
X1256473Y170113D01*
X1256473Y176743D02*
X1261527Y176743D01*
X1261527Y183373D02*
X1256473Y183373D01*
X1256473Y190003D02*
X1261527Y190003D01*
X1261527Y196633D02*
X1256473Y196633D01*
X1261527Y219363D02*
X1261527Y255917D01*
X1261527Y219363D02*
X1256473Y219363D01*
X1256473Y255917D01*
X1261527Y255917D01*
X1261527Y225993D02*
X1256473Y225993D01*
X1256473Y232623D02*
X1261527Y232623D01*
X1261527Y239253D02*
X1256473Y239253D01*
X1256473Y245883D02*
X1261527Y245883D01*
X1261527Y252513D02*
X1256473Y252513D01*
X1286927Y200037D02*
X1286927Y163483D01*
X1281873Y163483D01*
X1281873Y200037D01*
X1286927Y200037D01*
X1286927Y170113D02*
X1281873Y170113D01*
X1281873Y176743D02*
X1286927Y176743D01*
X1286927Y183373D02*
X1281873Y183373D01*
X1281873Y190003D02*
X1286927Y190003D01*
X1286927Y196633D02*
X1281873Y196633D01*
X1286927Y219363D02*
X1286927Y255917D01*
X1286927Y219363D02*
X1281873Y219363D01*
X1281873Y255917D01*
X1286927Y255917D01*
X1286927Y225993D02*
X1281873Y225993D01*
X1281873Y232623D02*
X1286927Y232623D01*
X1286927Y239253D02*
X1281873Y239253D01*
X1281873Y245883D02*
X1286927Y245883D01*
X1286927Y252513D02*
X1281873Y252513D01*
X1312327Y200037D02*
X1312327Y163483D01*
X1307273Y163483D01*
X1307273Y200037D01*
X1312327Y200037D01*
X1312327Y170113D02*
X1307273Y170113D01*
X1307273Y176743D02*
X1312327Y176743D01*
X1312327Y183373D02*
X1307273Y183373D01*
X1307273Y190003D02*
X1312327Y190003D01*
X1312327Y196633D02*
X1307273Y196633D01*
X1312327Y219363D02*
X1312327Y255917D01*
X1312327Y219363D02*
X1307273Y219363D01*
X1307273Y255917D01*
X1312327Y255917D01*
X1312327Y225993D02*
X1307273Y225993D01*
X1307273Y232623D02*
X1312327Y232623D01*
X1312327Y239253D02*
X1307273Y239253D01*
X1307273Y245883D02*
X1312327Y245883D01*
X1312327Y252513D02*
X1307273Y252513D01*
X1337727Y200037D02*
X1337727Y163483D01*
X1332673Y163483D01*
X1332673Y200037D01*
X1337727Y200037D01*
X1337727Y170113D02*
X1332673Y170113D01*
X1332673Y176743D02*
X1337727Y176743D01*
X1337727Y183373D02*
X1332673Y183373D01*
X1332673Y190003D02*
X1337727Y190003D01*
X1337727Y196633D02*
X1332673Y196633D01*
X1337727Y219363D02*
X1337727Y255917D01*
X1337727Y219363D02*
X1332673Y219363D01*
X1332673Y255917D01*
X1337727Y255917D01*
X1337727Y225993D02*
X1332673Y225993D01*
X1332673Y232623D02*
X1337727Y232623D01*
X1337727Y239253D02*
X1332673Y239253D01*
X1332673Y245883D02*
X1337727Y245883D01*
X1337727Y252513D02*
X1332673Y252513D01*
D13*
X935500Y228300D03*
X935500Y184300D03*
D15*
X833200Y240900D03*
D16*
X810400Y167900D03*
X856000Y167900D03*
D17*
X1182250Y862800D03*
X1156850Y862800D03*
X1131450Y862800D03*
X1106050Y862800D03*
X1080650Y862800D03*
X1055250Y862800D03*
X1029850Y862800D03*
X1004450Y862800D03*
D18*
X1312000Y755000D03*
X1312000Y785000D03*
X1312000Y870000D03*
X848000Y755000D03*
X848000Y785000D03*
X848000Y870000D03*
D19*
X1010000Y-55600D03*
X1035400Y-55600D03*
X1060800Y-55600D03*
X1086200Y-55600D03*
X1111600Y-55600D03*
X1137000Y-55600D03*
D18*
X913000Y435500D03*
X883000Y435500D03*
X798000Y435500D03*
D20*
X1124900Y709800D03*
X1137600Y709800D03*
X1150300Y709800D03*
X1163000Y709800D03*
X1175700Y709800D03*
X1188400Y709800D03*
X1201100Y709800D03*
X1201100Y761800D03*
X1188400Y761800D03*
X1175700Y761800D03*
X1163000Y761800D03*
X1150300Y761800D03*
X1137600Y761800D03*
X1124900Y761800D03*
D18*
X1247000Y435500D03*
X1277000Y435500D03*
X1362000Y435500D03*
D21*
X997900Y524600D03*
X1017900Y524600D03*
D20*
X985600Y606800D03*
X998300Y606800D03*
X1011000Y606800D03*
X1023700Y606800D03*
X1036400Y606800D03*
X1049100Y606800D03*
X1061800Y606800D03*
X1061800Y658800D03*
X1049100Y658800D03*
X1036400Y658800D03*
X1023700Y658800D03*
X1011000Y658800D03*
X998300Y658800D03*
X985600Y658800D03*
D21*
X1164500Y527100D03*
X1184500Y527100D03*
X1088700Y523100D03*
X1108700Y523100D03*
D22*
X1112378Y635098D03*
X1112378Y616302D03*
D23*
X1134222Y625700D03*
D11*
X1088400Y561800D03*
X1107400Y561800D03*
D18*
X848000Y565000D03*
X848000Y595000D03*
X848000Y680000D03*
X1312000Y565000D03*
X1312000Y595000D03*
X1312000Y680000D03*
D20*
X999400Y707500D03*
X1012100Y707500D03*
X1024800Y707500D03*
X1037500Y707500D03*
X1050200Y707500D03*
X1062900Y707500D03*
X1075600Y707500D03*
X1075600Y759500D03*
X1062900Y759500D03*
X1050200Y759500D03*
X1037500Y759500D03*
X1024800Y759500D03*
X1012100Y759500D03*
X999400Y759500D03*
D21*
X922000Y820500D03*
X942000Y820500D03*
D24*
X1055250Y-179900D03*
X1055250Y-129100D03*
X1106050Y-179900D03*
X1106050Y-129100D03*
X1080650Y-181500D03*
X1080650Y-127500D03*
D25*
X1106050Y-154500D03*
D11*
X1002000Y-98000D03*
X1021000Y-98000D03*
X870500Y99500D03*
X889500Y99500D03*
D26*
X1005500Y-154500D03*
X1024500Y-154500D03*
X1015000Y-132500D03*
D11*
X923000Y-89000D03*
X942000Y-89000D03*
X923000Y-143500D03*
X942000Y-143500D03*
X963000Y-183500D03*
X982000Y-183500D03*
D18*
X848000Y-85000D03*
X848000Y-115000D03*
X848000Y-200000D03*
D26*
X1223500Y-185500D03*
X1242500Y-185500D03*
X1233000Y-163500D03*
D11*
X1164500Y-117500D03*
X1183500Y-117500D03*
X1165500Y-159500D03*
X1184500Y-159500D03*
X1165500Y-202500D03*
X1184500Y-202500D03*
D18*
X1326000Y-85000D03*
X1326000Y-115000D03*
X1326000Y-200000D03*
D27*
X1281000Y-2930D03*
X1255600Y141850D03*
D28*
X1214960Y72000D03*
X1347040Y72000D03*
D27*
X1306400Y141850D03*
X1255600Y-2930D03*
X1306400Y-2930D03*
X878500Y-2930D03*
X853100Y141850D03*
D28*
X812460Y72000D03*
X944540Y72000D03*
D27*
X903900Y141850D03*
X853100Y-2930D03*
X903900Y-2930D03*
D29*
X854150Y-279800D03*
X841450Y-279800D03*
X1311350Y-279800D03*
X1298650Y-279800D03*
X1311350Y945400D03*
X1298650Y945400D03*
X844150Y945400D03*
X831450Y945400D03*
D18*
X913000Y342000D03*
X883000Y342000D03*
X798000Y342000D03*
X1247000Y341500D03*
X1277000Y341500D03*
X1362000Y341500D03*
D11*
X1342000Y-41000D03*
X1361000Y-41000D03*
X1274500Y96500D03*
X1293500Y96500D03*
X1201500Y13500D03*
X1220500Y13500D03*
X803000Y120500D03*
X822000Y120500D03*
X804000Y7500D03*
X823000Y7500D03*
X935500Y136500D03*
X954500Y136500D03*
X1211000Y281000D03*
X1230000Y281000D03*
X1199500Y466000D03*
X1218500Y466000D03*
X1202000Y360500D03*
X1221000Y360500D03*
X1201500Y403000D03*
X1220500Y403000D03*
X923000Y786000D03*
X942000Y786000D03*
X924000Y747000D03*
X943000Y747000D03*
X923000Y709500D03*
X942000Y709500D03*
X921500Y660000D03*
X940500Y660000D03*
X920500Y615500D03*
X939500Y615500D03*
D30*
X973836Y-170688D03*
X932688Y640080D03*
X1055370Y643128D03*
X1017270Y643128D03*
X1037082Y733044D03*
X941832Y370332D03*
X1181862Y341376D03*
X1200912Y377190D03*
X1061466Y253746D03*
X963930Y57150D03*
X905256Y400812D03*
X1267968Y-9144D03*
X1267968Y53340D03*
X1037082Y636270D03*
X1008888Y636270D03*
X1170432Y-104394D03*
X1110234Y-104394D03*
X967740Y-88392D03*
X903732Y416814D03*
X845058Y178308D03*
X1194054Y305562D03*
X1106424Y677418D03*
X1031748Y401574D03*
X1108710Y689610D03*
X909828Y554736D03*
X1006602Y736092D03*
X902970Y774954D03*
X1037082Y677418D03*
X1055370Y729234D03*
X1188720Y790194D03*
X810006Y748284D03*
X1137666Y726186D03*
X1290828Y573024D03*
X1016508Y630174D03*
X979932Y414528D03*
X1019556Y401574D03*
X1204722Y420624D03*
X1025652Y726948D03*
X819150Y748284D03*
X1116330Y784860D03*
X985266Y-102108D03*
X936498Y-102108D03*
X1217676Y-160020D03*
X1113282Y697992D03*
X1083564Y586740D03*
X903732Y448818D03*
M02*
