M48
;GenerationSoftware,Autodesk,EAGLE,9.5.2*%
;CreationDate,2020-01-09T19:24:00Z*%
FMAT,2
ICI,OFF
METRIC,TZ,000.000
T7C0.350
T6C0.800
T5C1.000
T4C1.016
T3C1.100
T2C2.286
T1C3.200
%
G90
M71
T1
X83145Y94540
X84415Y94540
X129865Y94540
X131135Y94540
X129865Y-27980
X131135Y-27980
X84145Y-27980
X85415Y-27980
T2
X121496Y7200
X94454Y7200
X81246Y7200
X134704Y7200
T3
X84800Y59500
X91300Y43550
X131200Y75500
X131200Y78500
X131200Y87000
X84800Y75500
X84800Y78500
X84800Y87000
X132600Y-20000
X132600Y-11500
X132600Y-8500
X84800Y-20000
X84800Y-11500
X84800Y-8500
X136200Y34150
X127700Y34150
X124700Y34150
X79800Y34200
X88300Y34200
X91300Y34200
X131200Y68000
X131200Y59500
X131200Y56500
X84800Y68000
X88300Y43550
X84800Y56500
X136200Y43550
X127700Y43550
X124700Y43550
X79800Y43550
T4
X87850Y-293
X130640Y-293
X113700Y-5560
X111160Y-5560
X85310Y-293
X90390Y-293
X108620Y-5560
X106080Y-5560
X103540Y-5560
X101000Y-5560
X128100Y-293
X125560Y14185
X90390Y14185
X85310Y14185
X130640Y14185
X125560Y-293
T5
X110605Y-15450
X105525Y-17990
X105525Y-12910
X110605Y-17990
X110605Y-12910
X108065Y-18150
X108065Y-12750
X100445Y86280
X102985Y86280
X105525Y86280
X108065Y86280
X110605Y86280
X113145Y86280
X115685Y86280
X118225Y86280
T6
X99860Y870
X99860Y-1670
X115100Y46590
X115100Y44050
X115100Y41510
X115100Y38970
X115100Y36430
X115100Y33890
X115100Y31350
X115100Y28810
X115100Y26270
X115100Y23730
X115100Y21190
X115100Y18650
X115100Y16110
X115100Y13570
X115100Y11030
X115100Y8490
X115100Y5950
X115100Y3410
X115100Y870
X115100Y-1670
X99860Y3410
X99860Y5950
X99860Y8490
X99860Y11030
X99860Y13570
X99860Y16110
X99860Y18650
X99860Y21190
X99860Y23730
X99860Y26270
X99860Y28810
X99860Y31350
X99860Y33890
X99860Y36430
X99860Y38970
X99860Y41510
X99860Y44050
X99860Y46590
T7
X90373Y44882
X108356Y58674
X111328Y69799
X121768Y-16002
X93650Y-10211
X98527Y-10211
X111633Y78486
X81915Y74828
X102565Y72695
X120472Y42062
X101956Y40157
X97993Y41453
X101651Y63017
X129083Y57302
X113767Y72619
X81001Y74828
X118872Y79019
X105537Y72923
X103708Y67742
X90297Y77495
X100660Y73609
X90983Y55474
X110871Y68961
X103175Y40157
X110642Y67742
X119405Y30556
X84506Y17831
X90373Y41681
X96774Y-8839
X111023Y-10439
X117043Y-10439
X100889Y63627
X103708Y63627
X126797Y5334
X126797Y-914
X90526Y40081
X96393Y5715
X106147Y25375
X120091Y37719
X118186Y34138
X94183Y37033
X103708Y73304
X101727Y64313
X105537Y64313
X93269Y64008
X97384Y-17069
M30