G04 EAGLE Gerber RS-274X export*
G75*
%MOMM*%
%FSLAX34Y34*%
%LPD*%
%INBottom Soldermask*%
%IPPOS*%
%AMOC8*
5,1,8,0,0,1.08239X$1,22.5*%
G01*
%ADD10C,0.431800*%
%ADD11C,0.533400*%
%ADD12C,1.511200*%
%ADD13C,1.879600*%
%ADD14C,1.853200*%
%ADD15C,2.082800*%
%ADD16C,1.711200*%
%ADD17C,1.203200*%
%ADD18C,1.727200*%
%ADD19C,3.505200*%
%ADD20C,3.403200*%
%ADD21C,0.959600*%


D10*
X912341Y-31315D02*
X912341Y-48841D01*
X904552Y-48841D01*
X894296Y-48841D02*
X889428Y-48841D01*
X894296Y-48841D02*
X894403Y-48839D01*
X894509Y-48833D01*
X894615Y-48823D01*
X894721Y-48810D01*
X894827Y-48792D01*
X894931Y-48771D01*
X895035Y-48746D01*
X895138Y-48717D01*
X895239Y-48685D01*
X895339Y-48648D01*
X895438Y-48608D01*
X895536Y-48565D01*
X895632Y-48518D01*
X895726Y-48467D01*
X895818Y-48413D01*
X895908Y-48356D01*
X895996Y-48296D01*
X896081Y-48232D01*
X896164Y-48165D01*
X896245Y-48095D01*
X896323Y-48023D01*
X896399Y-47947D01*
X896471Y-47869D01*
X896541Y-47788D01*
X896608Y-47705D01*
X896672Y-47620D01*
X896732Y-47532D01*
X896789Y-47442D01*
X896843Y-47350D01*
X896894Y-47256D01*
X896941Y-47160D01*
X896984Y-47062D01*
X897024Y-46963D01*
X897061Y-46863D01*
X897093Y-46762D01*
X897122Y-46659D01*
X897147Y-46555D01*
X897168Y-46451D01*
X897186Y-46345D01*
X897199Y-46239D01*
X897209Y-46133D01*
X897215Y-46027D01*
X897217Y-45920D01*
X897217Y-41052D01*
X897215Y-40928D01*
X897209Y-40805D01*
X897199Y-40682D01*
X897186Y-40559D01*
X897168Y-40437D01*
X897147Y-40315D01*
X897121Y-40194D01*
X897092Y-40074D01*
X897059Y-39955D01*
X897023Y-39837D01*
X896982Y-39720D01*
X896938Y-39604D01*
X896890Y-39490D01*
X896839Y-39378D01*
X896784Y-39267D01*
X896726Y-39158D01*
X896664Y-39051D01*
X896599Y-38946D01*
X896530Y-38843D01*
X896459Y-38743D01*
X896384Y-38644D01*
X896306Y-38548D01*
X896225Y-38455D01*
X896141Y-38364D01*
X896054Y-38276D01*
X895965Y-38191D01*
X895873Y-38108D01*
X895778Y-38029D01*
X895681Y-37953D01*
X895581Y-37879D01*
X895480Y-37809D01*
X895376Y-37742D01*
X895270Y-37679D01*
X895161Y-37619D01*
X895052Y-37562D01*
X894940Y-37509D01*
X894827Y-37459D01*
X894712Y-37413D01*
X894596Y-37371D01*
X894479Y-37333D01*
X894360Y-37298D01*
X894240Y-37267D01*
X894120Y-37240D01*
X893998Y-37216D01*
X893876Y-37197D01*
X893754Y-37181D01*
X893631Y-37169D01*
X893507Y-37161D01*
X893384Y-37157D01*
X893260Y-37157D01*
X893137Y-37161D01*
X893013Y-37169D01*
X892890Y-37181D01*
X892768Y-37197D01*
X892646Y-37216D01*
X892524Y-37240D01*
X892404Y-37267D01*
X892284Y-37298D01*
X892165Y-37333D01*
X892048Y-37371D01*
X891932Y-37413D01*
X891817Y-37459D01*
X891704Y-37509D01*
X891592Y-37562D01*
X891483Y-37619D01*
X891375Y-37679D01*
X891268Y-37742D01*
X891164Y-37809D01*
X891063Y-37879D01*
X890963Y-37953D01*
X890866Y-38029D01*
X890771Y-38108D01*
X890679Y-38191D01*
X890590Y-38276D01*
X890503Y-38364D01*
X890419Y-38455D01*
X890338Y-38548D01*
X890260Y-38644D01*
X890185Y-38743D01*
X890114Y-38843D01*
X890045Y-38946D01*
X889980Y-39051D01*
X889918Y-39158D01*
X889860Y-39267D01*
X889805Y-39378D01*
X889754Y-39490D01*
X889706Y-39604D01*
X889662Y-39720D01*
X889621Y-39837D01*
X889585Y-39955D01*
X889552Y-40074D01*
X889523Y-40194D01*
X889497Y-40315D01*
X889476Y-40437D01*
X889458Y-40559D01*
X889445Y-40682D01*
X889435Y-40805D01*
X889429Y-40928D01*
X889427Y-41052D01*
X889428Y-41052D02*
X889428Y-42999D01*
X897217Y-42999D01*
X880532Y-48841D02*
X880532Y-37157D01*
X875664Y-37157D01*
X875557Y-37159D01*
X875451Y-37165D01*
X875345Y-37175D01*
X875239Y-37188D01*
X875133Y-37206D01*
X875029Y-37227D01*
X874925Y-37252D01*
X874822Y-37281D01*
X874721Y-37313D01*
X874621Y-37350D01*
X874522Y-37390D01*
X874424Y-37433D01*
X874328Y-37480D01*
X874234Y-37531D01*
X874142Y-37585D01*
X874052Y-37642D01*
X873964Y-37702D01*
X873879Y-37766D01*
X873796Y-37833D01*
X873715Y-37903D01*
X873637Y-37975D01*
X873561Y-38051D01*
X873489Y-38129D01*
X873419Y-38210D01*
X873352Y-38293D01*
X873288Y-38378D01*
X873228Y-38466D01*
X873171Y-38556D01*
X873117Y-38648D01*
X873066Y-38742D01*
X873019Y-38838D01*
X872976Y-38936D01*
X872936Y-39035D01*
X872899Y-39135D01*
X872867Y-39236D01*
X872838Y-39339D01*
X872813Y-39443D01*
X872792Y-39547D01*
X872774Y-39653D01*
X872761Y-39759D01*
X872751Y-39865D01*
X872745Y-39971D01*
X872743Y-40078D01*
X872743Y-48841D01*
X861067Y-48841D02*
X856199Y-48841D01*
X861067Y-48841D02*
X861174Y-48839D01*
X861280Y-48833D01*
X861386Y-48823D01*
X861492Y-48810D01*
X861598Y-48792D01*
X861702Y-48771D01*
X861806Y-48746D01*
X861909Y-48717D01*
X862010Y-48685D01*
X862110Y-48648D01*
X862209Y-48608D01*
X862307Y-48565D01*
X862403Y-48518D01*
X862497Y-48467D01*
X862589Y-48413D01*
X862679Y-48356D01*
X862767Y-48296D01*
X862852Y-48232D01*
X862935Y-48165D01*
X863016Y-48095D01*
X863094Y-48023D01*
X863170Y-47947D01*
X863242Y-47869D01*
X863312Y-47788D01*
X863379Y-47705D01*
X863443Y-47620D01*
X863503Y-47532D01*
X863560Y-47442D01*
X863614Y-47350D01*
X863665Y-47256D01*
X863712Y-47160D01*
X863755Y-47062D01*
X863795Y-46963D01*
X863832Y-46863D01*
X863864Y-46762D01*
X863893Y-46659D01*
X863918Y-46555D01*
X863939Y-46451D01*
X863957Y-46345D01*
X863970Y-46239D01*
X863980Y-46133D01*
X863986Y-46027D01*
X863988Y-45920D01*
X863988Y-40078D01*
X863986Y-39971D01*
X863980Y-39865D01*
X863970Y-39759D01*
X863957Y-39653D01*
X863939Y-39547D01*
X863918Y-39443D01*
X863893Y-39339D01*
X863864Y-39236D01*
X863832Y-39135D01*
X863795Y-39035D01*
X863755Y-38936D01*
X863712Y-38838D01*
X863665Y-38742D01*
X863614Y-38648D01*
X863560Y-38556D01*
X863503Y-38466D01*
X863443Y-38378D01*
X863379Y-38293D01*
X863312Y-38210D01*
X863242Y-38129D01*
X863170Y-38051D01*
X863094Y-37975D01*
X863016Y-37903D01*
X862935Y-37833D01*
X862852Y-37766D01*
X862767Y-37702D01*
X862679Y-37642D01*
X862589Y-37585D01*
X862497Y-37531D01*
X862403Y-37480D01*
X862307Y-37433D01*
X862209Y-37390D01*
X862110Y-37350D01*
X862010Y-37313D01*
X861909Y-37281D01*
X861806Y-37252D01*
X861702Y-37227D01*
X861598Y-37206D01*
X861492Y-37188D01*
X861386Y-37175D01*
X861280Y-37165D01*
X861174Y-37159D01*
X861067Y-37157D01*
X856199Y-37157D01*
X856199Y-51762D01*
X856201Y-51869D01*
X856207Y-51975D01*
X856217Y-52081D01*
X856230Y-52187D01*
X856248Y-52293D01*
X856269Y-52397D01*
X856294Y-52501D01*
X856323Y-52604D01*
X856355Y-52705D01*
X856392Y-52805D01*
X856432Y-52904D01*
X856475Y-53002D01*
X856522Y-53098D01*
X856573Y-53192D01*
X856627Y-53284D01*
X856684Y-53374D01*
X856744Y-53462D01*
X856808Y-53547D01*
X856875Y-53630D01*
X856945Y-53711D01*
X857017Y-53789D01*
X857093Y-53865D01*
X857171Y-53937D01*
X857252Y-54007D01*
X857335Y-54074D01*
X857420Y-54138D01*
X857508Y-54198D01*
X857598Y-54255D01*
X857690Y-54309D01*
X857784Y-54360D01*
X857880Y-54407D01*
X857978Y-54450D01*
X858077Y-54490D01*
X858177Y-54527D01*
X858278Y-54559D01*
X858381Y-54588D01*
X858485Y-54613D01*
X858589Y-54634D01*
X858695Y-54652D01*
X858801Y-54665D01*
X858907Y-54675D01*
X859013Y-54681D01*
X859120Y-54683D01*
X863015Y-54683D01*
X848889Y-37157D02*
X843047Y-37157D01*
X846941Y-31315D02*
X846941Y-45920D01*
X846939Y-46027D01*
X846933Y-46133D01*
X846923Y-46239D01*
X846910Y-46345D01*
X846892Y-46451D01*
X846871Y-46555D01*
X846846Y-46659D01*
X846817Y-46762D01*
X846785Y-46863D01*
X846748Y-46963D01*
X846708Y-47062D01*
X846665Y-47160D01*
X846618Y-47256D01*
X846567Y-47350D01*
X846513Y-47442D01*
X846456Y-47532D01*
X846396Y-47620D01*
X846332Y-47705D01*
X846265Y-47788D01*
X846195Y-47869D01*
X846123Y-47947D01*
X846047Y-48023D01*
X845969Y-48095D01*
X845888Y-48165D01*
X845805Y-48232D01*
X845720Y-48296D01*
X845632Y-48356D01*
X845542Y-48413D01*
X845450Y-48467D01*
X845356Y-48518D01*
X845260Y-48565D01*
X845162Y-48608D01*
X845063Y-48648D01*
X844963Y-48685D01*
X844862Y-48717D01*
X844759Y-48746D01*
X844655Y-48771D01*
X844551Y-48792D01*
X844445Y-48810D01*
X844339Y-48823D01*
X844233Y-48833D01*
X844127Y-48839D01*
X844020Y-48841D01*
X843047Y-48841D01*
X834805Y-48841D02*
X834805Y-31315D01*
X834805Y-37157D02*
X829936Y-37157D01*
X829829Y-37159D01*
X829723Y-37165D01*
X829617Y-37175D01*
X829511Y-37188D01*
X829405Y-37206D01*
X829301Y-37227D01*
X829197Y-37252D01*
X829094Y-37281D01*
X828993Y-37313D01*
X828893Y-37350D01*
X828794Y-37390D01*
X828696Y-37433D01*
X828600Y-37480D01*
X828506Y-37531D01*
X828414Y-37585D01*
X828324Y-37642D01*
X828236Y-37702D01*
X828151Y-37766D01*
X828068Y-37833D01*
X827987Y-37903D01*
X827909Y-37975D01*
X827833Y-38051D01*
X827761Y-38129D01*
X827691Y-38210D01*
X827624Y-38293D01*
X827560Y-38378D01*
X827500Y-38466D01*
X827443Y-38556D01*
X827389Y-38648D01*
X827338Y-38742D01*
X827291Y-38838D01*
X827248Y-38936D01*
X827208Y-39035D01*
X827171Y-39135D01*
X827139Y-39236D01*
X827110Y-39339D01*
X827085Y-39443D01*
X827064Y-39547D01*
X827046Y-39653D01*
X827033Y-39759D01*
X827023Y-39865D01*
X827017Y-39971D01*
X827015Y-40078D01*
X827015Y-48841D01*
X1318973Y-48841D02*
X1318973Y-31315D01*
X1323841Y-31315D02*
X1314104Y-31315D01*
X1303880Y-48841D02*
X1299011Y-48841D01*
X1303880Y-48841D02*
X1303987Y-48839D01*
X1304093Y-48833D01*
X1304199Y-48823D01*
X1304305Y-48810D01*
X1304411Y-48792D01*
X1304515Y-48771D01*
X1304619Y-48746D01*
X1304722Y-48717D01*
X1304823Y-48685D01*
X1304923Y-48648D01*
X1305022Y-48608D01*
X1305120Y-48565D01*
X1305216Y-48518D01*
X1305310Y-48467D01*
X1305402Y-48413D01*
X1305492Y-48356D01*
X1305580Y-48296D01*
X1305665Y-48232D01*
X1305748Y-48165D01*
X1305829Y-48095D01*
X1305907Y-48023D01*
X1305983Y-47947D01*
X1306055Y-47869D01*
X1306125Y-47788D01*
X1306192Y-47705D01*
X1306256Y-47620D01*
X1306316Y-47532D01*
X1306373Y-47442D01*
X1306427Y-47350D01*
X1306478Y-47256D01*
X1306525Y-47160D01*
X1306568Y-47062D01*
X1306608Y-46963D01*
X1306645Y-46863D01*
X1306677Y-46762D01*
X1306706Y-46659D01*
X1306731Y-46555D01*
X1306752Y-46451D01*
X1306770Y-46345D01*
X1306783Y-46239D01*
X1306793Y-46133D01*
X1306799Y-46027D01*
X1306801Y-45920D01*
X1306801Y-41052D01*
X1306799Y-40928D01*
X1306793Y-40805D01*
X1306783Y-40682D01*
X1306770Y-40559D01*
X1306752Y-40437D01*
X1306731Y-40315D01*
X1306705Y-40194D01*
X1306676Y-40074D01*
X1306643Y-39955D01*
X1306607Y-39837D01*
X1306566Y-39720D01*
X1306522Y-39604D01*
X1306474Y-39490D01*
X1306423Y-39378D01*
X1306368Y-39267D01*
X1306310Y-39158D01*
X1306248Y-39051D01*
X1306183Y-38946D01*
X1306114Y-38843D01*
X1306043Y-38743D01*
X1305968Y-38644D01*
X1305890Y-38548D01*
X1305809Y-38455D01*
X1305725Y-38364D01*
X1305638Y-38276D01*
X1305549Y-38191D01*
X1305457Y-38108D01*
X1305362Y-38029D01*
X1305265Y-37953D01*
X1305165Y-37879D01*
X1305064Y-37809D01*
X1304960Y-37742D01*
X1304854Y-37679D01*
X1304745Y-37619D01*
X1304636Y-37562D01*
X1304524Y-37509D01*
X1304411Y-37459D01*
X1304296Y-37413D01*
X1304180Y-37371D01*
X1304063Y-37333D01*
X1303944Y-37298D01*
X1303824Y-37267D01*
X1303704Y-37240D01*
X1303582Y-37216D01*
X1303460Y-37197D01*
X1303338Y-37181D01*
X1303215Y-37169D01*
X1303091Y-37161D01*
X1302968Y-37157D01*
X1302844Y-37157D01*
X1302721Y-37161D01*
X1302597Y-37169D01*
X1302474Y-37181D01*
X1302352Y-37197D01*
X1302230Y-37216D01*
X1302108Y-37240D01*
X1301988Y-37267D01*
X1301868Y-37298D01*
X1301749Y-37333D01*
X1301632Y-37371D01*
X1301516Y-37413D01*
X1301401Y-37459D01*
X1301288Y-37509D01*
X1301176Y-37562D01*
X1301067Y-37619D01*
X1300959Y-37679D01*
X1300852Y-37742D01*
X1300748Y-37809D01*
X1300647Y-37879D01*
X1300547Y-37953D01*
X1300450Y-38029D01*
X1300355Y-38108D01*
X1300263Y-38191D01*
X1300174Y-38276D01*
X1300087Y-38364D01*
X1300003Y-38455D01*
X1299922Y-38548D01*
X1299844Y-38644D01*
X1299769Y-38743D01*
X1299698Y-38843D01*
X1299629Y-38946D01*
X1299564Y-39051D01*
X1299502Y-39158D01*
X1299444Y-39267D01*
X1299389Y-39378D01*
X1299338Y-39490D01*
X1299290Y-39604D01*
X1299246Y-39720D01*
X1299205Y-39837D01*
X1299169Y-39955D01*
X1299136Y-40074D01*
X1299107Y-40194D01*
X1299081Y-40315D01*
X1299060Y-40437D01*
X1299042Y-40559D01*
X1299029Y-40682D01*
X1299019Y-40805D01*
X1299013Y-40928D01*
X1299011Y-41052D01*
X1299011Y-42999D01*
X1306801Y-42999D01*
X1289592Y-48841D02*
X1289592Y-37157D01*
X1280829Y-37157D01*
X1280722Y-37159D01*
X1280616Y-37165D01*
X1280510Y-37175D01*
X1280404Y-37188D01*
X1280298Y-37206D01*
X1280194Y-37227D01*
X1280090Y-37252D01*
X1279987Y-37281D01*
X1279886Y-37313D01*
X1279786Y-37350D01*
X1279687Y-37390D01*
X1279589Y-37433D01*
X1279493Y-37480D01*
X1279399Y-37531D01*
X1279307Y-37585D01*
X1279217Y-37642D01*
X1279129Y-37702D01*
X1279044Y-37766D01*
X1278961Y-37833D01*
X1278880Y-37903D01*
X1278802Y-37975D01*
X1278726Y-38051D01*
X1278654Y-38129D01*
X1278584Y-38210D01*
X1278517Y-38293D01*
X1278453Y-38378D01*
X1278393Y-38466D01*
X1278336Y-38556D01*
X1278282Y-38648D01*
X1278231Y-38742D01*
X1278184Y-38838D01*
X1278141Y-38936D01*
X1278101Y-39035D01*
X1278064Y-39135D01*
X1278032Y-39236D01*
X1278003Y-39339D01*
X1277978Y-39443D01*
X1277957Y-39547D01*
X1277939Y-39653D01*
X1277926Y-39759D01*
X1277916Y-39865D01*
X1277910Y-39971D01*
X1277908Y-40078D01*
X1277908Y-48841D01*
X1283750Y-48841D02*
X1283750Y-37157D01*
X1267730Y-37157D02*
X1267730Y-54683D01*
X1267730Y-37157D02*
X1262861Y-37157D01*
X1262754Y-37159D01*
X1262648Y-37165D01*
X1262542Y-37175D01*
X1262436Y-37188D01*
X1262330Y-37206D01*
X1262226Y-37227D01*
X1262122Y-37252D01*
X1262019Y-37281D01*
X1261918Y-37313D01*
X1261818Y-37350D01*
X1261719Y-37390D01*
X1261621Y-37433D01*
X1261525Y-37480D01*
X1261431Y-37531D01*
X1261339Y-37585D01*
X1261249Y-37642D01*
X1261161Y-37702D01*
X1261076Y-37766D01*
X1260993Y-37833D01*
X1260912Y-37903D01*
X1260834Y-37975D01*
X1260758Y-38051D01*
X1260686Y-38129D01*
X1260616Y-38210D01*
X1260549Y-38293D01*
X1260485Y-38378D01*
X1260425Y-38466D01*
X1260368Y-38556D01*
X1260314Y-38648D01*
X1260263Y-38742D01*
X1260216Y-38838D01*
X1260173Y-38936D01*
X1260133Y-39035D01*
X1260096Y-39135D01*
X1260064Y-39236D01*
X1260035Y-39339D01*
X1260010Y-39443D01*
X1259989Y-39547D01*
X1259971Y-39653D01*
X1259958Y-39759D01*
X1259948Y-39865D01*
X1259942Y-39971D01*
X1259940Y-40078D01*
X1259940Y-45920D01*
X1259942Y-46027D01*
X1259948Y-46133D01*
X1259958Y-46239D01*
X1259971Y-46345D01*
X1259989Y-46451D01*
X1260010Y-46555D01*
X1260035Y-46659D01*
X1260064Y-46762D01*
X1260096Y-46863D01*
X1260133Y-46963D01*
X1260173Y-47062D01*
X1260216Y-47160D01*
X1260263Y-47256D01*
X1260314Y-47350D01*
X1260368Y-47442D01*
X1260425Y-47532D01*
X1260485Y-47620D01*
X1260549Y-47705D01*
X1260616Y-47788D01*
X1260686Y-47869D01*
X1260758Y-47947D01*
X1260834Y-48023D01*
X1260912Y-48095D01*
X1260993Y-48165D01*
X1261076Y-48232D01*
X1261161Y-48296D01*
X1261249Y-48356D01*
X1261339Y-48413D01*
X1261431Y-48467D01*
X1261525Y-48518D01*
X1261621Y-48565D01*
X1261719Y-48608D01*
X1261818Y-48648D01*
X1261918Y-48685D01*
X1262019Y-48717D01*
X1262122Y-48746D01*
X1262226Y-48771D01*
X1262330Y-48792D01*
X1262436Y-48810D01*
X1262542Y-48823D01*
X1262648Y-48833D01*
X1262754Y-48839D01*
X1262861Y-48841D01*
X1267730Y-48841D01*
X1251804Y-44946D02*
X1251804Y-41052D01*
X1251802Y-40928D01*
X1251796Y-40805D01*
X1251786Y-40682D01*
X1251773Y-40559D01*
X1251755Y-40437D01*
X1251734Y-40315D01*
X1251708Y-40194D01*
X1251679Y-40074D01*
X1251646Y-39955D01*
X1251610Y-39837D01*
X1251569Y-39720D01*
X1251525Y-39604D01*
X1251477Y-39490D01*
X1251426Y-39378D01*
X1251371Y-39267D01*
X1251313Y-39158D01*
X1251251Y-39051D01*
X1251186Y-38946D01*
X1251117Y-38843D01*
X1251046Y-38743D01*
X1250971Y-38644D01*
X1250893Y-38548D01*
X1250812Y-38455D01*
X1250728Y-38364D01*
X1250641Y-38276D01*
X1250552Y-38191D01*
X1250460Y-38108D01*
X1250365Y-38029D01*
X1250268Y-37953D01*
X1250168Y-37879D01*
X1250067Y-37809D01*
X1249963Y-37742D01*
X1249857Y-37679D01*
X1249748Y-37619D01*
X1249639Y-37562D01*
X1249527Y-37509D01*
X1249414Y-37459D01*
X1249299Y-37413D01*
X1249183Y-37371D01*
X1249066Y-37333D01*
X1248947Y-37298D01*
X1248827Y-37267D01*
X1248707Y-37240D01*
X1248585Y-37216D01*
X1248463Y-37197D01*
X1248341Y-37181D01*
X1248218Y-37169D01*
X1248094Y-37161D01*
X1247971Y-37157D01*
X1247847Y-37157D01*
X1247724Y-37161D01*
X1247600Y-37169D01*
X1247477Y-37181D01*
X1247355Y-37197D01*
X1247233Y-37216D01*
X1247111Y-37240D01*
X1246991Y-37267D01*
X1246871Y-37298D01*
X1246752Y-37333D01*
X1246635Y-37371D01*
X1246519Y-37413D01*
X1246404Y-37459D01*
X1246291Y-37509D01*
X1246179Y-37562D01*
X1246070Y-37619D01*
X1245962Y-37679D01*
X1245855Y-37742D01*
X1245751Y-37809D01*
X1245650Y-37879D01*
X1245550Y-37953D01*
X1245453Y-38029D01*
X1245358Y-38108D01*
X1245266Y-38191D01*
X1245177Y-38276D01*
X1245090Y-38364D01*
X1245006Y-38455D01*
X1244925Y-38548D01*
X1244847Y-38644D01*
X1244772Y-38743D01*
X1244701Y-38843D01*
X1244632Y-38946D01*
X1244567Y-39051D01*
X1244505Y-39158D01*
X1244447Y-39267D01*
X1244392Y-39378D01*
X1244341Y-39490D01*
X1244293Y-39604D01*
X1244249Y-39720D01*
X1244208Y-39837D01*
X1244172Y-39955D01*
X1244139Y-40074D01*
X1244110Y-40194D01*
X1244084Y-40315D01*
X1244063Y-40437D01*
X1244045Y-40559D01*
X1244032Y-40682D01*
X1244022Y-40805D01*
X1244016Y-40928D01*
X1244014Y-41052D01*
X1244014Y-44946D01*
X1244016Y-45070D01*
X1244022Y-45193D01*
X1244032Y-45316D01*
X1244045Y-45439D01*
X1244063Y-45561D01*
X1244084Y-45683D01*
X1244110Y-45804D01*
X1244139Y-45924D01*
X1244172Y-46043D01*
X1244208Y-46161D01*
X1244249Y-46278D01*
X1244293Y-46394D01*
X1244341Y-46508D01*
X1244392Y-46620D01*
X1244447Y-46731D01*
X1244505Y-46840D01*
X1244567Y-46947D01*
X1244632Y-47052D01*
X1244701Y-47155D01*
X1244772Y-47255D01*
X1244847Y-47354D01*
X1244925Y-47450D01*
X1245006Y-47543D01*
X1245090Y-47634D01*
X1245177Y-47722D01*
X1245266Y-47807D01*
X1245358Y-47890D01*
X1245453Y-47969D01*
X1245550Y-48045D01*
X1245650Y-48119D01*
X1245751Y-48189D01*
X1245855Y-48256D01*
X1245962Y-48319D01*
X1246070Y-48379D01*
X1246179Y-48436D01*
X1246291Y-48489D01*
X1246404Y-48539D01*
X1246519Y-48585D01*
X1246635Y-48627D01*
X1246752Y-48665D01*
X1246871Y-48700D01*
X1246991Y-48731D01*
X1247111Y-48758D01*
X1247233Y-48782D01*
X1247355Y-48801D01*
X1247477Y-48817D01*
X1247600Y-48829D01*
X1247724Y-48837D01*
X1247847Y-48841D01*
X1247971Y-48841D01*
X1248094Y-48837D01*
X1248218Y-48829D01*
X1248341Y-48817D01*
X1248463Y-48801D01*
X1248585Y-48782D01*
X1248707Y-48758D01*
X1248827Y-48731D01*
X1248947Y-48700D01*
X1249066Y-48665D01*
X1249183Y-48627D01*
X1249299Y-48585D01*
X1249414Y-48539D01*
X1249527Y-48489D01*
X1249639Y-48436D01*
X1249748Y-48379D01*
X1249857Y-48319D01*
X1249963Y-48256D01*
X1250067Y-48189D01*
X1250168Y-48119D01*
X1250268Y-48045D01*
X1250365Y-47969D01*
X1250460Y-47890D01*
X1250552Y-47807D01*
X1250641Y-47722D01*
X1250728Y-47634D01*
X1250812Y-47543D01*
X1250893Y-47450D01*
X1250971Y-47354D01*
X1251046Y-47255D01*
X1251117Y-47155D01*
X1251186Y-47052D01*
X1251251Y-46947D01*
X1251313Y-46840D01*
X1251371Y-46731D01*
X1251426Y-46620D01*
X1251477Y-46508D01*
X1251525Y-46394D01*
X1251569Y-46278D01*
X1251610Y-46161D01*
X1251646Y-46043D01*
X1251679Y-45924D01*
X1251708Y-45804D01*
X1251734Y-45683D01*
X1251755Y-45561D01*
X1251773Y-45439D01*
X1251786Y-45316D01*
X1251796Y-45193D01*
X1251802Y-45070D01*
X1251804Y-44946D01*
X1365841Y-223315D02*
X1365841Y-240841D01*
X1365841Y-223315D02*
X1360973Y-223315D01*
X1360835Y-223317D01*
X1360698Y-223323D01*
X1360560Y-223333D01*
X1360423Y-223346D01*
X1360286Y-223364D01*
X1360150Y-223385D01*
X1360015Y-223410D01*
X1359880Y-223439D01*
X1359746Y-223472D01*
X1359614Y-223509D01*
X1359482Y-223549D01*
X1359351Y-223593D01*
X1359222Y-223641D01*
X1359094Y-223692D01*
X1358968Y-223747D01*
X1358843Y-223806D01*
X1358720Y-223868D01*
X1358599Y-223933D01*
X1358480Y-224002D01*
X1358362Y-224074D01*
X1358247Y-224150D01*
X1358134Y-224229D01*
X1358023Y-224310D01*
X1357915Y-224396D01*
X1357809Y-224484D01*
X1357705Y-224575D01*
X1357605Y-224669D01*
X1357507Y-224765D01*
X1357411Y-224865D01*
X1357319Y-224967D01*
X1357229Y-225072D01*
X1357143Y-225179D01*
X1357059Y-225288D01*
X1356979Y-225400D01*
X1356902Y-225514D01*
X1356828Y-225631D01*
X1356757Y-225749D01*
X1356690Y-225869D01*
X1356626Y-225991D01*
X1356566Y-226115D01*
X1356509Y-226241D01*
X1356456Y-226368D01*
X1356406Y-226496D01*
X1356361Y-226626D01*
X1356318Y-226758D01*
X1356280Y-226890D01*
X1356245Y-227023D01*
X1356214Y-227157D01*
X1356187Y-227292D01*
X1356164Y-227428D01*
X1356144Y-227565D01*
X1356129Y-227702D01*
X1356117Y-227839D01*
X1356109Y-227976D01*
X1356105Y-228114D01*
X1356105Y-228252D01*
X1356109Y-228390D01*
X1356117Y-228527D01*
X1356129Y-228664D01*
X1356144Y-228801D01*
X1356164Y-228938D01*
X1356187Y-229074D01*
X1356214Y-229209D01*
X1356245Y-229343D01*
X1356280Y-229476D01*
X1356318Y-229608D01*
X1356361Y-229740D01*
X1356406Y-229870D01*
X1356456Y-229998D01*
X1356509Y-230125D01*
X1356566Y-230251D01*
X1356626Y-230375D01*
X1356690Y-230497D01*
X1356757Y-230617D01*
X1356828Y-230735D01*
X1356902Y-230852D01*
X1356979Y-230966D01*
X1357059Y-231078D01*
X1357143Y-231187D01*
X1357229Y-231294D01*
X1357319Y-231399D01*
X1357411Y-231501D01*
X1357507Y-231601D01*
X1357605Y-231697D01*
X1357705Y-231791D01*
X1357809Y-231882D01*
X1357915Y-231970D01*
X1358023Y-232056D01*
X1358134Y-232137D01*
X1358247Y-232216D01*
X1358362Y-232292D01*
X1358480Y-232364D01*
X1358599Y-232433D01*
X1358720Y-232498D01*
X1358843Y-232560D01*
X1358968Y-232619D01*
X1359094Y-232674D01*
X1359222Y-232725D01*
X1359351Y-232773D01*
X1359482Y-232817D01*
X1359614Y-232857D01*
X1359746Y-232894D01*
X1359880Y-232927D01*
X1360015Y-232956D01*
X1360150Y-232981D01*
X1360286Y-233002D01*
X1360423Y-233020D01*
X1360560Y-233033D01*
X1360698Y-233043D01*
X1360835Y-233049D01*
X1360973Y-233051D01*
X1360973Y-233052D02*
X1365841Y-233052D01*
X1359999Y-233052D02*
X1356104Y-240841D01*
X1344820Y-240841D02*
X1339951Y-240841D01*
X1344820Y-240841D02*
X1344927Y-240839D01*
X1345033Y-240833D01*
X1345139Y-240823D01*
X1345245Y-240810D01*
X1345351Y-240792D01*
X1345455Y-240771D01*
X1345559Y-240746D01*
X1345662Y-240717D01*
X1345763Y-240685D01*
X1345863Y-240648D01*
X1345962Y-240608D01*
X1346060Y-240565D01*
X1346156Y-240518D01*
X1346250Y-240467D01*
X1346342Y-240413D01*
X1346432Y-240356D01*
X1346520Y-240296D01*
X1346605Y-240232D01*
X1346688Y-240165D01*
X1346769Y-240095D01*
X1346847Y-240023D01*
X1346923Y-239947D01*
X1346995Y-239869D01*
X1347065Y-239788D01*
X1347132Y-239705D01*
X1347196Y-239620D01*
X1347256Y-239532D01*
X1347313Y-239442D01*
X1347367Y-239350D01*
X1347418Y-239256D01*
X1347465Y-239160D01*
X1347508Y-239062D01*
X1347548Y-238963D01*
X1347585Y-238863D01*
X1347617Y-238762D01*
X1347646Y-238659D01*
X1347671Y-238555D01*
X1347692Y-238451D01*
X1347710Y-238345D01*
X1347723Y-238239D01*
X1347733Y-238133D01*
X1347739Y-238027D01*
X1347741Y-237920D01*
X1347741Y-233052D01*
X1347739Y-232928D01*
X1347733Y-232805D01*
X1347723Y-232682D01*
X1347710Y-232559D01*
X1347692Y-232437D01*
X1347671Y-232315D01*
X1347645Y-232194D01*
X1347616Y-232074D01*
X1347583Y-231955D01*
X1347547Y-231837D01*
X1347506Y-231720D01*
X1347462Y-231604D01*
X1347414Y-231490D01*
X1347363Y-231378D01*
X1347308Y-231267D01*
X1347250Y-231158D01*
X1347188Y-231051D01*
X1347123Y-230946D01*
X1347054Y-230843D01*
X1346983Y-230743D01*
X1346908Y-230644D01*
X1346830Y-230548D01*
X1346749Y-230455D01*
X1346665Y-230364D01*
X1346578Y-230276D01*
X1346489Y-230191D01*
X1346397Y-230108D01*
X1346302Y-230029D01*
X1346205Y-229953D01*
X1346105Y-229879D01*
X1346004Y-229809D01*
X1345900Y-229742D01*
X1345794Y-229679D01*
X1345685Y-229619D01*
X1345576Y-229562D01*
X1345464Y-229509D01*
X1345351Y-229459D01*
X1345236Y-229413D01*
X1345120Y-229371D01*
X1345003Y-229333D01*
X1344884Y-229298D01*
X1344764Y-229267D01*
X1344644Y-229240D01*
X1344522Y-229216D01*
X1344400Y-229197D01*
X1344278Y-229181D01*
X1344155Y-229169D01*
X1344031Y-229161D01*
X1343908Y-229157D01*
X1343784Y-229157D01*
X1343661Y-229161D01*
X1343537Y-229169D01*
X1343414Y-229181D01*
X1343292Y-229197D01*
X1343170Y-229216D01*
X1343048Y-229240D01*
X1342928Y-229267D01*
X1342808Y-229298D01*
X1342689Y-229333D01*
X1342572Y-229371D01*
X1342456Y-229413D01*
X1342341Y-229459D01*
X1342228Y-229509D01*
X1342116Y-229562D01*
X1342007Y-229619D01*
X1341899Y-229679D01*
X1341792Y-229742D01*
X1341688Y-229809D01*
X1341587Y-229879D01*
X1341487Y-229953D01*
X1341390Y-230029D01*
X1341295Y-230108D01*
X1341203Y-230191D01*
X1341114Y-230276D01*
X1341027Y-230364D01*
X1340943Y-230455D01*
X1340862Y-230548D01*
X1340784Y-230644D01*
X1340709Y-230743D01*
X1340638Y-230843D01*
X1340569Y-230946D01*
X1340504Y-231051D01*
X1340442Y-231158D01*
X1340384Y-231267D01*
X1340329Y-231378D01*
X1340278Y-231490D01*
X1340230Y-231604D01*
X1340186Y-231720D01*
X1340145Y-231837D01*
X1340109Y-231955D01*
X1340076Y-232074D01*
X1340047Y-232194D01*
X1340021Y-232315D01*
X1340000Y-232437D01*
X1339982Y-232559D01*
X1339969Y-232682D01*
X1339959Y-232805D01*
X1339953Y-232928D01*
X1339951Y-233052D01*
X1339951Y-234999D01*
X1347741Y-234999D01*
X1330213Y-234025D02*
X1325345Y-235973D01*
X1330214Y-234025D02*
X1330306Y-233986D01*
X1330397Y-233944D01*
X1330485Y-233898D01*
X1330572Y-233848D01*
X1330657Y-233795D01*
X1330740Y-233738D01*
X1330820Y-233679D01*
X1330898Y-233616D01*
X1330974Y-233550D01*
X1331046Y-233481D01*
X1331116Y-233410D01*
X1331183Y-233335D01*
X1331248Y-233259D01*
X1331308Y-233179D01*
X1331366Y-233097D01*
X1331421Y-233013D01*
X1331472Y-232927D01*
X1331520Y-232839D01*
X1331564Y-232750D01*
X1331604Y-232658D01*
X1331641Y-232565D01*
X1331674Y-232471D01*
X1331704Y-232375D01*
X1331729Y-232278D01*
X1331751Y-232180D01*
X1331769Y-232082D01*
X1331783Y-231983D01*
X1331793Y-231883D01*
X1331799Y-231783D01*
X1331801Y-231683D01*
X1331799Y-231583D01*
X1331793Y-231483D01*
X1331783Y-231383D01*
X1331770Y-231284D01*
X1331752Y-231186D01*
X1331730Y-231088D01*
X1331705Y-230991D01*
X1331676Y-230895D01*
X1331643Y-230801D01*
X1331606Y-230708D01*
X1331566Y-230616D01*
X1331522Y-230526D01*
X1331474Y-230438D01*
X1331423Y-230352D01*
X1331369Y-230268D01*
X1331311Y-230186D01*
X1331250Y-230107D01*
X1331186Y-230030D01*
X1331119Y-229955D01*
X1331049Y-229884D01*
X1330977Y-229815D01*
X1330901Y-229749D01*
X1330824Y-229686D01*
X1330743Y-229626D01*
X1330661Y-229570D01*
X1330576Y-229516D01*
X1330489Y-229466D01*
X1330400Y-229420D01*
X1330310Y-229377D01*
X1330218Y-229338D01*
X1330124Y-229303D01*
X1330029Y-229271D01*
X1329933Y-229243D01*
X1329836Y-229219D01*
X1329738Y-229199D01*
X1329639Y-229182D01*
X1329540Y-229170D01*
X1329440Y-229161D01*
X1329340Y-229157D01*
X1329240Y-229156D01*
X1329240Y-229157D02*
X1328974Y-229164D01*
X1328709Y-229178D01*
X1328444Y-229197D01*
X1328179Y-229223D01*
X1327915Y-229256D01*
X1327652Y-229295D01*
X1327390Y-229340D01*
X1327129Y-229391D01*
X1326870Y-229449D01*
X1326612Y-229513D01*
X1326355Y-229583D01*
X1326101Y-229659D01*
X1325848Y-229741D01*
X1325597Y-229830D01*
X1325348Y-229924D01*
X1325102Y-230025D01*
X1324859Y-230131D01*
X1325345Y-235973D02*
X1325253Y-236012D01*
X1325162Y-236054D01*
X1325074Y-236100D01*
X1324987Y-236150D01*
X1324902Y-236203D01*
X1324819Y-236260D01*
X1324739Y-236319D01*
X1324661Y-236382D01*
X1324585Y-236448D01*
X1324513Y-236517D01*
X1324443Y-236588D01*
X1324376Y-236662D01*
X1324312Y-236739D01*
X1324251Y-236819D01*
X1324193Y-236901D01*
X1324138Y-236984D01*
X1324087Y-237071D01*
X1324039Y-237159D01*
X1323995Y-237248D01*
X1323955Y-237340D01*
X1323918Y-237433D01*
X1323885Y-237527D01*
X1323855Y-237623D01*
X1323830Y-237720D01*
X1323808Y-237818D01*
X1323790Y-237916D01*
X1323776Y-238015D01*
X1323766Y-238115D01*
X1323760Y-238215D01*
X1323758Y-238315D01*
X1323760Y-238415D01*
X1323766Y-238515D01*
X1323776Y-238615D01*
X1323789Y-238714D01*
X1323807Y-238812D01*
X1323829Y-238910D01*
X1323854Y-239007D01*
X1323883Y-239103D01*
X1323916Y-239197D01*
X1323953Y-239290D01*
X1323993Y-239382D01*
X1324037Y-239472D01*
X1324085Y-239560D01*
X1324136Y-239646D01*
X1324190Y-239730D01*
X1324248Y-239812D01*
X1324309Y-239891D01*
X1324373Y-239968D01*
X1324440Y-240043D01*
X1324510Y-240114D01*
X1324582Y-240183D01*
X1324658Y-240249D01*
X1324735Y-240312D01*
X1324816Y-240372D01*
X1324898Y-240428D01*
X1324983Y-240482D01*
X1325070Y-240532D01*
X1325159Y-240578D01*
X1325249Y-240621D01*
X1325341Y-240660D01*
X1325435Y-240695D01*
X1325530Y-240727D01*
X1325626Y-240755D01*
X1325723Y-240779D01*
X1325821Y-240799D01*
X1325920Y-240816D01*
X1326019Y-240828D01*
X1326119Y-240837D01*
X1326219Y-240841D01*
X1326319Y-240842D01*
X1326319Y-240841D02*
X1326709Y-240831D01*
X1327099Y-240812D01*
X1327489Y-240783D01*
X1327878Y-240745D01*
X1328265Y-240698D01*
X1328652Y-240642D01*
X1329037Y-240577D01*
X1329420Y-240502D01*
X1329802Y-240419D01*
X1330181Y-240326D01*
X1330558Y-240225D01*
X1330933Y-240115D01*
X1331305Y-239996D01*
X1331674Y-239868D01*
X1312686Y-240841D02*
X1307818Y-240841D01*
X1312686Y-240841D02*
X1312793Y-240839D01*
X1312899Y-240833D01*
X1313005Y-240823D01*
X1313111Y-240810D01*
X1313217Y-240792D01*
X1313321Y-240771D01*
X1313425Y-240746D01*
X1313528Y-240717D01*
X1313629Y-240685D01*
X1313729Y-240648D01*
X1313828Y-240608D01*
X1313926Y-240565D01*
X1314022Y-240518D01*
X1314116Y-240467D01*
X1314208Y-240413D01*
X1314298Y-240356D01*
X1314386Y-240296D01*
X1314471Y-240232D01*
X1314554Y-240165D01*
X1314635Y-240095D01*
X1314713Y-240023D01*
X1314789Y-239947D01*
X1314861Y-239869D01*
X1314931Y-239788D01*
X1314998Y-239705D01*
X1315062Y-239620D01*
X1315122Y-239532D01*
X1315179Y-239442D01*
X1315233Y-239350D01*
X1315284Y-239256D01*
X1315331Y-239160D01*
X1315374Y-239062D01*
X1315414Y-238963D01*
X1315451Y-238863D01*
X1315483Y-238762D01*
X1315512Y-238659D01*
X1315537Y-238555D01*
X1315558Y-238451D01*
X1315576Y-238345D01*
X1315589Y-238239D01*
X1315599Y-238133D01*
X1315605Y-238027D01*
X1315607Y-237920D01*
X1315607Y-233052D01*
X1315608Y-233052D02*
X1315606Y-232928D01*
X1315600Y-232805D01*
X1315590Y-232682D01*
X1315577Y-232559D01*
X1315559Y-232437D01*
X1315538Y-232315D01*
X1315512Y-232194D01*
X1315483Y-232074D01*
X1315450Y-231955D01*
X1315414Y-231837D01*
X1315373Y-231720D01*
X1315329Y-231604D01*
X1315281Y-231490D01*
X1315230Y-231378D01*
X1315175Y-231267D01*
X1315117Y-231158D01*
X1315055Y-231051D01*
X1314990Y-230946D01*
X1314921Y-230843D01*
X1314850Y-230743D01*
X1314775Y-230644D01*
X1314697Y-230548D01*
X1314616Y-230455D01*
X1314532Y-230364D01*
X1314445Y-230276D01*
X1314356Y-230191D01*
X1314264Y-230108D01*
X1314169Y-230029D01*
X1314072Y-229953D01*
X1313972Y-229879D01*
X1313871Y-229809D01*
X1313767Y-229742D01*
X1313661Y-229679D01*
X1313552Y-229619D01*
X1313443Y-229562D01*
X1313331Y-229509D01*
X1313218Y-229459D01*
X1313103Y-229413D01*
X1312987Y-229371D01*
X1312870Y-229333D01*
X1312751Y-229298D01*
X1312631Y-229267D01*
X1312511Y-229240D01*
X1312389Y-229216D01*
X1312267Y-229197D01*
X1312145Y-229181D01*
X1312022Y-229169D01*
X1311898Y-229161D01*
X1311775Y-229157D01*
X1311651Y-229157D01*
X1311528Y-229161D01*
X1311404Y-229169D01*
X1311281Y-229181D01*
X1311159Y-229197D01*
X1311037Y-229216D01*
X1310915Y-229240D01*
X1310795Y-229267D01*
X1310675Y-229298D01*
X1310556Y-229333D01*
X1310439Y-229371D01*
X1310323Y-229413D01*
X1310208Y-229459D01*
X1310095Y-229509D01*
X1309983Y-229562D01*
X1309874Y-229619D01*
X1309766Y-229679D01*
X1309659Y-229742D01*
X1309555Y-229809D01*
X1309454Y-229879D01*
X1309354Y-229953D01*
X1309257Y-230029D01*
X1309162Y-230108D01*
X1309070Y-230191D01*
X1308981Y-230276D01*
X1308894Y-230364D01*
X1308810Y-230455D01*
X1308729Y-230548D01*
X1308651Y-230644D01*
X1308576Y-230743D01*
X1308505Y-230843D01*
X1308436Y-230946D01*
X1308371Y-231051D01*
X1308309Y-231158D01*
X1308251Y-231267D01*
X1308196Y-231378D01*
X1308145Y-231490D01*
X1308097Y-231604D01*
X1308053Y-231720D01*
X1308012Y-231837D01*
X1307976Y-231955D01*
X1307943Y-232074D01*
X1307914Y-232194D01*
X1307888Y-232315D01*
X1307867Y-232437D01*
X1307849Y-232559D01*
X1307836Y-232682D01*
X1307826Y-232805D01*
X1307820Y-232928D01*
X1307818Y-233052D01*
X1307818Y-234999D01*
X1315607Y-234999D01*
X1301266Y-229157D02*
X1295424Y-229157D01*
X1299319Y-223315D02*
X1299319Y-237920D01*
X1299317Y-238027D01*
X1299311Y-238133D01*
X1299301Y-238239D01*
X1299288Y-238345D01*
X1299270Y-238451D01*
X1299249Y-238555D01*
X1299224Y-238659D01*
X1299195Y-238762D01*
X1299163Y-238863D01*
X1299126Y-238963D01*
X1299086Y-239062D01*
X1299043Y-239160D01*
X1298996Y-239256D01*
X1298945Y-239350D01*
X1298891Y-239442D01*
X1298834Y-239532D01*
X1298774Y-239620D01*
X1298710Y-239705D01*
X1298643Y-239788D01*
X1298573Y-239869D01*
X1298501Y-239947D01*
X1298425Y-240023D01*
X1298347Y-240095D01*
X1298266Y-240165D01*
X1298183Y-240232D01*
X1298098Y-240296D01*
X1298010Y-240356D01*
X1297920Y-240413D01*
X1297828Y-240467D01*
X1297734Y-240518D01*
X1297638Y-240565D01*
X1297540Y-240608D01*
X1297441Y-240648D01*
X1297341Y-240685D01*
X1297240Y-240717D01*
X1297137Y-240746D01*
X1297033Y-240771D01*
X1296929Y-240792D01*
X1296823Y-240810D01*
X1296717Y-240823D01*
X1296611Y-240833D01*
X1296505Y-240839D01*
X1296398Y-240841D01*
X1295424Y-240841D01*
X868499Y-241341D02*
X868377Y-241339D01*
X868254Y-241333D01*
X868132Y-241324D01*
X868011Y-241310D01*
X867890Y-241293D01*
X867769Y-241272D01*
X867649Y-241247D01*
X867530Y-241219D01*
X867412Y-241186D01*
X867295Y-241150D01*
X867180Y-241111D01*
X867065Y-241067D01*
X866952Y-241021D01*
X866841Y-240970D01*
X866731Y-240916D01*
X866623Y-240859D01*
X866516Y-240799D01*
X866412Y-240735D01*
X866310Y-240667D01*
X866210Y-240597D01*
X866112Y-240524D01*
X866016Y-240447D01*
X865923Y-240368D01*
X865833Y-240285D01*
X865745Y-240200D01*
X865660Y-240112D01*
X865577Y-240022D01*
X865498Y-239929D01*
X865421Y-239833D01*
X865348Y-239735D01*
X865278Y-239635D01*
X865210Y-239533D01*
X865146Y-239429D01*
X865086Y-239322D01*
X865029Y-239214D01*
X864975Y-239104D01*
X864924Y-238993D01*
X864878Y-238880D01*
X864834Y-238765D01*
X864795Y-238650D01*
X864759Y-238533D01*
X864726Y-238415D01*
X864698Y-238296D01*
X864673Y-238176D01*
X864652Y-238055D01*
X864635Y-237934D01*
X864621Y-237813D01*
X864612Y-237691D01*
X864606Y-237568D01*
X864604Y-237446D01*
X868499Y-241341D02*
X868696Y-241339D01*
X868893Y-241332D01*
X869089Y-241320D01*
X869285Y-241303D01*
X869481Y-241282D01*
X869676Y-241256D01*
X869871Y-241226D01*
X870064Y-241191D01*
X870257Y-241151D01*
X870449Y-241107D01*
X870640Y-241058D01*
X870829Y-241004D01*
X871017Y-240946D01*
X871204Y-240884D01*
X871389Y-240817D01*
X871573Y-240745D01*
X871754Y-240670D01*
X871934Y-240590D01*
X872112Y-240505D01*
X872288Y-240417D01*
X872461Y-240324D01*
X872633Y-240227D01*
X872802Y-240126D01*
X872968Y-240021D01*
X873132Y-239912D01*
X873294Y-239800D01*
X873452Y-239683D01*
X873608Y-239563D01*
X873761Y-239439D01*
X873911Y-239311D01*
X874057Y-239180D01*
X874201Y-239045D01*
X874341Y-238907D01*
X873855Y-227710D02*
X873853Y-227588D01*
X873847Y-227465D01*
X873838Y-227343D01*
X873824Y-227222D01*
X873807Y-227101D01*
X873786Y-226980D01*
X873761Y-226860D01*
X873733Y-226741D01*
X873700Y-226623D01*
X873664Y-226506D01*
X873625Y-226391D01*
X873581Y-226276D01*
X873535Y-226163D01*
X873484Y-226052D01*
X873430Y-225942D01*
X873373Y-225834D01*
X873313Y-225727D01*
X873249Y-225623D01*
X873181Y-225521D01*
X873111Y-225421D01*
X873038Y-225323D01*
X872961Y-225227D01*
X872882Y-225134D01*
X872799Y-225044D01*
X872714Y-224956D01*
X872626Y-224871D01*
X872536Y-224788D01*
X872443Y-224709D01*
X872347Y-224632D01*
X872249Y-224559D01*
X872149Y-224489D01*
X872047Y-224421D01*
X871943Y-224357D01*
X871836Y-224297D01*
X871728Y-224240D01*
X871618Y-224186D01*
X871507Y-224135D01*
X871394Y-224089D01*
X871279Y-224045D01*
X871164Y-224006D01*
X871047Y-223970D01*
X870929Y-223937D01*
X870810Y-223909D01*
X870690Y-223884D01*
X870569Y-223863D01*
X870448Y-223846D01*
X870327Y-223832D01*
X870205Y-223823D01*
X870082Y-223817D01*
X869960Y-223815D01*
X869786Y-223817D01*
X869612Y-223823D01*
X869438Y-223834D01*
X869265Y-223848D01*
X869092Y-223867D01*
X868919Y-223890D01*
X868747Y-223916D01*
X868576Y-223947D01*
X868405Y-223982D01*
X868236Y-224021D01*
X868067Y-224065D01*
X867900Y-224112D01*
X867733Y-224163D01*
X867568Y-224218D01*
X867404Y-224277D01*
X867242Y-224340D01*
X867081Y-224406D01*
X866922Y-224477D01*
X866765Y-224551D01*
X866609Y-224629D01*
X866456Y-224711D01*
X866304Y-224796D01*
X866154Y-224885D01*
X866007Y-224977D01*
X865862Y-225073D01*
X865719Y-225173D01*
X865578Y-225276D01*
X871907Y-231118D02*
X872014Y-231053D01*
X872118Y-230985D01*
X872220Y-230914D01*
X872319Y-230839D01*
X872417Y-230762D01*
X872511Y-230681D01*
X872603Y-230597D01*
X872693Y-230511D01*
X872780Y-230421D01*
X872864Y-230329D01*
X872945Y-230235D01*
X873022Y-230138D01*
X873097Y-230038D01*
X873169Y-229937D01*
X873237Y-229833D01*
X873302Y-229727D01*
X873364Y-229618D01*
X873423Y-229509D01*
X873477Y-229397D01*
X873529Y-229283D01*
X873576Y-229168D01*
X873620Y-229052D01*
X873661Y-228934D01*
X873697Y-228815D01*
X873730Y-228695D01*
X873759Y-228574D01*
X873785Y-228452D01*
X873806Y-228330D01*
X873824Y-228207D01*
X873837Y-228083D01*
X873847Y-227959D01*
X873853Y-227834D01*
X873855Y-227710D01*
X866552Y-234038D02*
X866445Y-234103D01*
X866341Y-234171D01*
X866239Y-234242D01*
X866140Y-234317D01*
X866042Y-234394D01*
X865948Y-234475D01*
X865855Y-234559D01*
X865766Y-234645D01*
X865679Y-234735D01*
X865595Y-234827D01*
X865514Y-234921D01*
X865437Y-235018D01*
X865362Y-235118D01*
X865290Y-235219D01*
X865222Y-235323D01*
X865157Y-235429D01*
X865095Y-235538D01*
X865036Y-235648D01*
X864982Y-235759D01*
X864930Y-235873D01*
X864883Y-235988D01*
X864839Y-236104D01*
X864798Y-236222D01*
X864762Y-236341D01*
X864729Y-236461D01*
X864700Y-236582D01*
X864674Y-236704D01*
X864653Y-236826D01*
X864635Y-236949D01*
X864622Y-237073D01*
X864612Y-237197D01*
X864606Y-237322D01*
X864604Y-237446D01*
X866552Y-234039D02*
X871907Y-231118D01*
X858408Y-229657D02*
X852566Y-229657D01*
X856461Y-223815D02*
X856461Y-238420D01*
X856459Y-238527D01*
X856453Y-238633D01*
X856443Y-238739D01*
X856430Y-238845D01*
X856412Y-238951D01*
X856391Y-239055D01*
X856366Y-239159D01*
X856337Y-239262D01*
X856305Y-239363D01*
X856268Y-239463D01*
X856228Y-239562D01*
X856185Y-239660D01*
X856138Y-239756D01*
X856087Y-239850D01*
X856033Y-239942D01*
X855976Y-240032D01*
X855916Y-240120D01*
X855852Y-240205D01*
X855785Y-240288D01*
X855715Y-240369D01*
X855643Y-240447D01*
X855567Y-240523D01*
X855489Y-240595D01*
X855408Y-240665D01*
X855325Y-240732D01*
X855240Y-240796D01*
X855152Y-240856D01*
X855062Y-240913D01*
X854970Y-240967D01*
X854876Y-241018D01*
X854780Y-241065D01*
X854682Y-241108D01*
X854583Y-241148D01*
X854483Y-241185D01*
X854382Y-241217D01*
X854279Y-241246D01*
X854175Y-241271D01*
X854071Y-241292D01*
X853965Y-241310D01*
X853859Y-241323D01*
X853753Y-241333D01*
X853647Y-241339D01*
X853540Y-241341D01*
X852566Y-241341D01*
X841675Y-234525D02*
X837293Y-234525D01*
X841675Y-234525D02*
X841790Y-234527D01*
X841905Y-234533D01*
X842020Y-234542D01*
X842134Y-234556D01*
X842248Y-234573D01*
X842361Y-234595D01*
X842473Y-234620D01*
X842585Y-234649D01*
X842695Y-234681D01*
X842804Y-234718D01*
X842912Y-234758D01*
X843019Y-234801D01*
X843124Y-234848D01*
X843227Y-234899D01*
X843329Y-234953D01*
X843429Y-235011D01*
X843526Y-235072D01*
X843622Y-235136D01*
X843715Y-235203D01*
X843806Y-235274D01*
X843895Y-235347D01*
X843981Y-235424D01*
X844064Y-235503D01*
X844145Y-235585D01*
X844223Y-235670D01*
X844298Y-235757D01*
X844370Y-235847D01*
X844439Y-235939D01*
X844505Y-236034D01*
X844567Y-236130D01*
X844626Y-236229D01*
X844682Y-236330D01*
X844735Y-236432D01*
X844784Y-236536D01*
X844829Y-236642D01*
X844871Y-236749D01*
X844909Y-236858D01*
X844943Y-236968D01*
X844974Y-237079D01*
X845001Y-237191D01*
X845024Y-237303D01*
X845044Y-237417D01*
X845059Y-237531D01*
X845071Y-237646D01*
X845079Y-237760D01*
X845083Y-237875D01*
X845083Y-237991D01*
X845079Y-238106D01*
X845071Y-238220D01*
X845059Y-238335D01*
X845044Y-238449D01*
X845024Y-238563D01*
X845001Y-238675D01*
X844974Y-238787D01*
X844943Y-238898D01*
X844909Y-239008D01*
X844871Y-239117D01*
X844829Y-239224D01*
X844784Y-239330D01*
X844735Y-239434D01*
X844682Y-239536D01*
X844626Y-239637D01*
X844567Y-239736D01*
X844505Y-239832D01*
X844439Y-239927D01*
X844370Y-240019D01*
X844298Y-240109D01*
X844223Y-240196D01*
X844145Y-240281D01*
X844064Y-240363D01*
X843981Y-240442D01*
X843895Y-240519D01*
X843806Y-240592D01*
X843715Y-240663D01*
X843622Y-240730D01*
X843526Y-240794D01*
X843429Y-240855D01*
X843329Y-240913D01*
X843227Y-240967D01*
X843124Y-241018D01*
X843019Y-241065D01*
X842912Y-241108D01*
X842804Y-241148D01*
X842695Y-241185D01*
X842585Y-241217D01*
X842473Y-241246D01*
X842361Y-241271D01*
X842248Y-241293D01*
X842134Y-241310D01*
X842020Y-241324D01*
X841905Y-241333D01*
X841790Y-241339D01*
X841675Y-241341D01*
X837293Y-241341D01*
X837293Y-232578D01*
X837295Y-232471D01*
X837301Y-232365D01*
X837311Y-232259D01*
X837324Y-232153D01*
X837342Y-232047D01*
X837363Y-231943D01*
X837388Y-231839D01*
X837417Y-231736D01*
X837449Y-231635D01*
X837486Y-231535D01*
X837526Y-231436D01*
X837569Y-231338D01*
X837616Y-231242D01*
X837667Y-231148D01*
X837721Y-231056D01*
X837778Y-230966D01*
X837838Y-230878D01*
X837902Y-230793D01*
X837969Y-230710D01*
X838039Y-230629D01*
X838111Y-230551D01*
X838187Y-230475D01*
X838265Y-230403D01*
X838346Y-230333D01*
X838429Y-230266D01*
X838514Y-230202D01*
X838602Y-230142D01*
X838692Y-230085D01*
X838784Y-230031D01*
X838878Y-229980D01*
X838974Y-229933D01*
X839072Y-229890D01*
X839171Y-229850D01*
X839271Y-229813D01*
X839372Y-229781D01*
X839475Y-229752D01*
X839579Y-229727D01*
X839683Y-229706D01*
X839789Y-229688D01*
X839895Y-229675D01*
X840001Y-229665D01*
X840107Y-229659D01*
X840214Y-229657D01*
X844109Y-229657D01*
X827470Y-229657D02*
X827470Y-241341D01*
X827470Y-229657D02*
X821628Y-229657D01*
X821628Y-231604D01*
X817006Y-229657D02*
X811164Y-229657D01*
X815058Y-223815D02*
X815058Y-238420D01*
X815056Y-238527D01*
X815050Y-238633D01*
X815040Y-238739D01*
X815027Y-238845D01*
X815009Y-238951D01*
X814988Y-239055D01*
X814963Y-239159D01*
X814934Y-239262D01*
X814902Y-239363D01*
X814865Y-239463D01*
X814825Y-239562D01*
X814782Y-239660D01*
X814735Y-239756D01*
X814684Y-239850D01*
X814630Y-239942D01*
X814573Y-240032D01*
X814513Y-240120D01*
X814449Y-240205D01*
X814382Y-240288D01*
X814312Y-240369D01*
X814240Y-240447D01*
X814164Y-240523D01*
X814086Y-240595D01*
X814005Y-240665D01*
X813922Y-240732D01*
X813837Y-240796D01*
X813749Y-240856D01*
X813659Y-240913D01*
X813567Y-240967D01*
X813473Y-241018D01*
X813377Y-241065D01*
X813279Y-241108D01*
X813180Y-241148D01*
X813080Y-241185D01*
X812979Y-241217D01*
X812876Y-241246D01*
X812772Y-241271D01*
X812668Y-241292D01*
X812562Y-241310D01*
X812456Y-241323D01*
X812350Y-241333D01*
X812244Y-241339D01*
X812137Y-241341D01*
X811164Y-241341D01*
X860552Y262659D02*
X864446Y262659D01*
X864568Y262661D01*
X864691Y262667D01*
X864813Y262676D01*
X864934Y262690D01*
X865055Y262707D01*
X865176Y262728D01*
X865296Y262753D01*
X865415Y262781D01*
X865533Y262814D01*
X865650Y262850D01*
X865765Y262889D01*
X865880Y262933D01*
X865993Y262979D01*
X866104Y263030D01*
X866214Y263084D01*
X866322Y263141D01*
X866429Y263201D01*
X866533Y263265D01*
X866635Y263333D01*
X866735Y263403D01*
X866833Y263476D01*
X866929Y263553D01*
X867022Y263632D01*
X867112Y263715D01*
X867200Y263800D01*
X867285Y263888D01*
X867368Y263978D01*
X867447Y264071D01*
X867524Y264167D01*
X867597Y264265D01*
X867667Y264365D01*
X867735Y264467D01*
X867799Y264571D01*
X867859Y264678D01*
X867916Y264786D01*
X867970Y264896D01*
X868021Y265007D01*
X868067Y265120D01*
X868111Y265235D01*
X868150Y265350D01*
X868186Y265467D01*
X868219Y265585D01*
X868247Y265704D01*
X868272Y265824D01*
X868293Y265945D01*
X868310Y266066D01*
X868324Y266187D01*
X868333Y266309D01*
X868339Y266432D01*
X868341Y266554D01*
X868341Y276290D01*
X868339Y276412D01*
X868333Y276535D01*
X868324Y276657D01*
X868310Y276778D01*
X868293Y276899D01*
X868272Y277020D01*
X868247Y277140D01*
X868219Y277259D01*
X868186Y277377D01*
X868150Y277494D01*
X868111Y277609D01*
X868067Y277724D01*
X868021Y277837D01*
X867970Y277948D01*
X867916Y278058D01*
X867859Y278166D01*
X867799Y278273D01*
X867735Y278377D01*
X867667Y278479D01*
X867597Y278579D01*
X867524Y278677D01*
X867447Y278773D01*
X867368Y278866D01*
X867285Y278956D01*
X867200Y279044D01*
X867112Y279129D01*
X867022Y279212D01*
X866929Y279291D01*
X866833Y279368D01*
X866735Y279441D01*
X866635Y279511D01*
X866533Y279579D01*
X866429Y279643D01*
X866322Y279703D01*
X866214Y279760D01*
X866104Y279814D01*
X865993Y279865D01*
X865880Y279911D01*
X865765Y279955D01*
X865650Y279994D01*
X865533Y280030D01*
X865415Y280063D01*
X865296Y280091D01*
X865176Y280116D01*
X865055Y280137D01*
X864934Y280154D01*
X864813Y280168D01*
X864691Y280177D01*
X864568Y280183D01*
X864446Y280185D01*
X860552Y280185D01*
X853796Y280185D02*
X847954Y262659D01*
X842112Y280185D01*
X828929Y280186D02*
X828799Y280184D01*
X828669Y280178D01*
X828540Y280169D01*
X828411Y280155D01*
X828282Y280138D01*
X828154Y280117D01*
X828026Y280092D01*
X827900Y280063D01*
X827774Y280031D01*
X827649Y279995D01*
X827526Y279955D01*
X827403Y279912D01*
X827282Y279865D01*
X827163Y279814D01*
X827044Y279760D01*
X826928Y279702D01*
X826813Y279641D01*
X826701Y279577D01*
X826590Y279509D01*
X826481Y279438D01*
X826374Y279364D01*
X826270Y279287D01*
X826168Y279207D01*
X826068Y279123D01*
X825971Y279037D01*
X825877Y278948D01*
X825785Y278856D01*
X825696Y278762D01*
X825610Y278665D01*
X825526Y278565D01*
X825446Y278463D01*
X825369Y278359D01*
X825295Y278252D01*
X825224Y278143D01*
X825156Y278032D01*
X825092Y277920D01*
X825031Y277805D01*
X824973Y277689D01*
X824919Y277570D01*
X824868Y277451D01*
X824821Y277330D01*
X824778Y277207D01*
X824738Y277084D01*
X824702Y276959D01*
X824670Y276833D01*
X824641Y276707D01*
X824616Y276579D01*
X824595Y276451D01*
X824578Y276322D01*
X824564Y276193D01*
X824555Y276064D01*
X824549Y275934D01*
X824547Y275804D01*
X828929Y280185D02*
X829076Y280183D01*
X829224Y280177D01*
X829371Y280168D01*
X829518Y280154D01*
X829664Y280137D01*
X829810Y280116D01*
X829956Y280091D01*
X830100Y280062D01*
X830244Y280029D01*
X830387Y279993D01*
X830529Y279953D01*
X830670Y279909D01*
X830809Y279862D01*
X830948Y279811D01*
X831085Y279756D01*
X831220Y279698D01*
X831354Y279636D01*
X831486Y279571D01*
X831617Y279502D01*
X831745Y279430D01*
X831872Y279354D01*
X831997Y279276D01*
X832119Y279194D01*
X832240Y279108D01*
X832358Y279020D01*
X832474Y278929D01*
X832587Y278834D01*
X832698Y278737D01*
X832806Y278637D01*
X832912Y278534D01*
X833015Y278428D01*
X833115Y278320D01*
X833212Y278209D01*
X833306Y278095D01*
X833397Y277980D01*
X833485Y277861D01*
X833570Y277741D01*
X833652Y277618D01*
X833731Y277493D01*
X833806Y277367D01*
X833878Y277238D01*
X833947Y277107D01*
X834012Y276975D01*
X834073Y276841D01*
X834131Y276705D01*
X834186Y276568D01*
X834237Y276430D01*
X834284Y276290D01*
X826007Y272396D02*
X825910Y272492D01*
X825816Y272590D01*
X825724Y272690D01*
X825636Y272794D01*
X825550Y272899D01*
X825468Y273008D01*
X825389Y273118D01*
X825313Y273231D01*
X825240Y273346D01*
X825170Y273463D01*
X825104Y273582D01*
X825042Y273703D01*
X824983Y273826D01*
X824927Y273950D01*
X824876Y274076D01*
X824828Y274203D01*
X824783Y274332D01*
X824742Y274462D01*
X824706Y274593D01*
X824672Y274725D01*
X824643Y274858D01*
X824618Y274991D01*
X824596Y275126D01*
X824578Y275261D01*
X824565Y275396D01*
X824555Y275532D01*
X824549Y275668D01*
X824547Y275804D01*
X826008Y272396D02*
X834284Y262659D01*
X824547Y262659D01*
X1338552Y261159D02*
X1342446Y261159D01*
X1342568Y261161D01*
X1342691Y261167D01*
X1342813Y261176D01*
X1342934Y261190D01*
X1343055Y261207D01*
X1343176Y261228D01*
X1343296Y261253D01*
X1343415Y261281D01*
X1343533Y261314D01*
X1343650Y261350D01*
X1343765Y261389D01*
X1343880Y261433D01*
X1343993Y261479D01*
X1344104Y261530D01*
X1344214Y261584D01*
X1344322Y261641D01*
X1344429Y261701D01*
X1344533Y261765D01*
X1344635Y261833D01*
X1344735Y261903D01*
X1344833Y261976D01*
X1344929Y262053D01*
X1345022Y262132D01*
X1345112Y262215D01*
X1345200Y262300D01*
X1345285Y262388D01*
X1345368Y262478D01*
X1345447Y262571D01*
X1345524Y262667D01*
X1345597Y262765D01*
X1345667Y262865D01*
X1345735Y262967D01*
X1345799Y263071D01*
X1345859Y263178D01*
X1345916Y263286D01*
X1345970Y263396D01*
X1346021Y263507D01*
X1346067Y263620D01*
X1346111Y263735D01*
X1346150Y263850D01*
X1346186Y263967D01*
X1346219Y264085D01*
X1346247Y264204D01*
X1346272Y264324D01*
X1346293Y264445D01*
X1346310Y264566D01*
X1346324Y264687D01*
X1346333Y264809D01*
X1346339Y264932D01*
X1346341Y265054D01*
X1346341Y274790D01*
X1346339Y274912D01*
X1346333Y275035D01*
X1346324Y275157D01*
X1346310Y275278D01*
X1346293Y275399D01*
X1346272Y275520D01*
X1346247Y275640D01*
X1346219Y275759D01*
X1346186Y275877D01*
X1346150Y275994D01*
X1346111Y276109D01*
X1346067Y276224D01*
X1346021Y276337D01*
X1345970Y276448D01*
X1345916Y276558D01*
X1345859Y276666D01*
X1345799Y276773D01*
X1345735Y276877D01*
X1345667Y276979D01*
X1345597Y277079D01*
X1345524Y277177D01*
X1345447Y277273D01*
X1345368Y277366D01*
X1345285Y277456D01*
X1345200Y277544D01*
X1345112Y277629D01*
X1345022Y277712D01*
X1344929Y277791D01*
X1344833Y277868D01*
X1344735Y277941D01*
X1344635Y278011D01*
X1344533Y278079D01*
X1344429Y278143D01*
X1344322Y278203D01*
X1344214Y278260D01*
X1344104Y278314D01*
X1343993Y278365D01*
X1343880Y278411D01*
X1343765Y278455D01*
X1343650Y278494D01*
X1343533Y278530D01*
X1343415Y278563D01*
X1343296Y278591D01*
X1343176Y278616D01*
X1343055Y278637D01*
X1342934Y278654D01*
X1342813Y278668D01*
X1342691Y278677D01*
X1342568Y278683D01*
X1342446Y278685D01*
X1338552Y278685D01*
X1331796Y278685D02*
X1325954Y261159D01*
X1320112Y278685D01*
X1312284Y274790D02*
X1307415Y278685D01*
X1307415Y261159D01*
X1302547Y261159D02*
X1312284Y261159D01*
X876973Y713659D02*
X876973Y731185D01*
X881841Y731185D02*
X872104Y731185D01*
X864013Y725343D02*
X864013Y713659D01*
X864013Y725343D02*
X858171Y725343D01*
X858171Y723396D01*
X852255Y725343D02*
X852255Y713659D01*
X852742Y730211D02*
X852742Y731185D01*
X851768Y731185D01*
X851768Y730211D01*
X852742Y730211D01*
X841628Y713659D02*
X836760Y713659D01*
X841628Y713659D02*
X841735Y713661D01*
X841841Y713667D01*
X841947Y713677D01*
X842053Y713690D01*
X842159Y713708D01*
X842263Y713729D01*
X842367Y713754D01*
X842470Y713783D01*
X842571Y713815D01*
X842671Y713852D01*
X842770Y713892D01*
X842868Y713935D01*
X842964Y713982D01*
X843058Y714033D01*
X843150Y714087D01*
X843240Y714144D01*
X843328Y714204D01*
X843413Y714268D01*
X843496Y714335D01*
X843577Y714405D01*
X843655Y714477D01*
X843731Y714553D01*
X843803Y714631D01*
X843873Y714712D01*
X843940Y714795D01*
X844004Y714880D01*
X844064Y714968D01*
X844121Y715058D01*
X844175Y715150D01*
X844226Y715244D01*
X844273Y715340D01*
X844316Y715438D01*
X844356Y715537D01*
X844393Y715637D01*
X844425Y715738D01*
X844454Y715841D01*
X844479Y715945D01*
X844500Y716049D01*
X844518Y716155D01*
X844531Y716261D01*
X844541Y716367D01*
X844547Y716473D01*
X844549Y716580D01*
X844549Y722422D01*
X844547Y722529D01*
X844541Y722635D01*
X844531Y722741D01*
X844518Y722847D01*
X844500Y722953D01*
X844479Y723057D01*
X844454Y723161D01*
X844425Y723264D01*
X844393Y723365D01*
X844356Y723465D01*
X844316Y723564D01*
X844273Y723662D01*
X844226Y723758D01*
X844175Y723852D01*
X844121Y723944D01*
X844064Y724034D01*
X844004Y724122D01*
X843940Y724207D01*
X843873Y724290D01*
X843803Y724371D01*
X843731Y724449D01*
X843655Y724525D01*
X843577Y724597D01*
X843496Y724667D01*
X843413Y724734D01*
X843328Y724798D01*
X843240Y724858D01*
X843150Y724915D01*
X843058Y724969D01*
X842964Y725020D01*
X842868Y725067D01*
X842770Y725110D01*
X842671Y725150D01*
X842571Y725187D01*
X842470Y725219D01*
X842367Y725248D01*
X842263Y725273D01*
X842159Y725294D01*
X842053Y725312D01*
X841947Y725325D01*
X841841Y725335D01*
X841735Y725341D01*
X841628Y725343D01*
X836760Y725343D01*
X836760Y710738D01*
X836762Y710631D01*
X836768Y710525D01*
X836778Y710419D01*
X836791Y710313D01*
X836809Y710207D01*
X836830Y710103D01*
X836855Y709999D01*
X836884Y709896D01*
X836916Y709795D01*
X836953Y709695D01*
X836993Y709596D01*
X837036Y709498D01*
X837083Y709402D01*
X837134Y709308D01*
X837188Y709216D01*
X837245Y709126D01*
X837305Y709038D01*
X837369Y708953D01*
X837436Y708870D01*
X837506Y708789D01*
X837578Y708711D01*
X837654Y708635D01*
X837732Y708563D01*
X837813Y708493D01*
X837896Y708426D01*
X837981Y708362D01*
X838069Y708302D01*
X838159Y708245D01*
X838251Y708191D01*
X838345Y708140D01*
X838441Y708093D01*
X838539Y708050D01*
X838638Y708010D01*
X838738Y707973D01*
X838839Y707941D01*
X838942Y707912D01*
X839046Y707887D01*
X839150Y707866D01*
X839256Y707848D01*
X839362Y707835D01*
X839468Y707825D01*
X839574Y707819D01*
X839681Y707817D01*
X843576Y707817D01*
X812220Y731186D02*
X812090Y731184D01*
X811960Y731178D01*
X811831Y731169D01*
X811702Y731155D01*
X811573Y731138D01*
X811445Y731117D01*
X811317Y731092D01*
X811191Y731063D01*
X811065Y731031D01*
X810940Y730995D01*
X810817Y730955D01*
X810694Y730912D01*
X810573Y730865D01*
X810454Y730814D01*
X810335Y730760D01*
X810219Y730702D01*
X810104Y730641D01*
X809992Y730577D01*
X809881Y730509D01*
X809772Y730438D01*
X809665Y730364D01*
X809561Y730287D01*
X809459Y730207D01*
X809359Y730123D01*
X809262Y730037D01*
X809168Y729948D01*
X809076Y729856D01*
X808987Y729762D01*
X808901Y729665D01*
X808817Y729565D01*
X808737Y729463D01*
X808660Y729359D01*
X808586Y729252D01*
X808515Y729143D01*
X808447Y729032D01*
X808383Y728920D01*
X808322Y728805D01*
X808264Y728689D01*
X808210Y728570D01*
X808159Y728451D01*
X808112Y728330D01*
X808069Y728207D01*
X808029Y728084D01*
X807993Y727959D01*
X807961Y727833D01*
X807932Y727707D01*
X807907Y727579D01*
X807886Y727451D01*
X807869Y727322D01*
X807855Y727193D01*
X807846Y727064D01*
X807840Y726934D01*
X807838Y726804D01*
X812220Y731185D02*
X812367Y731183D01*
X812515Y731177D01*
X812662Y731168D01*
X812809Y731154D01*
X812955Y731137D01*
X813101Y731116D01*
X813247Y731091D01*
X813391Y731062D01*
X813535Y731029D01*
X813678Y730993D01*
X813820Y730953D01*
X813961Y730909D01*
X814100Y730862D01*
X814239Y730811D01*
X814376Y730756D01*
X814511Y730698D01*
X814645Y730636D01*
X814777Y730571D01*
X814908Y730502D01*
X815036Y730430D01*
X815163Y730354D01*
X815288Y730276D01*
X815410Y730194D01*
X815531Y730108D01*
X815649Y730020D01*
X815765Y729929D01*
X815878Y729834D01*
X815989Y729737D01*
X816097Y729637D01*
X816203Y729534D01*
X816306Y729428D01*
X816406Y729320D01*
X816503Y729209D01*
X816597Y729095D01*
X816688Y728980D01*
X816776Y728861D01*
X816861Y728741D01*
X816943Y728618D01*
X817022Y728493D01*
X817097Y728367D01*
X817169Y728238D01*
X817238Y728107D01*
X817303Y727975D01*
X817364Y727841D01*
X817422Y727705D01*
X817477Y727568D01*
X817528Y727430D01*
X817575Y727290D01*
X809298Y723396D02*
X809201Y723492D01*
X809107Y723590D01*
X809015Y723690D01*
X808927Y723794D01*
X808841Y723899D01*
X808759Y724008D01*
X808680Y724118D01*
X808604Y724231D01*
X808531Y724346D01*
X808461Y724463D01*
X808395Y724582D01*
X808333Y724703D01*
X808274Y724826D01*
X808218Y724950D01*
X808167Y725076D01*
X808119Y725203D01*
X808074Y725332D01*
X808033Y725462D01*
X807997Y725593D01*
X807963Y725725D01*
X807934Y725858D01*
X807909Y725991D01*
X807887Y726126D01*
X807869Y726261D01*
X807856Y726396D01*
X807846Y726532D01*
X807840Y726668D01*
X807838Y726804D01*
X809299Y723396D02*
X817575Y713659D01*
X807838Y713659D01*
X796031Y720475D02*
X791650Y720475D01*
X796031Y720475D02*
X796146Y720473D01*
X796261Y720467D01*
X796376Y720458D01*
X796490Y720444D01*
X796604Y720427D01*
X796717Y720405D01*
X796829Y720380D01*
X796941Y720351D01*
X797051Y720319D01*
X797160Y720282D01*
X797268Y720242D01*
X797375Y720199D01*
X797480Y720152D01*
X797583Y720101D01*
X797685Y720047D01*
X797785Y719989D01*
X797882Y719928D01*
X797978Y719864D01*
X798071Y719797D01*
X798162Y719726D01*
X798251Y719653D01*
X798337Y719576D01*
X798420Y719497D01*
X798501Y719415D01*
X798579Y719330D01*
X798654Y719243D01*
X798726Y719153D01*
X798795Y719061D01*
X798861Y718966D01*
X798923Y718870D01*
X798982Y718771D01*
X799038Y718670D01*
X799091Y718568D01*
X799140Y718464D01*
X799185Y718358D01*
X799227Y718251D01*
X799265Y718142D01*
X799299Y718032D01*
X799330Y717921D01*
X799357Y717809D01*
X799380Y717697D01*
X799400Y717583D01*
X799415Y717469D01*
X799427Y717354D01*
X799435Y717240D01*
X799439Y717125D01*
X799439Y717009D01*
X799435Y716894D01*
X799427Y716780D01*
X799415Y716665D01*
X799400Y716551D01*
X799380Y716437D01*
X799357Y716325D01*
X799330Y716213D01*
X799299Y716102D01*
X799265Y715992D01*
X799227Y715883D01*
X799185Y715776D01*
X799140Y715670D01*
X799091Y715566D01*
X799038Y715464D01*
X798982Y715363D01*
X798923Y715264D01*
X798861Y715168D01*
X798795Y715073D01*
X798726Y714981D01*
X798654Y714891D01*
X798579Y714804D01*
X798501Y714719D01*
X798420Y714637D01*
X798337Y714558D01*
X798251Y714481D01*
X798162Y714408D01*
X798071Y714337D01*
X797978Y714270D01*
X797882Y714206D01*
X797785Y714145D01*
X797685Y714087D01*
X797583Y714033D01*
X797480Y713982D01*
X797375Y713935D01*
X797268Y713892D01*
X797160Y713852D01*
X797051Y713815D01*
X796941Y713783D01*
X796829Y713754D01*
X796717Y713729D01*
X796604Y713707D01*
X796490Y713690D01*
X796376Y713676D01*
X796261Y713667D01*
X796146Y713661D01*
X796031Y713659D01*
X791650Y713659D01*
X791650Y722422D01*
X791652Y722529D01*
X791658Y722635D01*
X791668Y722741D01*
X791681Y722847D01*
X791699Y722953D01*
X791720Y723057D01*
X791745Y723161D01*
X791774Y723264D01*
X791806Y723365D01*
X791843Y723465D01*
X791883Y723564D01*
X791926Y723662D01*
X791973Y723758D01*
X792024Y723852D01*
X792078Y723944D01*
X792135Y724034D01*
X792195Y724122D01*
X792259Y724207D01*
X792326Y724290D01*
X792396Y724371D01*
X792468Y724449D01*
X792544Y724525D01*
X792622Y724597D01*
X792703Y724667D01*
X792786Y724734D01*
X792871Y724798D01*
X792959Y724858D01*
X793049Y724915D01*
X793141Y724969D01*
X793235Y725020D01*
X793331Y725067D01*
X793429Y725110D01*
X793528Y725150D01*
X793628Y725187D01*
X793729Y725219D01*
X793832Y725248D01*
X793936Y725273D01*
X794040Y725294D01*
X794146Y725312D01*
X794252Y725325D01*
X794358Y725335D01*
X794464Y725341D01*
X794571Y725343D01*
X798466Y725343D01*
X879473Y539685D02*
X879473Y522159D01*
X884341Y539685D02*
X874604Y539685D01*
X866513Y533843D02*
X866513Y522159D01*
X866513Y533843D02*
X860671Y533843D01*
X860671Y531896D01*
X854755Y533843D02*
X854755Y522159D01*
X855242Y538711D02*
X855242Y539685D01*
X854268Y539685D01*
X854268Y538711D01*
X855242Y538711D01*
X844128Y522159D02*
X839260Y522159D01*
X844128Y522159D02*
X844235Y522161D01*
X844341Y522167D01*
X844447Y522177D01*
X844553Y522190D01*
X844659Y522208D01*
X844763Y522229D01*
X844867Y522254D01*
X844970Y522283D01*
X845071Y522315D01*
X845171Y522352D01*
X845270Y522392D01*
X845368Y522435D01*
X845464Y522482D01*
X845558Y522533D01*
X845650Y522587D01*
X845740Y522644D01*
X845828Y522704D01*
X845913Y522768D01*
X845996Y522835D01*
X846077Y522905D01*
X846155Y522977D01*
X846231Y523053D01*
X846303Y523131D01*
X846373Y523212D01*
X846440Y523295D01*
X846504Y523380D01*
X846564Y523468D01*
X846621Y523558D01*
X846675Y523650D01*
X846726Y523744D01*
X846773Y523840D01*
X846816Y523938D01*
X846856Y524037D01*
X846893Y524137D01*
X846925Y524238D01*
X846954Y524341D01*
X846979Y524445D01*
X847000Y524549D01*
X847018Y524655D01*
X847031Y524761D01*
X847041Y524867D01*
X847047Y524973D01*
X847049Y525080D01*
X847049Y530922D01*
X847047Y531029D01*
X847041Y531135D01*
X847031Y531241D01*
X847018Y531347D01*
X847000Y531453D01*
X846979Y531557D01*
X846954Y531661D01*
X846925Y531764D01*
X846893Y531865D01*
X846856Y531965D01*
X846816Y532064D01*
X846773Y532162D01*
X846726Y532258D01*
X846675Y532352D01*
X846621Y532444D01*
X846564Y532534D01*
X846504Y532622D01*
X846440Y532707D01*
X846373Y532790D01*
X846303Y532871D01*
X846231Y532949D01*
X846155Y533025D01*
X846077Y533097D01*
X845996Y533167D01*
X845913Y533234D01*
X845828Y533298D01*
X845740Y533358D01*
X845650Y533415D01*
X845558Y533469D01*
X845464Y533520D01*
X845368Y533567D01*
X845270Y533610D01*
X845171Y533650D01*
X845071Y533687D01*
X844970Y533719D01*
X844867Y533748D01*
X844763Y533773D01*
X844659Y533794D01*
X844553Y533812D01*
X844447Y533825D01*
X844341Y533835D01*
X844235Y533841D01*
X844128Y533843D01*
X839260Y533843D01*
X839260Y519238D01*
X839262Y519131D01*
X839268Y519025D01*
X839278Y518919D01*
X839291Y518813D01*
X839309Y518707D01*
X839330Y518603D01*
X839355Y518499D01*
X839384Y518396D01*
X839416Y518295D01*
X839453Y518195D01*
X839493Y518096D01*
X839536Y517998D01*
X839583Y517902D01*
X839634Y517808D01*
X839688Y517716D01*
X839745Y517626D01*
X839805Y517538D01*
X839869Y517453D01*
X839936Y517370D01*
X840006Y517289D01*
X840078Y517211D01*
X840154Y517135D01*
X840232Y517063D01*
X840313Y516993D01*
X840396Y516926D01*
X840481Y516862D01*
X840569Y516802D01*
X840659Y516745D01*
X840751Y516691D01*
X840845Y516640D01*
X840941Y516593D01*
X841039Y516550D01*
X841138Y516510D01*
X841238Y516473D01*
X841339Y516441D01*
X841442Y516412D01*
X841546Y516387D01*
X841650Y516366D01*
X841756Y516348D01*
X841862Y516335D01*
X841968Y516325D01*
X842074Y516319D01*
X842181Y516317D01*
X846076Y516317D01*
X814720Y539686D02*
X814590Y539684D01*
X814460Y539678D01*
X814331Y539669D01*
X814202Y539655D01*
X814073Y539638D01*
X813945Y539617D01*
X813817Y539592D01*
X813691Y539563D01*
X813565Y539531D01*
X813440Y539495D01*
X813317Y539455D01*
X813194Y539412D01*
X813073Y539365D01*
X812954Y539314D01*
X812835Y539260D01*
X812719Y539202D01*
X812604Y539141D01*
X812492Y539077D01*
X812381Y539009D01*
X812272Y538938D01*
X812165Y538864D01*
X812061Y538787D01*
X811959Y538707D01*
X811859Y538623D01*
X811762Y538537D01*
X811668Y538448D01*
X811576Y538356D01*
X811487Y538262D01*
X811401Y538165D01*
X811317Y538065D01*
X811237Y537963D01*
X811160Y537859D01*
X811086Y537752D01*
X811015Y537643D01*
X810947Y537532D01*
X810883Y537420D01*
X810822Y537305D01*
X810764Y537189D01*
X810710Y537070D01*
X810659Y536951D01*
X810612Y536830D01*
X810569Y536707D01*
X810529Y536584D01*
X810493Y536459D01*
X810461Y536333D01*
X810432Y536207D01*
X810407Y536079D01*
X810386Y535951D01*
X810369Y535822D01*
X810355Y535693D01*
X810346Y535564D01*
X810340Y535434D01*
X810338Y535304D01*
X814720Y539685D02*
X814867Y539683D01*
X815015Y539677D01*
X815162Y539668D01*
X815309Y539654D01*
X815455Y539637D01*
X815601Y539616D01*
X815747Y539591D01*
X815891Y539562D01*
X816035Y539529D01*
X816178Y539493D01*
X816320Y539453D01*
X816461Y539409D01*
X816600Y539362D01*
X816739Y539311D01*
X816876Y539256D01*
X817011Y539198D01*
X817145Y539136D01*
X817277Y539071D01*
X817408Y539002D01*
X817536Y538930D01*
X817663Y538854D01*
X817788Y538776D01*
X817910Y538694D01*
X818031Y538608D01*
X818149Y538520D01*
X818265Y538429D01*
X818378Y538334D01*
X818489Y538237D01*
X818597Y538137D01*
X818703Y538034D01*
X818806Y537928D01*
X818906Y537820D01*
X819003Y537709D01*
X819097Y537595D01*
X819188Y537480D01*
X819276Y537361D01*
X819361Y537241D01*
X819443Y537118D01*
X819522Y536993D01*
X819597Y536867D01*
X819669Y536738D01*
X819738Y536607D01*
X819803Y536475D01*
X819864Y536341D01*
X819922Y536205D01*
X819977Y536068D01*
X820028Y535930D01*
X820075Y535790D01*
X811798Y531896D02*
X811701Y531992D01*
X811607Y532090D01*
X811515Y532190D01*
X811427Y532294D01*
X811341Y532399D01*
X811259Y532508D01*
X811180Y532618D01*
X811104Y532731D01*
X811031Y532846D01*
X810961Y532963D01*
X810895Y533082D01*
X810833Y533203D01*
X810774Y533326D01*
X810718Y533450D01*
X810667Y533576D01*
X810619Y533703D01*
X810574Y533832D01*
X810533Y533962D01*
X810497Y534093D01*
X810463Y534225D01*
X810434Y534358D01*
X810409Y534491D01*
X810387Y534626D01*
X810369Y534761D01*
X810356Y534896D01*
X810346Y535032D01*
X810340Y535168D01*
X810338Y535304D01*
X811799Y531896D02*
X820075Y522159D01*
X810338Y522159D01*
X801040Y522159D02*
X801040Y539685D01*
X801040Y522159D02*
X796172Y522159D01*
X796065Y522161D01*
X795959Y522167D01*
X795853Y522177D01*
X795747Y522190D01*
X795641Y522208D01*
X795537Y522229D01*
X795433Y522254D01*
X795330Y522283D01*
X795229Y522315D01*
X795129Y522352D01*
X795030Y522392D01*
X794932Y522435D01*
X794836Y522482D01*
X794742Y522533D01*
X794650Y522587D01*
X794560Y522644D01*
X794472Y522704D01*
X794387Y522768D01*
X794304Y522835D01*
X794223Y522905D01*
X794145Y522977D01*
X794069Y523053D01*
X793997Y523131D01*
X793927Y523212D01*
X793860Y523295D01*
X793796Y523380D01*
X793736Y523468D01*
X793679Y523558D01*
X793625Y523650D01*
X793574Y523744D01*
X793527Y523840D01*
X793484Y523938D01*
X793444Y524037D01*
X793407Y524137D01*
X793375Y524238D01*
X793346Y524341D01*
X793321Y524445D01*
X793300Y524549D01*
X793282Y524655D01*
X793269Y524761D01*
X793259Y524867D01*
X793253Y524973D01*
X793251Y525080D01*
X793251Y530922D01*
X793253Y531029D01*
X793259Y531135D01*
X793269Y531241D01*
X793282Y531347D01*
X793300Y531453D01*
X793321Y531557D01*
X793346Y531661D01*
X793375Y531764D01*
X793407Y531865D01*
X793444Y531965D01*
X793484Y532064D01*
X793527Y532162D01*
X793574Y532258D01*
X793625Y532352D01*
X793679Y532444D01*
X793736Y532534D01*
X793796Y532622D01*
X793860Y532707D01*
X793927Y532790D01*
X793997Y532871D01*
X794069Y532949D01*
X794145Y533025D01*
X794223Y533097D01*
X794304Y533167D01*
X794387Y533234D01*
X794472Y533298D01*
X794560Y533358D01*
X794650Y533415D01*
X794742Y533469D01*
X794836Y533520D01*
X794932Y533567D01*
X795030Y533610D01*
X795129Y533650D01*
X795229Y533687D01*
X795330Y533719D01*
X795433Y533748D01*
X795537Y533773D01*
X795641Y533794D01*
X795747Y533812D01*
X795853Y533825D01*
X795959Y533835D01*
X796065Y533841D01*
X796172Y533843D01*
X801040Y533843D01*
X1356973Y712659D02*
X1356973Y730185D01*
X1361841Y730185D02*
X1352104Y730185D01*
X1344013Y724343D02*
X1344013Y712659D01*
X1344013Y724343D02*
X1338171Y724343D01*
X1338171Y722396D01*
X1332255Y724343D02*
X1332255Y712659D01*
X1332742Y729211D02*
X1332742Y730185D01*
X1331768Y730185D01*
X1331768Y729211D01*
X1332742Y729211D01*
X1321628Y712659D02*
X1316760Y712659D01*
X1321628Y712659D02*
X1321735Y712661D01*
X1321841Y712667D01*
X1321947Y712677D01*
X1322053Y712690D01*
X1322159Y712708D01*
X1322263Y712729D01*
X1322367Y712754D01*
X1322470Y712783D01*
X1322571Y712815D01*
X1322671Y712852D01*
X1322770Y712892D01*
X1322868Y712935D01*
X1322964Y712982D01*
X1323058Y713033D01*
X1323150Y713087D01*
X1323240Y713144D01*
X1323328Y713204D01*
X1323413Y713268D01*
X1323496Y713335D01*
X1323577Y713405D01*
X1323655Y713477D01*
X1323731Y713553D01*
X1323803Y713631D01*
X1323873Y713712D01*
X1323940Y713795D01*
X1324004Y713880D01*
X1324064Y713968D01*
X1324121Y714058D01*
X1324175Y714150D01*
X1324226Y714244D01*
X1324273Y714340D01*
X1324316Y714438D01*
X1324356Y714537D01*
X1324393Y714637D01*
X1324425Y714738D01*
X1324454Y714841D01*
X1324479Y714945D01*
X1324500Y715049D01*
X1324518Y715155D01*
X1324531Y715261D01*
X1324541Y715367D01*
X1324547Y715473D01*
X1324549Y715580D01*
X1324549Y721422D01*
X1324547Y721529D01*
X1324541Y721635D01*
X1324531Y721741D01*
X1324518Y721847D01*
X1324500Y721953D01*
X1324479Y722057D01*
X1324454Y722161D01*
X1324425Y722264D01*
X1324393Y722365D01*
X1324356Y722465D01*
X1324316Y722564D01*
X1324273Y722662D01*
X1324226Y722758D01*
X1324175Y722852D01*
X1324121Y722944D01*
X1324064Y723034D01*
X1324004Y723122D01*
X1323940Y723207D01*
X1323873Y723290D01*
X1323803Y723371D01*
X1323731Y723449D01*
X1323655Y723525D01*
X1323577Y723597D01*
X1323496Y723667D01*
X1323413Y723734D01*
X1323328Y723798D01*
X1323240Y723858D01*
X1323150Y723915D01*
X1323058Y723969D01*
X1322964Y724020D01*
X1322868Y724067D01*
X1322770Y724110D01*
X1322671Y724150D01*
X1322571Y724187D01*
X1322470Y724219D01*
X1322367Y724248D01*
X1322263Y724273D01*
X1322159Y724294D01*
X1322053Y724312D01*
X1321947Y724325D01*
X1321841Y724335D01*
X1321735Y724341D01*
X1321628Y724343D01*
X1316760Y724343D01*
X1316760Y709738D01*
X1316762Y709631D01*
X1316768Y709525D01*
X1316778Y709419D01*
X1316791Y709313D01*
X1316809Y709207D01*
X1316830Y709103D01*
X1316855Y708999D01*
X1316884Y708896D01*
X1316916Y708795D01*
X1316953Y708695D01*
X1316993Y708596D01*
X1317036Y708498D01*
X1317083Y708402D01*
X1317134Y708308D01*
X1317188Y708216D01*
X1317245Y708126D01*
X1317305Y708038D01*
X1317369Y707953D01*
X1317436Y707870D01*
X1317506Y707789D01*
X1317578Y707711D01*
X1317654Y707635D01*
X1317732Y707563D01*
X1317813Y707493D01*
X1317896Y707426D01*
X1317981Y707362D01*
X1318069Y707302D01*
X1318159Y707245D01*
X1318251Y707191D01*
X1318345Y707140D01*
X1318441Y707093D01*
X1318539Y707050D01*
X1318638Y707010D01*
X1318738Y706973D01*
X1318839Y706941D01*
X1318942Y706912D01*
X1319046Y706887D01*
X1319150Y706866D01*
X1319256Y706848D01*
X1319362Y706835D01*
X1319468Y706825D01*
X1319574Y706819D01*
X1319681Y706817D01*
X1323576Y706817D01*
X1297575Y726290D02*
X1292707Y730185D01*
X1292707Y712659D01*
X1297575Y712659D02*
X1287838Y712659D01*
X1276031Y719475D02*
X1271650Y719475D01*
X1276031Y719475D02*
X1276146Y719473D01*
X1276261Y719467D01*
X1276376Y719458D01*
X1276490Y719444D01*
X1276604Y719427D01*
X1276717Y719405D01*
X1276829Y719380D01*
X1276941Y719351D01*
X1277051Y719319D01*
X1277160Y719282D01*
X1277268Y719242D01*
X1277375Y719199D01*
X1277480Y719152D01*
X1277583Y719101D01*
X1277685Y719047D01*
X1277785Y718989D01*
X1277882Y718928D01*
X1277978Y718864D01*
X1278071Y718797D01*
X1278162Y718726D01*
X1278251Y718653D01*
X1278337Y718576D01*
X1278420Y718497D01*
X1278501Y718415D01*
X1278579Y718330D01*
X1278654Y718243D01*
X1278726Y718153D01*
X1278795Y718061D01*
X1278861Y717966D01*
X1278923Y717870D01*
X1278982Y717771D01*
X1279038Y717670D01*
X1279091Y717568D01*
X1279140Y717464D01*
X1279185Y717358D01*
X1279227Y717251D01*
X1279265Y717142D01*
X1279299Y717032D01*
X1279330Y716921D01*
X1279357Y716809D01*
X1279380Y716697D01*
X1279400Y716583D01*
X1279415Y716469D01*
X1279427Y716354D01*
X1279435Y716240D01*
X1279439Y716125D01*
X1279439Y716009D01*
X1279435Y715894D01*
X1279427Y715780D01*
X1279415Y715665D01*
X1279400Y715551D01*
X1279380Y715437D01*
X1279357Y715325D01*
X1279330Y715213D01*
X1279299Y715102D01*
X1279265Y714992D01*
X1279227Y714883D01*
X1279185Y714776D01*
X1279140Y714670D01*
X1279091Y714566D01*
X1279038Y714464D01*
X1278982Y714363D01*
X1278923Y714264D01*
X1278861Y714168D01*
X1278795Y714073D01*
X1278726Y713981D01*
X1278654Y713891D01*
X1278579Y713804D01*
X1278501Y713719D01*
X1278420Y713637D01*
X1278337Y713558D01*
X1278251Y713481D01*
X1278162Y713408D01*
X1278071Y713337D01*
X1277978Y713270D01*
X1277882Y713206D01*
X1277785Y713145D01*
X1277685Y713087D01*
X1277583Y713033D01*
X1277480Y712982D01*
X1277375Y712935D01*
X1277268Y712892D01*
X1277160Y712852D01*
X1277051Y712815D01*
X1276941Y712783D01*
X1276829Y712754D01*
X1276717Y712729D01*
X1276604Y712707D01*
X1276490Y712690D01*
X1276376Y712676D01*
X1276261Y712667D01*
X1276146Y712661D01*
X1276031Y712659D01*
X1271650Y712659D01*
X1271650Y721422D01*
X1271652Y721529D01*
X1271658Y721635D01*
X1271668Y721741D01*
X1271681Y721847D01*
X1271699Y721953D01*
X1271720Y722057D01*
X1271745Y722161D01*
X1271774Y722264D01*
X1271806Y722365D01*
X1271843Y722465D01*
X1271883Y722564D01*
X1271926Y722662D01*
X1271973Y722758D01*
X1272024Y722852D01*
X1272078Y722944D01*
X1272135Y723034D01*
X1272195Y723122D01*
X1272259Y723207D01*
X1272326Y723290D01*
X1272396Y723371D01*
X1272468Y723449D01*
X1272544Y723525D01*
X1272622Y723597D01*
X1272703Y723667D01*
X1272786Y723734D01*
X1272871Y723798D01*
X1272959Y723858D01*
X1273049Y723915D01*
X1273141Y723969D01*
X1273235Y724020D01*
X1273331Y724067D01*
X1273429Y724110D01*
X1273528Y724150D01*
X1273628Y724187D01*
X1273729Y724219D01*
X1273832Y724248D01*
X1273936Y724273D01*
X1274040Y724294D01*
X1274146Y724312D01*
X1274252Y724325D01*
X1274358Y724335D01*
X1274464Y724341D01*
X1274571Y724343D01*
X1278466Y724343D01*
X1357973Y539685D02*
X1357973Y522159D01*
X1362841Y539685D02*
X1353104Y539685D01*
X1345013Y533843D02*
X1345013Y522159D01*
X1345013Y533843D02*
X1339171Y533843D01*
X1339171Y531896D01*
X1333255Y533843D02*
X1333255Y522159D01*
X1333742Y538711D02*
X1333742Y539685D01*
X1332768Y539685D01*
X1332768Y538711D01*
X1333742Y538711D01*
X1322628Y522159D02*
X1317760Y522159D01*
X1322628Y522159D02*
X1322735Y522161D01*
X1322841Y522167D01*
X1322947Y522177D01*
X1323053Y522190D01*
X1323159Y522208D01*
X1323263Y522229D01*
X1323367Y522254D01*
X1323470Y522283D01*
X1323571Y522315D01*
X1323671Y522352D01*
X1323770Y522392D01*
X1323868Y522435D01*
X1323964Y522482D01*
X1324058Y522533D01*
X1324150Y522587D01*
X1324240Y522644D01*
X1324328Y522704D01*
X1324413Y522768D01*
X1324496Y522835D01*
X1324577Y522905D01*
X1324655Y522977D01*
X1324731Y523053D01*
X1324803Y523131D01*
X1324873Y523212D01*
X1324940Y523295D01*
X1325004Y523380D01*
X1325064Y523468D01*
X1325121Y523558D01*
X1325175Y523650D01*
X1325226Y523744D01*
X1325273Y523840D01*
X1325316Y523938D01*
X1325356Y524037D01*
X1325393Y524137D01*
X1325425Y524238D01*
X1325454Y524341D01*
X1325479Y524445D01*
X1325500Y524549D01*
X1325518Y524655D01*
X1325531Y524761D01*
X1325541Y524867D01*
X1325547Y524973D01*
X1325549Y525080D01*
X1325549Y530922D01*
X1325547Y531029D01*
X1325541Y531135D01*
X1325531Y531241D01*
X1325518Y531347D01*
X1325500Y531453D01*
X1325479Y531557D01*
X1325454Y531661D01*
X1325425Y531764D01*
X1325393Y531865D01*
X1325356Y531965D01*
X1325316Y532064D01*
X1325273Y532162D01*
X1325226Y532258D01*
X1325175Y532352D01*
X1325121Y532444D01*
X1325064Y532534D01*
X1325004Y532622D01*
X1324940Y532707D01*
X1324873Y532790D01*
X1324803Y532871D01*
X1324731Y532949D01*
X1324655Y533025D01*
X1324577Y533097D01*
X1324496Y533167D01*
X1324413Y533234D01*
X1324328Y533298D01*
X1324240Y533358D01*
X1324150Y533415D01*
X1324058Y533469D01*
X1323964Y533520D01*
X1323868Y533567D01*
X1323770Y533610D01*
X1323671Y533650D01*
X1323571Y533687D01*
X1323470Y533719D01*
X1323367Y533748D01*
X1323263Y533773D01*
X1323159Y533794D01*
X1323053Y533812D01*
X1322947Y533825D01*
X1322841Y533835D01*
X1322735Y533841D01*
X1322628Y533843D01*
X1317760Y533843D01*
X1317760Y519238D01*
X1317762Y519131D01*
X1317768Y519025D01*
X1317778Y518919D01*
X1317791Y518813D01*
X1317809Y518707D01*
X1317830Y518603D01*
X1317855Y518499D01*
X1317884Y518396D01*
X1317916Y518295D01*
X1317953Y518195D01*
X1317993Y518096D01*
X1318036Y517998D01*
X1318083Y517902D01*
X1318134Y517808D01*
X1318188Y517716D01*
X1318245Y517626D01*
X1318305Y517538D01*
X1318369Y517453D01*
X1318436Y517370D01*
X1318506Y517289D01*
X1318578Y517211D01*
X1318654Y517135D01*
X1318732Y517063D01*
X1318813Y516993D01*
X1318896Y516926D01*
X1318981Y516862D01*
X1319069Y516802D01*
X1319159Y516745D01*
X1319251Y516691D01*
X1319345Y516640D01*
X1319441Y516593D01*
X1319539Y516550D01*
X1319638Y516510D01*
X1319738Y516473D01*
X1319839Y516441D01*
X1319942Y516412D01*
X1320046Y516387D01*
X1320150Y516366D01*
X1320256Y516348D01*
X1320362Y516335D01*
X1320468Y516325D01*
X1320574Y516319D01*
X1320681Y516317D01*
X1324576Y516317D01*
X1298575Y535790D02*
X1293707Y539685D01*
X1293707Y522159D01*
X1298575Y522159D02*
X1288838Y522159D01*
X1279540Y522159D02*
X1279540Y539685D01*
X1279540Y522159D02*
X1274672Y522159D01*
X1274565Y522161D01*
X1274459Y522167D01*
X1274353Y522177D01*
X1274247Y522190D01*
X1274141Y522208D01*
X1274037Y522229D01*
X1273933Y522254D01*
X1273830Y522283D01*
X1273729Y522315D01*
X1273629Y522352D01*
X1273530Y522392D01*
X1273432Y522435D01*
X1273336Y522482D01*
X1273242Y522533D01*
X1273150Y522587D01*
X1273060Y522644D01*
X1272972Y522704D01*
X1272887Y522768D01*
X1272804Y522835D01*
X1272723Y522905D01*
X1272645Y522977D01*
X1272569Y523053D01*
X1272497Y523131D01*
X1272427Y523212D01*
X1272360Y523295D01*
X1272296Y523380D01*
X1272236Y523468D01*
X1272179Y523558D01*
X1272125Y523650D01*
X1272074Y523744D01*
X1272027Y523840D01*
X1271984Y523938D01*
X1271944Y524037D01*
X1271907Y524137D01*
X1271875Y524238D01*
X1271846Y524341D01*
X1271821Y524445D01*
X1271800Y524549D01*
X1271782Y524655D01*
X1271769Y524761D01*
X1271759Y524867D01*
X1271753Y524973D01*
X1271751Y525080D01*
X1271751Y530922D01*
X1271753Y531029D01*
X1271759Y531135D01*
X1271769Y531241D01*
X1271782Y531347D01*
X1271800Y531453D01*
X1271821Y531557D01*
X1271846Y531661D01*
X1271875Y531764D01*
X1271907Y531865D01*
X1271944Y531965D01*
X1271984Y532064D01*
X1272027Y532162D01*
X1272074Y532258D01*
X1272125Y532352D01*
X1272179Y532444D01*
X1272236Y532534D01*
X1272296Y532622D01*
X1272360Y532707D01*
X1272427Y532790D01*
X1272497Y532871D01*
X1272569Y532949D01*
X1272645Y533025D01*
X1272723Y533097D01*
X1272804Y533167D01*
X1272887Y533234D01*
X1272972Y533298D01*
X1273060Y533358D01*
X1273150Y533415D01*
X1273242Y533469D01*
X1273336Y533520D01*
X1273432Y533567D01*
X1273530Y533610D01*
X1273629Y533650D01*
X1273729Y533687D01*
X1273830Y533719D01*
X1273933Y533748D01*
X1274037Y533773D01*
X1274141Y533794D01*
X1274247Y533812D01*
X1274353Y533825D01*
X1274459Y533835D01*
X1274565Y533841D01*
X1274672Y533843D01*
X1279540Y533843D01*
D11*
X1166833Y932167D02*
X1159611Y953833D01*
X1152389Y932167D01*
X1154195Y937584D02*
X1165028Y937584D01*
X1131112Y932167D02*
X1131112Y953833D01*
X1123890Y941796D01*
X1116668Y953833D01*
X1116668Y932167D01*
X1106394Y932167D02*
X1106394Y946611D01*
X1106996Y952629D02*
X1106996Y953833D01*
X1105792Y953833D01*
X1105792Y952629D01*
X1106996Y952629D01*
X1096629Y946611D02*
X1096629Y932167D01*
X1096629Y946611D02*
X1090611Y946611D01*
X1090493Y946609D01*
X1090375Y946603D01*
X1090257Y946594D01*
X1090140Y946580D01*
X1090023Y946563D01*
X1089907Y946542D01*
X1089791Y946517D01*
X1089676Y946488D01*
X1089563Y946456D01*
X1089450Y946419D01*
X1089339Y946380D01*
X1089229Y946336D01*
X1089121Y946289D01*
X1089014Y946239D01*
X1088909Y946185D01*
X1088806Y946127D01*
X1088704Y946066D01*
X1088605Y946002D01*
X1088508Y945935D01*
X1088413Y945865D01*
X1088320Y945791D01*
X1088230Y945715D01*
X1088143Y945636D01*
X1088058Y945553D01*
X1087975Y945468D01*
X1087896Y945381D01*
X1087820Y945291D01*
X1087746Y945198D01*
X1087676Y945103D01*
X1087609Y945006D01*
X1087545Y944907D01*
X1087484Y944806D01*
X1087426Y944702D01*
X1087372Y944597D01*
X1087322Y944490D01*
X1087275Y944382D01*
X1087231Y944272D01*
X1087192Y944161D01*
X1087155Y944048D01*
X1087123Y943935D01*
X1087094Y943820D01*
X1087069Y943704D01*
X1087048Y943588D01*
X1087031Y943471D01*
X1087017Y943354D01*
X1087008Y943236D01*
X1087002Y943118D01*
X1087000Y943000D01*
X1087000Y932167D01*
X1073335Y932167D02*
X1067317Y932167D01*
X1073335Y932167D02*
X1073453Y932169D01*
X1073571Y932175D01*
X1073689Y932184D01*
X1073806Y932198D01*
X1073923Y932215D01*
X1074039Y932236D01*
X1074155Y932261D01*
X1074270Y932290D01*
X1074383Y932322D01*
X1074496Y932359D01*
X1074607Y932398D01*
X1074717Y932442D01*
X1074825Y932489D01*
X1074932Y932539D01*
X1075037Y932593D01*
X1075141Y932651D01*
X1075242Y932712D01*
X1075341Y932776D01*
X1075438Y932843D01*
X1075533Y932913D01*
X1075626Y932987D01*
X1075716Y933063D01*
X1075803Y933142D01*
X1075888Y933225D01*
X1075971Y933310D01*
X1076050Y933397D01*
X1076126Y933487D01*
X1076200Y933580D01*
X1076270Y933675D01*
X1076337Y933772D01*
X1076401Y933871D01*
X1076462Y933973D01*
X1076520Y934076D01*
X1076574Y934181D01*
X1076624Y934288D01*
X1076671Y934396D01*
X1076715Y934506D01*
X1076754Y934617D01*
X1076791Y934730D01*
X1076823Y934843D01*
X1076852Y934958D01*
X1076877Y935074D01*
X1076898Y935190D01*
X1076915Y935307D01*
X1076929Y935424D01*
X1076938Y935542D01*
X1076944Y935660D01*
X1076946Y935778D01*
X1076946Y941796D01*
X1076944Y941933D01*
X1076938Y942071D01*
X1076928Y942208D01*
X1076915Y942345D01*
X1076897Y942481D01*
X1076875Y942617D01*
X1076850Y942752D01*
X1076821Y942887D01*
X1076788Y943020D01*
X1076751Y943153D01*
X1076710Y943284D01*
X1076666Y943414D01*
X1076618Y943543D01*
X1076566Y943670D01*
X1076511Y943796D01*
X1076452Y943920D01*
X1076390Y944043D01*
X1076324Y944164D01*
X1076254Y944282D01*
X1076182Y944399D01*
X1076106Y944514D01*
X1076026Y944626D01*
X1075944Y944736D01*
X1075858Y944844D01*
X1075770Y944949D01*
X1075678Y945052D01*
X1075584Y945152D01*
X1075487Y945249D01*
X1075387Y945343D01*
X1075284Y945435D01*
X1075179Y945523D01*
X1075071Y945609D01*
X1074961Y945691D01*
X1074849Y945771D01*
X1074734Y945847D01*
X1074617Y945919D01*
X1074499Y945989D01*
X1074378Y946055D01*
X1074255Y946117D01*
X1074131Y946176D01*
X1074005Y946231D01*
X1073878Y946283D01*
X1073749Y946331D01*
X1073619Y946375D01*
X1073488Y946416D01*
X1073355Y946453D01*
X1073222Y946486D01*
X1073087Y946515D01*
X1072952Y946540D01*
X1072816Y946562D01*
X1072680Y946580D01*
X1072543Y946593D01*
X1072406Y946603D01*
X1072268Y946609D01*
X1072131Y946611D01*
X1071994Y946609D01*
X1071856Y946603D01*
X1071719Y946593D01*
X1071582Y946580D01*
X1071446Y946562D01*
X1071310Y946540D01*
X1071175Y946515D01*
X1071040Y946486D01*
X1070907Y946453D01*
X1070774Y946416D01*
X1070643Y946375D01*
X1070513Y946331D01*
X1070384Y946283D01*
X1070257Y946231D01*
X1070131Y946176D01*
X1070007Y946117D01*
X1069884Y946055D01*
X1069763Y945989D01*
X1069645Y945919D01*
X1069528Y945847D01*
X1069413Y945771D01*
X1069301Y945691D01*
X1069191Y945609D01*
X1069083Y945523D01*
X1068978Y945435D01*
X1068875Y945343D01*
X1068775Y945249D01*
X1068678Y945152D01*
X1068584Y945052D01*
X1068492Y944949D01*
X1068404Y944844D01*
X1068318Y944736D01*
X1068236Y944626D01*
X1068156Y944514D01*
X1068080Y944399D01*
X1068008Y944282D01*
X1067938Y944164D01*
X1067872Y944043D01*
X1067810Y943920D01*
X1067751Y943796D01*
X1067696Y943670D01*
X1067644Y943543D01*
X1067596Y943414D01*
X1067552Y943284D01*
X1067511Y943153D01*
X1067474Y943020D01*
X1067441Y942887D01*
X1067412Y942752D01*
X1067387Y942617D01*
X1067365Y942481D01*
X1067347Y942345D01*
X1067334Y942208D01*
X1067324Y942071D01*
X1067318Y941933D01*
X1067316Y941796D01*
X1067317Y941796D02*
X1067317Y939389D01*
X1076946Y939389D01*
X1057085Y932167D02*
X1057085Y946611D01*
X1049863Y946611D01*
X1049863Y944204D01*
X1038610Y940593D02*
X1033193Y940593D01*
X1038610Y940593D02*
X1038738Y940591D01*
X1038867Y940585D01*
X1038995Y940575D01*
X1039123Y940562D01*
X1039250Y940544D01*
X1039377Y940523D01*
X1039503Y940497D01*
X1039628Y940468D01*
X1039752Y940435D01*
X1039875Y940399D01*
X1039997Y940358D01*
X1040118Y940314D01*
X1040237Y940266D01*
X1040355Y940215D01*
X1040471Y940160D01*
X1040585Y940101D01*
X1040698Y940039D01*
X1040809Y939974D01*
X1040917Y939905D01*
X1041024Y939833D01*
X1041128Y939758D01*
X1041230Y939680D01*
X1041329Y939598D01*
X1041426Y939514D01*
X1041520Y939426D01*
X1041612Y939336D01*
X1041700Y939243D01*
X1041786Y939148D01*
X1041869Y939050D01*
X1041949Y938949D01*
X1042026Y938846D01*
X1042100Y938741D01*
X1042170Y938633D01*
X1042237Y938523D01*
X1042301Y938412D01*
X1042361Y938298D01*
X1042418Y938183D01*
X1042471Y938066D01*
X1042520Y937948D01*
X1042566Y937828D01*
X1042609Y937706D01*
X1042647Y937584D01*
X1042682Y937460D01*
X1042713Y937335D01*
X1042740Y937210D01*
X1042764Y937083D01*
X1042783Y936956D01*
X1042799Y936829D01*
X1042811Y936701D01*
X1042819Y936573D01*
X1042823Y936444D01*
X1042823Y936316D01*
X1042819Y936187D01*
X1042811Y936059D01*
X1042799Y935931D01*
X1042783Y935804D01*
X1042764Y935677D01*
X1042740Y935550D01*
X1042713Y935425D01*
X1042682Y935300D01*
X1042647Y935176D01*
X1042609Y935054D01*
X1042566Y934932D01*
X1042520Y934812D01*
X1042471Y934694D01*
X1042418Y934577D01*
X1042361Y934462D01*
X1042301Y934348D01*
X1042237Y934237D01*
X1042170Y934127D01*
X1042100Y934019D01*
X1042026Y933914D01*
X1041949Y933811D01*
X1041869Y933710D01*
X1041786Y933612D01*
X1041700Y933517D01*
X1041612Y933424D01*
X1041520Y933334D01*
X1041426Y933246D01*
X1041329Y933162D01*
X1041230Y933080D01*
X1041128Y933002D01*
X1041024Y932927D01*
X1040917Y932855D01*
X1040809Y932786D01*
X1040698Y932721D01*
X1040585Y932659D01*
X1040471Y932600D01*
X1040355Y932545D01*
X1040237Y932494D01*
X1040118Y932446D01*
X1039997Y932402D01*
X1039875Y932361D01*
X1039752Y932325D01*
X1039628Y932292D01*
X1039503Y932263D01*
X1039377Y932237D01*
X1039250Y932216D01*
X1039123Y932198D01*
X1038995Y932185D01*
X1038867Y932175D01*
X1038738Y932169D01*
X1038610Y932167D01*
X1033193Y932167D01*
X1033193Y943000D01*
X1033195Y943118D01*
X1033201Y943236D01*
X1033210Y943354D01*
X1033224Y943471D01*
X1033241Y943588D01*
X1033262Y943704D01*
X1033287Y943820D01*
X1033316Y943935D01*
X1033348Y944048D01*
X1033385Y944161D01*
X1033424Y944272D01*
X1033468Y944382D01*
X1033515Y944490D01*
X1033565Y944597D01*
X1033619Y944702D01*
X1033677Y944806D01*
X1033738Y944907D01*
X1033802Y945006D01*
X1033869Y945103D01*
X1033939Y945198D01*
X1034013Y945291D01*
X1034089Y945381D01*
X1034168Y945468D01*
X1034251Y945553D01*
X1034336Y945636D01*
X1034423Y945715D01*
X1034513Y945791D01*
X1034606Y945865D01*
X1034701Y945935D01*
X1034798Y946002D01*
X1034897Y946066D01*
X1034999Y946127D01*
X1035102Y946185D01*
X1035207Y946239D01*
X1035314Y946289D01*
X1035422Y946336D01*
X1035532Y946380D01*
X1035643Y946419D01*
X1035756Y946456D01*
X1035869Y946488D01*
X1035984Y946517D01*
X1036100Y946542D01*
X1036216Y946563D01*
X1036333Y946580D01*
X1036450Y946594D01*
X1036568Y946603D01*
X1036686Y946609D01*
X1036804Y946611D01*
X1041619Y946611D01*
X1022786Y953833D02*
X1022786Y935778D01*
X1022784Y935660D01*
X1022778Y935542D01*
X1022769Y935424D01*
X1022755Y935307D01*
X1022738Y935190D01*
X1022717Y935074D01*
X1022692Y934958D01*
X1022663Y934843D01*
X1022631Y934730D01*
X1022594Y934617D01*
X1022555Y934506D01*
X1022511Y934396D01*
X1022464Y934288D01*
X1022414Y934181D01*
X1022360Y934076D01*
X1022302Y933973D01*
X1022241Y933871D01*
X1022177Y933772D01*
X1022110Y933675D01*
X1022040Y933580D01*
X1021966Y933487D01*
X1021890Y933397D01*
X1021811Y933310D01*
X1021728Y933225D01*
X1021643Y933142D01*
X1021556Y933063D01*
X1021466Y932987D01*
X1021373Y932913D01*
X1021278Y932843D01*
X1021181Y932776D01*
X1021082Y932712D01*
X1020981Y932651D01*
X1020877Y932593D01*
X1020772Y932539D01*
X1020665Y932489D01*
X1020557Y932442D01*
X1020447Y932398D01*
X1020336Y932359D01*
X1020223Y932322D01*
X1020110Y932290D01*
X1019995Y932261D01*
X1019879Y932236D01*
X1019763Y932215D01*
X1019646Y932198D01*
X1019529Y932184D01*
X1019411Y932175D01*
X1019293Y932169D01*
X1019175Y932167D01*
X998620Y932167D02*
X998620Y953833D01*
X988991Y953833D01*
X988991Y944204D02*
X998620Y944204D01*
X981007Y946611D02*
X981007Y932167D01*
X981609Y952629D02*
X981609Y953833D01*
X980405Y953833D01*
X980405Y952629D01*
X981609Y952629D01*
X971064Y946611D02*
X971064Y932167D01*
X971064Y946611D02*
X963842Y946611D01*
X963842Y944204D01*
X953051Y932167D02*
X947032Y932167D01*
X953051Y932167D02*
X953169Y932169D01*
X953287Y932175D01*
X953405Y932184D01*
X953522Y932198D01*
X953639Y932215D01*
X953755Y932236D01*
X953871Y932261D01*
X953986Y932290D01*
X954099Y932322D01*
X954212Y932359D01*
X954323Y932398D01*
X954433Y932442D01*
X954541Y932489D01*
X954648Y932539D01*
X954753Y932593D01*
X954857Y932651D01*
X954958Y932712D01*
X955057Y932776D01*
X955154Y932843D01*
X955249Y932913D01*
X955342Y932987D01*
X955432Y933063D01*
X955519Y933142D01*
X955604Y933225D01*
X955687Y933310D01*
X955766Y933397D01*
X955842Y933487D01*
X955916Y933580D01*
X955986Y933675D01*
X956053Y933772D01*
X956117Y933871D01*
X956178Y933973D01*
X956236Y934076D01*
X956290Y934181D01*
X956340Y934288D01*
X956387Y934396D01*
X956431Y934506D01*
X956470Y934617D01*
X956507Y934730D01*
X956539Y934843D01*
X956568Y934958D01*
X956593Y935074D01*
X956614Y935190D01*
X956631Y935307D01*
X956645Y935424D01*
X956654Y935542D01*
X956660Y935660D01*
X956662Y935778D01*
X956662Y941796D01*
X956660Y941933D01*
X956654Y942071D01*
X956644Y942208D01*
X956631Y942345D01*
X956613Y942481D01*
X956591Y942617D01*
X956566Y942752D01*
X956537Y942887D01*
X956504Y943020D01*
X956467Y943153D01*
X956426Y943284D01*
X956382Y943414D01*
X956334Y943543D01*
X956282Y943670D01*
X956227Y943796D01*
X956168Y943920D01*
X956106Y944043D01*
X956040Y944164D01*
X955970Y944282D01*
X955898Y944399D01*
X955822Y944514D01*
X955742Y944626D01*
X955660Y944736D01*
X955574Y944844D01*
X955486Y944949D01*
X955394Y945052D01*
X955300Y945152D01*
X955203Y945249D01*
X955103Y945343D01*
X955000Y945435D01*
X954895Y945523D01*
X954787Y945609D01*
X954677Y945691D01*
X954565Y945771D01*
X954450Y945847D01*
X954333Y945919D01*
X954215Y945989D01*
X954094Y946055D01*
X953971Y946117D01*
X953847Y946176D01*
X953721Y946231D01*
X953594Y946283D01*
X953465Y946331D01*
X953335Y946375D01*
X953204Y946416D01*
X953071Y946453D01*
X952938Y946486D01*
X952803Y946515D01*
X952668Y946540D01*
X952532Y946562D01*
X952396Y946580D01*
X952259Y946593D01*
X952122Y946603D01*
X951984Y946609D01*
X951847Y946611D01*
X951710Y946609D01*
X951572Y946603D01*
X951435Y946593D01*
X951298Y946580D01*
X951162Y946562D01*
X951026Y946540D01*
X950891Y946515D01*
X950756Y946486D01*
X950623Y946453D01*
X950490Y946416D01*
X950359Y946375D01*
X950229Y946331D01*
X950100Y946283D01*
X949973Y946231D01*
X949847Y946176D01*
X949723Y946117D01*
X949600Y946055D01*
X949479Y945989D01*
X949361Y945919D01*
X949244Y945847D01*
X949129Y945771D01*
X949017Y945691D01*
X948907Y945609D01*
X948799Y945523D01*
X948694Y945435D01*
X948591Y945343D01*
X948491Y945249D01*
X948394Y945152D01*
X948300Y945052D01*
X948208Y944949D01*
X948120Y944844D01*
X948034Y944736D01*
X947952Y944626D01*
X947872Y944514D01*
X947796Y944399D01*
X947724Y944282D01*
X947654Y944164D01*
X947588Y944043D01*
X947526Y943920D01*
X947467Y943796D01*
X947412Y943670D01*
X947360Y943543D01*
X947312Y943414D01*
X947268Y943284D01*
X947227Y943153D01*
X947190Y943020D01*
X947157Y942887D01*
X947128Y942752D01*
X947103Y942617D01*
X947081Y942481D01*
X947063Y942345D01*
X947050Y942208D01*
X947040Y942071D01*
X947034Y941933D01*
X947032Y941796D01*
X947032Y939389D01*
X956662Y939389D01*
D10*
X1106104Y-237446D02*
X1106106Y-237568D01*
X1106112Y-237691D01*
X1106121Y-237813D01*
X1106135Y-237934D01*
X1106152Y-238055D01*
X1106173Y-238176D01*
X1106198Y-238296D01*
X1106226Y-238415D01*
X1106259Y-238533D01*
X1106295Y-238650D01*
X1106334Y-238765D01*
X1106378Y-238880D01*
X1106424Y-238993D01*
X1106475Y-239104D01*
X1106529Y-239214D01*
X1106586Y-239322D01*
X1106646Y-239429D01*
X1106710Y-239533D01*
X1106778Y-239635D01*
X1106848Y-239735D01*
X1106921Y-239833D01*
X1106998Y-239929D01*
X1107077Y-240022D01*
X1107160Y-240112D01*
X1107245Y-240200D01*
X1107333Y-240285D01*
X1107423Y-240368D01*
X1107516Y-240447D01*
X1107612Y-240524D01*
X1107710Y-240597D01*
X1107810Y-240667D01*
X1107912Y-240735D01*
X1108016Y-240799D01*
X1108123Y-240859D01*
X1108231Y-240916D01*
X1108341Y-240970D01*
X1108452Y-241021D01*
X1108565Y-241067D01*
X1108680Y-241111D01*
X1108795Y-241150D01*
X1108912Y-241186D01*
X1109030Y-241219D01*
X1109149Y-241247D01*
X1109269Y-241272D01*
X1109390Y-241293D01*
X1109511Y-241310D01*
X1109632Y-241324D01*
X1109754Y-241333D01*
X1109877Y-241339D01*
X1109999Y-241341D01*
X1110196Y-241339D01*
X1110393Y-241332D01*
X1110589Y-241320D01*
X1110785Y-241303D01*
X1110981Y-241282D01*
X1111176Y-241256D01*
X1111371Y-241226D01*
X1111564Y-241191D01*
X1111757Y-241151D01*
X1111949Y-241107D01*
X1112140Y-241058D01*
X1112329Y-241004D01*
X1112517Y-240946D01*
X1112704Y-240884D01*
X1112889Y-240817D01*
X1113073Y-240745D01*
X1113254Y-240670D01*
X1113434Y-240590D01*
X1113612Y-240505D01*
X1113788Y-240417D01*
X1113961Y-240324D01*
X1114133Y-240227D01*
X1114302Y-240126D01*
X1114468Y-240021D01*
X1114632Y-239912D01*
X1114794Y-239800D01*
X1114952Y-239683D01*
X1115108Y-239563D01*
X1115261Y-239439D01*
X1115411Y-239311D01*
X1115557Y-239180D01*
X1115701Y-239045D01*
X1115841Y-238907D01*
X1115355Y-227710D02*
X1115353Y-227588D01*
X1115347Y-227465D01*
X1115338Y-227343D01*
X1115324Y-227222D01*
X1115307Y-227101D01*
X1115286Y-226980D01*
X1115261Y-226860D01*
X1115233Y-226741D01*
X1115200Y-226623D01*
X1115164Y-226506D01*
X1115125Y-226391D01*
X1115081Y-226276D01*
X1115035Y-226163D01*
X1114984Y-226052D01*
X1114930Y-225942D01*
X1114873Y-225834D01*
X1114813Y-225727D01*
X1114749Y-225623D01*
X1114681Y-225521D01*
X1114611Y-225421D01*
X1114538Y-225323D01*
X1114461Y-225227D01*
X1114382Y-225134D01*
X1114299Y-225044D01*
X1114214Y-224956D01*
X1114126Y-224871D01*
X1114036Y-224788D01*
X1113943Y-224709D01*
X1113847Y-224632D01*
X1113749Y-224559D01*
X1113649Y-224489D01*
X1113547Y-224421D01*
X1113443Y-224357D01*
X1113336Y-224297D01*
X1113228Y-224240D01*
X1113118Y-224186D01*
X1113007Y-224135D01*
X1112894Y-224089D01*
X1112779Y-224045D01*
X1112664Y-224006D01*
X1112547Y-223970D01*
X1112429Y-223937D01*
X1112310Y-223909D01*
X1112190Y-223884D01*
X1112069Y-223863D01*
X1111948Y-223846D01*
X1111827Y-223832D01*
X1111705Y-223823D01*
X1111582Y-223817D01*
X1111460Y-223815D01*
X1111286Y-223817D01*
X1111112Y-223823D01*
X1110938Y-223834D01*
X1110765Y-223848D01*
X1110592Y-223867D01*
X1110419Y-223890D01*
X1110247Y-223916D01*
X1110076Y-223947D01*
X1109905Y-223982D01*
X1109736Y-224021D01*
X1109567Y-224065D01*
X1109400Y-224112D01*
X1109233Y-224163D01*
X1109068Y-224218D01*
X1108904Y-224277D01*
X1108742Y-224340D01*
X1108581Y-224406D01*
X1108422Y-224477D01*
X1108265Y-224551D01*
X1108109Y-224629D01*
X1107956Y-224711D01*
X1107804Y-224796D01*
X1107654Y-224885D01*
X1107507Y-224977D01*
X1107362Y-225073D01*
X1107219Y-225173D01*
X1107078Y-225276D01*
X1113407Y-231118D02*
X1113514Y-231053D01*
X1113618Y-230985D01*
X1113720Y-230914D01*
X1113819Y-230839D01*
X1113917Y-230762D01*
X1114011Y-230681D01*
X1114103Y-230597D01*
X1114193Y-230511D01*
X1114280Y-230421D01*
X1114364Y-230329D01*
X1114445Y-230235D01*
X1114522Y-230138D01*
X1114597Y-230038D01*
X1114669Y-229937D01*
X1114737Y-229833D01*
X1114802Y-229727D01*
X1114864Y-229618D01*
X1114923Y-229509D01*
X1114977Y-229397D01*
X1115029Y-229283D01*
X1115076Y-229168D01*
X1115120Y-229052D01*
X1115161Y-228934D01*
X1115197Y-228815D01*
X1115230Y-228695D01*
X1115259Y-228574D01*
X1115285Y-228452D01*
X1115306Y-228330D01*
X1115324Y-228207D01*
X1115337Y-228083D01*
X1115347Y-227959D01*
X1115353Y-227834D01*
X1115355Y-227710D01*
X1108052Y-234038D02*
X1107945Y-234103D01*
X1107841Y-234171D01*
X1107739Y-234242D01*
X1107640Y-234317D01*
X1107542Y-234394D01*
X1107448Y-234475D01*
X1107355Y-234559D01*
X1107266Y-234645D01*
X1107179Y-234735D01*
X1107095Y-234827D01*
X1107014Y-234921D01*
X1106937Y-235018D01*
X1106862Y-235118D01*
X1106790Y-235219D01*
X1106722Y-235323D01*
X1106657Y-235429D01*
X1106595Y-235538D01*
X1106536Y-235648D01*
X1106482Y-235759D01*
X1106430Y-235873D01*
X1106383Y-235988D01*
X1106339Y-236104D01*
X1106298Y-236222D01*
X1106262Y-236341D01*
X1106229Y-236461D01*
X1106200Y-236582D01*
X1106174Y-236704D01*
X1106153Y-236826D01*
X1106135Y-236949D01*
X1106122Y-237073D01*
X1106112Y-237197D01*
X1106106Y-237322D01*
X1106104Y-237446D01*
X1108052Y-234039D02*
X1113407Y-231118D01*
X1099908Y-229657D02*
X1094066Y-229657D01*
X1097961Y-223815D02*
X1097961Y-238420D01*
X1097959Y-238527D01*
X1097953Y-238633D01*
X1097943Y-238739D01*
X1097930Y-238845D01*
X1097912Y-238951D01*
X1097891Y-239055D01*
X1097866Y-239159D01*
X1097837Y-239262D01*
X1097805Y-239363D01*
X1097768Y-239463D01*
X1097728Y-239562D01*
X1097685Y-239660D01*
X1097638Y-239756D01*
X1097587Y-239850D01*
X1097533Y-239942D01*
X1097476Y-240032D01*
X1097416Y-240120D01*
X1097352Y-240205D01*
X1097285Y-240288D01*
X1097215Y-240369D01*
X1097143Y-240447D01*
X1097067Y-240523D01*
X1096989Y-240595D01*
X1096908Y-240665D01*
X1096825Y-240732D01*
X1096740Y-240796D01*
X1096652Y-240856D01*
X1096562Y-240913D01*
X1096470Y-240967D01*
X1096376Y-241018D01*
X1096280Y-241065D01*
X1096182Y-241108D01*
X1096083Y-241148D01*
X1095983Y-241185D01*
X1095882Y-241217D01*
X1095779Y-241246D01*
X1095675Y-241271D01*
X1095571Y-241292D01*
X1095465Y-241310D01*
X1095359Y-241323D01*
X1095253Y-241333D01*
X1095147Y-241339D01*
X1095040Y-241341D01*
X1094066Y-241341D01*
X1083175Y-234525D02*
X1078793Y-234525D01*
X1083175Y-234525D02*
X1083290Y-234527D01*
X1083405Y-234533D01*
X1083520Y-234542D01*
X1083634Y-234556D01*
X1083748Y-234573D01*
X1083861Y-234595D01*
X1083973Y-234620D01*
X1084085Y-234649D01*
X1084195Y-234681D01*
X1084304Y-234718D01*
X1084412Y-234758D01*
X1084519Y-234801D01*
X1084624Y-234848D01*
X1084727Y-234899D01*
X1084829Y-234953D01*
X1084929Y-235011D01*
X1085026Y-235072D01*
X1085122Y-235136D01*
X1085215Y-235203D01*
X1085306Y-235274D01*
X1085395Y-235347D01*
X1085481Y-235424D01*
X1085564Y-235503D01*
X1085645Y-235585D01*
X1085723Y-235670D01*
X1085798Y-235757D01*
X1085870Y-235847D01*
X1085939Y-235939D01*
X1086005Y-236034D01*
X1086067Y-236130D01*
X1086126Y-236229D01*
X1086182Y-236330D01*
X1086235Y-236432D01*
X1086284Y-236536D01*
X1086329Y-236642D01*
X1086371Y-236749D01*
X1086409Y-236858D01*
X1086443Y-236968D01*
X1086474Y-237079D01*
X1086501Y-237191D01*
X1086524Y-237303D01*
X1086544Y-237417D01*
X1086559Y-237531D01*
X1086571Y-237646D01*
X1086579Y-237760D01*
X1086583Y-237875D01*
X1086583Y-237991D01*
X1086579Y-238106D01*
X1086571Y-238220D01*
X1086559Y-238335D01*
X1086544Y-238449D01*
X1086524Y-238563D01*
X1086501Y-238675D01*
X1086474Y-238787D01*
X1086443Y-238898D01*
X1086409Y-239008D01*
X1086371Y-239117D01*
X1086329Y-239224D01*
X1086284Y-239330D01*
X1086235Y-239434D01*
X1086182Y-239536D01*
X1086126Y-239637D01*
X1086067Y-239736D01*
X1086005Y-239832D01*
X1085939Y-239927D01*
X1085870Y-240019D01*
X1085798Y-240109D01*
X1085723Y-240196D01*
X1085645Y-240281D01*
X1085564Y-240363D01*
X1085481Y-240442D01*
X1085395Y-240519D01*
X1085306Y-240592D01*
X1085215Y-240663D01*
X1085122Y-240730D01*
X1085026Y-240794D01*
X1084929Y-240855D01*
X1084829Y-240913D01*
X1084727Y-240967D01*
X1084624Y-241018D01*
X1084519Y-241065D01*
X1084412Y-241108D01*
X1084304Y-241148D01*
X1084195Y-241185D01*
X1084085Y-241217D01*
X1083973Y-241246D01*
X1083861Y-241271D01*
X1083748Y-241293D01*
X1083634Y-241310D01*
X1083520Y-241324D01*
X1083405Y-241333D01*
X1083290Y-241339D01*
X1083175Y-241341D01*
X1078793Y-241341D01*
X1078793Y-232578D01*
X1078795Y-232471D01*
X1078801Y-232365D01*
X1078811Y-232259D01*
X1078824Y-232153D01*
X1078842Y-232047D01*
X1078863Y-231943D01*
X1078888Y-231839D01*
X1078917Y-231736D01*
X1078949Y-231635D01*
X1078986Y-231535D01*
X1079026Y-231436D01*
X1079069Y-231338D01*
X1079116Y-231242D01*
X1079167Y-231148D01*
X1079221Y-231056D01*
X1079278Y-230966D01*
X1079338Y-230878D01*
X1079402Y-230793D01*
X1079469Y-230710D01*
X1079539Y-230629D01*
X1079611Y-230551D01*
X1079687Y-230475D01*
X1079765Y-230403D01*
X1079846Y-230333D01*
X1079929Y-230266D01*
X1080014Y-230202D01*
X1080102Y-230142D01*
X1080192Y-230085D01*
X1080284Y-230031D01*
X1080378Y-229980D01*
X1080474Y-229933D01*
X1080572Y-229890D01*
X1080671Y-229850D01*
X1080771Y-229813D01*
X1080872Y-229781D01*
X1080975Y-229752D01*
X1081079Y-229727D01*
X1081183Y-229706D01*
X1081289Y-229688D01*
X1081395Y-229675D01*
X1081501Y-229665D01*
X1081607Y-229659D01*
X1081714Y-229657D01*
X1085609Y-229657D01*
X1068970Y-229657D02*
X1068970Y-241341D01*
X1068970Y-229657D02*
X1063128Y-229657D01*
X1063128Y-231604D01*
X1058506Y-229657D02*
X1052664Y-229657D01*
X1056558Y-223815D02*
X1056558Y-238420D01*
X1056556Y-238527D01*
X1056550Y-238633D01*
X1056540Y-238739D01*
X1056527Y-238845D01*
X1056509Y-238951D01*
X1056488Y-239055D01*
X1056463Y-239159D01*
X1056434Y-239262D01*
X1056402Y-239363D01*
X1056365Y-239463D01*
X1056325Y-239562D01*
X1056282Y-239660D01*
X1056235Y-239756D01*
X1056184Y-239850D01*
X1056130Y-239942D01*
X1056073Y-240032D01*
X1056013Y-240120D01*
X1055949Y-240205D01*
X1055882Y-240288D01*
X1055812Y-240369D01*
X1055740Y-240447D01*
X1055664Y-240523D01*
X1055586Y-240595D01*
X1055505Y-240665D01*
X1055422Y-240732D01*
X1055337Y-240796D01*
X1055249Y-240856D01*
X1055159Y-240913D01*
X1055067Y-240967D01*
X1054973Y-241018D01*
X1054877Y-241065D01*
X1054779Y-241108D01*
X1054680Y-241148D01*
X1054580Y-241185D01*
X1054479Y-241217D01*
X1054376Y-241246D01*
X1054272Y-241271D01*
X1054168Y-241292D01*
X1054062Y-241310D01*
X1053956Y-241323D01*
X1053850Y-241333D01*
X1053744Y-241339D01*
X1053637Y-241341D01*
X1052664Y-241341D01*
X1106104Y-237446D02*
X1106106Y-237568D01*
X1106112Y-237691D01*
X1106121Y-237813D01*
X1106135Y-237934D01*
X1106152Y-238055D01*
X1106173Y-238176D01*
X1106198Y-238296D01*
X1106226Y-238415D01*
X1106259Y-238533D01*
X1106295Y-238650D01*
X1106334Y-238765D01*
X1106378Y-238880D01*
X1106424Y-238993D01*
X1106475Y-239104D01*
X1106529Y-239214D01*
X1106586Y-239322D01*
X1106646Y-239429D01*
X1106710Y-239533D01*
X1106778Y-239635D01*
X1106848Y-239735D01*
X1106921Y-239833D01*
X1106998Y-239929D01*
X1107077Y-240022D01*
X1107160Y-240112D01*
X1107245Y-240200D01*
X1107333Y-240285D01*
X1107423Y-240368D01*
X1107516Y-240447D01*
X1107612Y-240524D01*
X1107710Y-240597D01*
X1107810Y-240667D01*
X1107912Y-240735D01*
X1108016Y-240799D01*
X1108123Y-240859D01*
X1108231Y-240916D01*
X1108341Y-240970D01*
X1108452Y-241021D01*
X1108565Y-241067D01*
X1108680Y-241111D01*
X1108795Y-241150D01*
X1108912Y-241186D01*
X1109030Y-241219D01*
X1109149Y-241247D01*
X1109269Y-241272D01*
X1109390Y-241293D01*
X1109511Y-241310D01*
X1109632Y-241324D01*
X1109754Y-241333D01*
X1109877Y-241339D01*
X1109999Y-241341D01*
X1110196Y-241339D01*
X1110393Y-241332D01*
X1110589Y-241320D01*
X1110785Y-241303D01*
X1110981Y-241282D01*
X1111176Y-241256D01*
X1111371Y-241226D01*
X1111564Y-241191D01*
X1111757Y-241151D01*
X1111949Y-241107D01*
X1112140Y-241058D01*
X1112329Y-241004D01*
X1112517Y-240946D01*
X1112704Y-240884D01*
X1112889Y-240817D01*
X1113073Y-240745D01*
X1113254Y-240670D01*
X1113434Y-240590D01*
X1113612Y-240505D01*
X1113788Y-240417D01*
X1113961Y-240324D01*
X1114133Y-240227D01*
X1114302Y-240126D01*
X1114468Y-240021D01*
X1114632Y-239912D01*
X1114794Y-239800D01*
X1114952Y-239683D01*
X1115108Y-239563D01*
X1115261Y-239439D01*
X1115411Y-239311D01*
X1115557Y-239180D01*
X1115701Y-239045D01*
X1115841Y-238907D01*
X1115355Y-227710D02*
X1115353Y-227588D01*
X1115347Y-227465D01*
X1115338Y-227343D01*
X1115324Y-227222D01*
X1115307Y-227101D01*
X1115286Y-226980D01*
X1115261Y-226860D01*
X1115233Y-226741D01*
X1115200Y-226623D01*
X1115164Y-226506D01*
X1115125Y-226391D01*
X1115081Y-226276D01*
X1115035Y-226163D01*
X1114984Y-226052D01*
X1114930Y-225942D01*
X1114873Y-225834D01*
X1114813Y-225727D01*
X1114749Y-225623D01*
X1114681Y-225521D01*
X1114611Y-225421D01*
X1114538Y-225323D01*
X1114461Y-225227D01*
X1114382Y-225134D01*
X1114299Y-225044D01*
X1114214Y-224956D01*
X1114126Y-224871D01*
X1114036Y-224788D01*
X1113943Y-224709D01*
X1113847Y-224632D01*
X1113749Y-224559D01*
X1113649Y-224489D01*
X1113547Y-224421D01*
X1113443Y-224357D01*
X1113336Y-224297D01*
X1113228Y-224240D01*
X1113118Y-224186D01*
X1113007Y-224135D01*
X1112894Y-224089D01*
X1112779Y-224045D01*
X1112664Y-224006D01*
X1112547Y-223970D01*
X1112429Y-223937D01*
X1112310Y-223909D01*
X1112190Y-223884D01*
X1112069Y-223863D01*
X1111948Y-223846D01*
X1111827Y-223832D01*
X1111705Y-223823D01*
X1111582Y-223817D01*
X1111460Y-223815D01*
X1111286Y-223817D01*
X1111112Y-223823D01*
X1110938Y-223834D01*
X1110765Y-223848D01*
X1110592Y-223867D01*
X1110419Y-223890D01*
X1110247Y-223916D01*
X1110076Y-223947D01*
X1109905Y-223982D01*
X1109736Y-224021D01*
X1109567Y-224065D01*
X1109400Y-224112D01*
X1109233Y-224163D01*
X1109068Y-224218D01*
X1108904Y-224277D01*
X1108742Y-224340D01*
X1108581Y-224406D01*
X1108422Y-224477D01*
X1108265Y-224551D01*
X1108109Y-224629D01*
X1107956Y-224711D01*
X1107804Y-224796D01*
X1107654Y-224885D01*
X1107507Y-224977D01*
X1107362Y-225073D01*
X1107219Y-225173D01*
X1107078Y-225276D01*
X1113407Y-231118D02*
X1113514Y-231053D01*
X1113618Y-230985D01*
X1113720Y-230914D01*
X1113819Y-230839D01*
X1113917Y-230762D01*
X1114011Y-230681D01*
X1114103Y-230597D01*
X1114193Y-230511D01*
X1114280Y-230421D01*
X1114364Y-230329D01*
X1114445Y-230235D01*
X1114522Y-230138D01*
X1114597Y-230038D01*
X1114669Y-229937D01*
X1114737Y-229833D01*
X1114802Y-229727D01*
X1114864Y-229618D01*
X1114923Y-229509D01*
X1114977Y-229397D01*
X1115029Y-229283D01*
X1115076Y-229168D01*
X1115120Y-229052D01*
X1115161Y-228934D01*
X1115197Y-228815D01*
X1115230Y-228695D01*
X1115259Y-228574D01*
X1115285Y-228452D01*
X1115306Y-228330D01*
X1115324Y-228207D01*
X1115337Y-228083D01*
X1115347Y-227959D01*
X1115353Y-227834D01*
X1115355Y-227710D01*
X1108052Y-234038D02*
X1107945Y-234103D01*
X1107841Y-234171D01*
X1107739Y-234242D01*
X1107640Y-234317D01*
X1107542Y-234394D01*
X1107448Y-234475D01*
X1107355Y-234559D01*
X1107266Y-234645D01*
X1107179Y-234735D01*
X1107095Y-234827D01*
X1107014Y-234921D01*
X1106937Y-235018D01*
X1106862Y-235118D01*
X1106790Y-235219D01*
X1106722Y-235323D01*
X1106657Y-235429D01*
X1106595Y-235538D01*
X1106536Y-235648D01*
X1106482Y-235759D01*
X1106430Y-235873D01*
X1106383Y-235988D01*
X1106339Y-236104D01*
X1106298Y-236222D01*
X1106262Y-236341D01*
X1106229Y-236461D01*
X1106200Y-236582D01*
X1106174Y-236704D01*
X1106153Y-236826D01*
X1106135Y-236949D01*
X1106122Y-237073D01*
X1106112Y-237197D01*
X1106106Y-237322D01*
X1106104Y-237446D01*
X1108052Y-234039D02*
X1113407Y-231118D01*
X1099908Y-229657D02*
X1094066Y-229657D01*
X1097961Y-223815D02*
X1097961Y-238420D01*
X1097959Y-238527D01*
X1097953Y-238633D01*
X1097943Y-238739D01*
X1097930Y-238845D01*
X1097912Y-238951D01*
X1097891Y-239055D01*
X1097866Y-239159D01*
X1097837Y-239262D01*
X1097805Y-239363D01*
X1097768Y-239463D01*
X1097728Y-239562D01*
X1097685Y-239660D01*
X1097638Y-239756D01*
X1097587Y-239850D01*
X1097533Y-239942D01*
X1097476Y-240032D01*
X1097416Y-240120D01*
X1097352Y-240205D01*
X1097285Y-240288D01*
X1097215Y-240369D01*
X1097143Y-240447D01*
X1097067Y-240523D01*
X1096989Y-240595D01*
X1096908Y-240665D01*
X1096825Y-240732D01*
X1096740Y-240796D01*
X1096652Y-240856D01*
X1096562Y-240913D01*
X1096470Y-240967D01*
X1096376Y-241018D01*
X1096280Y-241065D01*
X1096182Y-241108D01*
X1096083Y-241148D01*
X1095983Y-241185D01*
X1095882Y-241217D01*
X1095779Y-241246D01*
X1095675Y-241271D01*
X1095571Y-241292D01*
X1095465Y-241310D01*
X1095359Y-241323D01*
X1095253Y-241333D01*
X1095147Y-241339D01*
X1095040Y-241341D01*
X1094066Y-241341D01*
X1083175Y-234525D02*
X1078793Y-234525D01*
X1083175Y-234525D02*
X1083290Y-234527D01*
X1083405Y-234533D01*
X1083520Y-234542D01*
X1083634Y-234556D01*
X1083748Y-234573D01*
X1083861Y-234595D01*
X1083973Y-234620D01*
X1084085Y-234649D01*
X1084195Y-234681D01*
X1084304Y-234718D01*
X1084412Y-234758D01*
X1084519Y-234801D01*
X1084624Y-234848D01*
X1084727Y-234899D01*
X1084829Y-234953D01*
X1084929Y-235011D01*
X1085026Y-235072D01*
X1085122Y-235136D01*
X1085215Y-235203D01*
X1085306Y-235274D01*
X1085395Y-235347D01*
X1085481Y-235424D01*
X1085564Y-235503D01*
X1085645Y-235585D01*
X1085723Y-235670D01*
X1085798Y-235757D01*
X1085870Y-235847D01*
X1085939Y-235939D01*
X1086005Y-236034D01*
X1086067Y-236130D01*
X1086126Y-236229D01*
X1086182Y-236330D01*
X1086235Y-236432D01*
X1086284Y-236536D01*
X1086329Y-236642D01*
X1086371Y-236749D01*
X1086409Y-236858D01*
X1086443Y-236968D01*
X1086474Y-237079D01*
X1086501Y-237191D01*
X1086524Y-237303D01*
X1086544Y-237417D01*
X1086559Y-237531D01*
X1086571Y-237646D01*
X1086579Y-237760D01*
X1086583Y-237875D01*
X1086583Y-237991D01*
X1086579Y-238106D01*
X1086571Y-238220D01*
X1086559Y-238335D01*
X1086544Y-238449D01*
X1086524Y-238563D01*
X1086501Y-238675D01*
X1086474Y-238787D01*
X1086443Y-238898D01*
X1086409Y-239008D01*
X1086371Y-239117D01*
X1086329Y-239224D01*
X1086284Y-239330D01*
X1086235Y-239434D01*
X1086182Y-239536D01*
X1086126Y-239637D01*
X1086067Y-239736D01*
X1086005Y-239832D01*
X1085939Y-239927D01*
X1085870Y-240019D01*
X1085798Y-240109D01*
X1085723Y-240196D01*
X1085645Y-240281D01*
X1085564Y-240363D01*
X1085481Y-240442D01*
X1085395Y-240519D01*
X1085306Y-240592D01*
X1085215Y-240663D01*
X1085122Y-240730D01*
X1085026Y-240794D01*
X1084929Y-240855D01*
X1084829Y-240913D01*
X1084727Y-240967D01*
X1084624Y-241018D01*
X1084519Y-241065D01*
X1084412Y-241108D01*
X1084304Y-241148D01*
X1084195Y-241185D01*
X1084085Y-241217D01*
X1083973Y-241246D01*
X1083861Y-241271D01*
X1083748Y-241293D01*
X1083634Y-241310D01*
X1083520Y-241324D01*
X1083405Y-241333D01*
X1083290Y-241339D01*
X1083175Y-241341D01*
X1078793Y-241341D01*
X1078793Y-232578D01*
X1078795Y-232471D01*
X1078801Y-232365D01*
X1078811Y-232259D01*
X1078824Y-232153D01*
X1078842Y-232047D01*
X1078863Y-231943D01*
X1078888Y-231839D01*
X1078917Y-231736D01*
X1078949Y-231635D01*
X1078986Y-231535D01*
X1079026Y-231436D01*
X1079069Y-231338D01*
X1079116Y-231242D01*
X1079167Y-231148D01*
X1079221Y-231056D01*
X1079278Y-230966D01*
X1079338Y-230878D01*
X1079402Y-230793D01*
X1079469Y-230710D01*
X1079539Y-230629D01*
X1079611Y-230551D01*
X1079687Y-230475D01*
X1079765Y-230403D01*
X1079846Y-230333D01*
X1079929Y-230266D01*
X1080014Y-230202D01*
X1080102Y-230142D01*
X1080192Y-230085D01*
X1080284Y-230031D01*
X1080378Y-229980D01*
X1080474Y-229933D01*
X1080572Y-229890D01*
X1080671Y-229850D01*
X1080771Y-229813D01*
X1080872Y-229781D01*
X1080975Y-229752D01*
X1081079Y-229727D01*
X1081183Y-229706D01*
X1081289Y-229688D01*
X1081395Y-229675D01*
X1081501Y-229665D01*
X1081607Y-229659D01*
X1081714Y-229657D01*
X1085609Y-229657D01*
X1068970Y-229657D02*
X1068970Y-241341D01*
X1068970Y-229657D02*
X1063128Y-229657D01*
X1063128Y-231604D01*
X1058506Y-229657D02*
X1052664Y-229657D01*
X1056558Y-223815D02*
X1056558Y-238420D01*
X1056556Y-238527D01*
X1056550Y-238633D01*
X1056540Y-238739D01*
X1056527Y-238845D01*
X1056509Y-238951D01*
X1056488Y-239055D01*
X1056463Y-239159D01*
X1056434Y-239262D01*
X1056402Y-239363D01*
X1056365Y-239463D01*
X1056325Y-239562D01*
X1056282Y-239660D01*
X1056235Y-239756D01*
X1056184Y-239850D01*
X1056130Y-239942D01*
X1056073Y-240032D01*
X1056013Y-240120D01*
X1055949Y-240205D01*
X1055882Y-240288D01*
X1055812Y-240369D01*
X1055740Y-240447D01*
X1055664Y-240523D01*
X1055586Y-240595D01*
X1055505Y-240665D01*
X1055422Y-240732D01*
X1055337Y-240796D01*
X1055249Y-240856D01*
X1055159Y-240913D01*
X1055067Y-240967D01*
X1054973Y-241018D01*
X1054877Y-241065D01*
X1054779Y-241108D01*
X1054680Y-241148D01*
X1054580Y-241185D01*
X1054479Y-241217D01*
X1054376Y-241246D01*
X1054272Y-241271D01*
X1054168Y-241292D01*
X1054062Y-241310D01*
X1053956Y-241323D01*
X1053850Y-241333D01*
X1053744Y-241339D01*
X1053637Y-241341D01*
X1052664Y-241341D01*
D12*
X1005140Y465900D02*
X992060Y465900D01*
X992060Y440500D02*
X1005140Y440500D01*
X1005140Y415100D02*
X992060Y415100D01*
X992060Y389700D02*
X1005140Y389700D01*
X1005140Y364300D02*
X992060Y364300D01*
X992060Y338900D02*
X1005140Y338900D01*
X1005140Y313500D02*
X992060Y313500D01*
X992060Y288100D02*
X1005140Y288100D01*
X1005140Y262700D02*
X992060Y262700D01*
X992060Y237300D02*
X1005140Y237300D01*
X1005140Y211900D02*
X992060Y211900D01*
X992060Y186500D02*
X1005140Y186500D01*
X1005140Y161100D02*
X992060Y161100D01*
X992060Y135700D02*
X1005140Y135700D01*
X1005140Y110300D02*
X992060Y110300D01*
X992060Y84900D02*
X1005140Y84900D01*
X1005140Y59500D02*
X992060Y59500D01*
X992060Y34100D02*
X1005140Y34100D01*
X1005140Y8700D02*
X992060Y8700D01*
X992060Y-16700D02*
X1005140Y-16700D01*
X1144460Y465900D02*
X1157540Y465900D01*
X1157540Y440500D02*
X1144460Y440500D01*
X1144460Y415100D02*
X1157540Y415100D01*
X1157540Y389700D02*
X1144460Y389700D01*
X1144460Y364300D02*
X1157540Y364300D01*
X1157540Y338900D02*
X1144460Y338900D01*
X1144460Y313500D02*
X1157540Y313500D01*
X1157540Y288100D02*
X1144460Y288100D01*
X1144460Y262700D02*
X1157540Y262700D01*
X1157540Y237300D02*
X1144460Y237300D01*
X1144460Y211900D02*
X1157540Y211900D01*
X1157540Y186500D02*
X1144460Y186500D01*
X1144460Y161100D02*
X1157540Y161100D01*
X1157540Y135700D02*
X1144460Y135700D01*
X1144460Y110300D02*
X1157540Y110300D01*
X1157540Y84900D02*
X1144460Y84900D01*
X1144460Y59500D02*
X1157540Y59500D01*
X1157540Y34100D02*
X1144460Y34100D01*
X1144460Y8700D02*
X1157540Y8700D01*
X1157540Y-16700D02*
X1144460Y-16700D01*
D13*
X1182250Y862800D03*
X1156850Y862800D03*
X1131450Y862800D03*
X1106050Y862800D03*
X1080650Y862800D03*
X1055250Y862800D03*
X1029850Y862800D03*
X1004450Y862800D03*
D14*
X1312000Y755000D03*
X1312000Y785000D03*
X1312000Y870000D03*
X848000Y755000D03*
X848000Y785000D03*
X848000Y870000D03*
D15*
X1010000Y-55600D03*
X1035400Y-55600D03*
X1060800Y-55600D03*
X1086200Y-55600D03*
X1111600Y-55600D03*
X1137000Y-55600D03*
D14*
X913000Y435500D03*
X883000Y435500D03*
X798000Y435500D03*
X1247000Y435500D03*
X1277000Y435500D03*
X1362000Y435500D03*
X848000Y565000D03*
X848000Y595000D03*
X848000Y680000D03*
X1312000Y565000D03*
X1312000Y595000D03*
X1312000Y680000D03*
D16*
X1055250Y-179900D03*
X1055250Y-129100D03*
X1106050Y-179900D03*
X1106050Y-129100D03*
X1080650Y-181500D03*
X1080650Y-127500D03*
D17*
X1106050Y-154500D03*
D14*
X848000Y-85000D03*
X848000Y-115000D03*
X848000Y-200000D03*
X1326000Y-85000D03*
X1326000Y-115000D03*
X1326000Y-200000D03*
D18*
X1281000Y-2930D03*
X1255600Y141850D03*
D19*
X1214960Y72000D03*
X1347040Y72000D03*
D18*
X1306400Y141850D03*
X1255600Y-2930D03*
X1306400Y-2930D03*
X878500Y-2930D03*
X853100Y141850D03*
D19*
X812460Y72000D03*
X944540Y72000D03*
D18*
X903900Y141850D03*
X853100Y-2930D03*
X903900Y-2930D03*
D20*
X854150Y-279800D03*
X841450Y-279800D03*
X1311350Y-279800D03*
X1298650Y-279800D03*
X1311350Y945400D03*
X1298650Y945400D03*
X844150Y945400D03*
X831450Y945400D03*
D14*
X913000Y342000D03*
X883000Y342000D03*
X798000Y342000D03*
X1247000Y341500D03*
X1277000Y341500D03*
X1362000Y341500D03*
D21*
X973836Y-170688D03*
X932688Y640080D03*
X1055370Y643128D03*
X1017270Y643128D03*
X1037082Y733044D03*
X941832Y370332D03*
X1181862Y341376D03*
X1200912Y377190D03*
X1061466Y253746D03*
X963930Y57150D03*
X905256Y400812D03*
X1267968Y-9144D03*
X1267968Y53340D03*
X1037082Y636270D03*
X1008888Y636270D03*
X1170432Y-104394D03*
X1110234Y-104394D03*
X967740Y-88392D03*
X903732Y416814D03*
X845058Y178308D03*
X1194054Y305562D03*
X1106424Y677418D03*
X1031748Y401574D03*
X1108710Y689610D03*
X909828Y554736D03*
X1006602Y736092D03*
X902970Y774954D03*
X1037082Y677418D03*
X1055370Y729234D03*
X1188720Y790194D03*
X810006Y748284D03*
X1137666Y726186D03*
X1290828Y573024D03*
X1016508Y630174D03*
X979932Y414528D03*
X1019556Y401574D03*
X1204722Y420624D03*
X1025652Y726948D03*
X819150Y748284D03*
X1116330Y784860D03*
X985266Y-102108D03*
X936498Y-102108D03*
X1217676Y-160020D03*
X1113282Y697992D03*
X1083564Y586740D03*
X903732Y448818D03*
M02*
