G04 EAGLE Gerber RS-274X export*
G75*
%MOMM*%
%FSLAX34Y34*%
%LPD*%
%INTop Paste*%
%IPPOS*%
%AMOC8*
5,1,8,0,0,1.08239X$1,22.5*%
G01*
%ADD10R,1.300000X1.500000*%
%ADD11R,2.540000X2.540000*%
%ADD12R,1.600000X3.000000*%
%ADD13C,0.500000*%
%ADD14R,5.400000X6.200000*%
%ADD15R,1.000000X1.600000*%
%ADD16R,0.600000X2.200000*%
%ADD17R,1.300000X1.600000*%
%ADD18R,1.320800X0.558800*%
%ADD19R,1.320800X0.508000*%
%ADD20R,1.000000X1.400000*%


D10*
X921700Y575900D03*
X940700Y575900D03*
X925200Y384300D03*
X944200Y384300D03*
X1228200Y513900D03*
X1247200Y513900D03*
X1224000Y549900D03*
X1243000Y549900D03*
D11*
X1246795Y-69400D03*
X1199805Y-69400D03*
D12*
X934000Y313700D03*
X934000Y269700D03*
D13*
X1236100Y200010D02*
X1236100Y163510D01*
X1231100Y163510D01*
X1231100Y200010D01*
X1236100Y200010D01*
X1236100Y168260D02*
X1231100Y168260D01*
X1231100Y173010D02*
X1236100Y173010D01*
X1236100Y177760D02*
X1231100Y177760D01*
X1231100Y182510D02*
X1236100Y182510D01*
X1236100Y187260D02*
X1231100Y187260D01*
X1231100Y192010D02*
X1236100Y192010D01*
X1236100Y196760D02*
X1231100Y196760D01*
X1236100Y219390D02*
X1236100Y255890D01*
X1236100Y219390D02*
X1231100Y219390D01*
X1231100Y255890D01*
X1236100Y255890D01*
X1236100Y224140D02*
X1231100Y224140D01*
X1231100Y228890D02*
X1236100Y228890D01*
X1236100Y233640D02*
X1231100Y233640D01*
X1231100Y238390D02*
X1236100Y238390D01*
X1236100Y243140D02*
X1231100Y243140D01*
X1231100Y247890D02*
X1236100Y247890D01*
X1236100Y252640D02*
X1231100Y252640D01*
X1261500Y200010D02*
X1261500Y163510D01*
X1256500Y163510D01*
X1256500Y200010D01*
X1261500Y200010D01*
X1261500Y168260D02*
X1256500Y168260D01*
X1256500Y173010D02*
X1261500Y173010D01*
X1261500Y177760D02*
X1256500Y177760D01*
X1256500Y182510D02*
X1261500Y182510D01*
X1261500Y187260D02*
X1256500Y187260D01*
X1256500Y192010D02*
X1261500Y192010D01*
X1261500Y196760D02*
X1256500Y196760D01*
X1261500Y219390D02*
X1261500Y255890D01*
X1261500Y219390D02*
X1256500Y219390D01*
X1256500Y255890D01*
X1261500Y255890D01*
X1261500Y224140D02*
X1256500Y224140D01*
X1256500Y228890D02*
X1261500Y228890D01*
X1261500Y233640D02*
X1256500Y233640D01*
X1256500Y238390D02*
X1261500Y238390D01*
X1261500Y243140D02*
X1256500Y243140D01*
X1256500Y247890D02*
X1261500Y247890D01*
X1261500Y252640D02*
X1256500Y252640D01*
X1286900Y200010D02*
X1286900Y163510D01*
X1281900Y163510D01*
X1281900Y200010D01*
X1286900Y200010D01*
X1286900Y168260D02*
X1281900Y168260D01*
X1281900Y173010D02*
X1286900Y173010D01*
X1286900Y177760D02*
X1281900Y177760D01*
X1281900Y182510D02*
X1286900Y182510D01*
X1286900Y187260D02*
X1281900Y187260D01*
X1281900Y192010D02*
X1286900Y192010D01*
X1286900Y196760D02*
X1281900Y196760D01*
X1286900Y219390D02*
X1286900Y255890D01*
X1286900Y219390D02*
X1281900Y219390D01*
X1281900Y255890D01*
X1286900Y255890D01*
X1286900Y224140D02*
X1281900Y224140D01*
X1281900Y228890D02*
X1286900Y228890D01*
X1286900Y233640D02*
X1281900Y233640D01*
X1281900Y238390D02*
X1286900Y238390D01*
X1286900Y243140D02*
X1281900Y243140D01*
X1281900Y247890D02*
X1286900Y247890D01*
X1286900Y252640D02*
X1281900Y252640D01*
X1312300Y200010D02*
X1312300Y163510D01*
X1307300Y163510D01*
X1307300Y200010D01*
X1312300Y200010D01*
X1312300Y168260D02*
X1307300Y168260D01*
X1307300Y173010D02*
X1312300Y173010D01*
X1312300Y177760D02*
X1307300Y177760D01*
X1307300Y182510D02*
X1312300Y182510D01*
X1312300Y187260D02*
X1307300Y187260D01*
X1307300Y192010D02*
X1312300Y192010D01*
X1312300Y196760D02*
X1307300Y196760D01*
X1312300Y219390D02*
X1312300Y255890D01*
X1312300Y219390D02*
X1307300Y219390D01*
X1307300Y255890D01*
X1312300Y255890D01*
X1312300Y224140D02*
X1307300Y224140D01*
X1307300Y228890D02*
X1312300Y228890D01*
X1312300Y233640D02*
X1307300Y233640D01*
X1307300Y238390D02*
X1312300Y238390D01*
X1312300Y243140D02*
X1307300Y243140D01*
X1307300Y247890D02*
X1312300Y247890D01*
X1312300Y252640D02*
X1307300Y252640D01*
X1337700Y200010D02*
X1337700Y163510D01*
X1332700Y163510D01*
X1332700Y200010D01*
X1337700Y200010D01*
X1337700Y168260D02*
X1332700Y168260D01*
X1332700Y173010D02*
X1337700Y173010D01*
X1337700Y177760D02*
X1332700Y177760D01*
X1332700Y182510D02*
X1337700Y182510D01*
X1337700Y187260D02*
X1332700Y187260D01*
X1332700Y192010D02*
X1337700Y192010D01*
X1337700Y196760D02*
X1332700Y196760D01*
X1337700Y219390D02*
X1337700Y255890D01*
X1337700Y219390D02*
X1332700Y219390D01*
X1332700Y255890D01*
X1337700Y255890D01*
X1337700Y224140D02*
X1332700Y224140D01*
X1332700Y228890D02*
X1337700Y228890D01*
X1337700Y233640D02*
X1332700Y233640D01*
X1332700Y238390D02*
X1337700Y238390D01*
X1337700Y243140D02*
X1332700Y243140D01*
X1332700Y247890D02*
X1337700Y247890D01*
X1337700Y252640D02*
X1332700Y252640D01*
D12*
X935500Y228300D03*
X935500Y184300D03*
D14*
X833200Y240900D03*
D15*
X810400Y167900D03*
X856000Y167900D03*
D16*
X1124900Y709800D03*
X1137600Y709800D03*
X1150300Y709800D03*
X1163000Y709800D03*
X1175700Y709800D03*
X1188400Y709800D03*
X1201100Y709800D03*
X1201100Y761800D03*
X1188400Y761800D03*
X1175700Y761800D03*
X1163000Y761800D03*
X1150300Y761800D03*
X1137600Y761800D03*
X1124900Y761800D03*
D17*
X997900Y524600D03*
X1017900Y524600D03*
D16*
X985600Y606800D03*
X998300Y606800D03*
X1011000Y606800D03*
X1023700Y606800D03*
X1036400Y606800D03*
X1049100Y606800D03*
X1061800Y606800D03*
X1061800Y658800D03*
X1049100Y658800D03*
X1036400Y658800D03*
X1023700Y658800D03*
X1011000Y658800D03*
X998300Y658800D03*
X985600Y658800D03*
D17*
X1164500Y527100D03*
X1184500Y527100D03*
X1088700Y523100D03*
X1108700Y523100D03*
D18*
X1112378Y635098D03*
X1112378Y616302D03*
D19*
X1134222Y625700D03*
D10*
X1088400Y561800D03*
X1107400Y561800D03*
D16*
X999400Y707500D03*
X1012100Y707500D03*
X1024800Y707500D03*
X1037500Y707500D03*
X1050200Y707500D03*
X1062900Y707500D03*
X1075600Y707500D03*
X1075600Y759500D03*
X1062900Y759500D03*
X1050200Y759500D03*
X1037500Y759500D03*
X1024800Y759500D03*
X1012100Y759500D03*
X999400Y759500D03*
D17*
X922000Y820500D03*
X942000Y820500D03*
D10*
X1002000Y-98000D03*
X1021000Y-98000D03*
X870500Y99500D03*
X889500Y99500D03*
D20*
X1005500Y-154500D03*
X1024500Y-154500D03*
X1015000Y-132500D03*
D10*
X923000Y-89000D03*
X942000Y-89000D03*
X923000Y-143500D03*
X942000Y-143500D03*
X963000Y-183500D03*
X982000Y-183500D03*
D20*
X1223500Y-185500D03*
X1242500Y-185500D03*
X1233000Y-163500D03*
D10*
X1164500Y-117500D03*
X1183500Y-117500D03*
X1165500Y-159500D03*
X1184500Y-159500D03*
X1165500Y-202500D03*
X1184500Y-202500D03*
X1342000Y-41000D03*
X1361000Y-41000D03*
X1274500Y96500D03*
X1293500Y96500D03*
X1201500Y13500D03*
X1220500Y13500D03*
X803000Y120500D03*
X822000Y120500D03*
X804000Y7500D03*
X823000Y7500D03*
X935500Y136500D03*
X954500Y136500D03*
X1211000Y281000D03*
X1230000Y281000D03*
X1199500Y466000D03*
X1218500Y466000D03*
X1202000Y360500D03*
X1221000Y360500D03*
X1201500Y403000D03*
X1220500Y403000D03*
X923000Y786000D03*
X942000Y786000D03*
X924000Y747000D03*
X943000Y747000D03*
X923000Y709500D03*
X942000Y709500D03*
X921500Y660000D03*
X940500Y660000D03*
X920500Y615500D03*
X939500Y615500D03*
M02*
