G04 EAGLE Gerber RS-274X export*
G75*
%MOMM*%
%FSLAX34Y34*%
%LPD*%
%INBottom Copper*%
%IPPOS*%
%AMOC8*
5,1,8,0,0,1.08239X$1,22.5*%
G01*
%ADD10C,0.431800*%
%ADD11C,0.533400*%
%ADD12C,1.308000*%
%ADD13C,1.676400*%
%ADD14C,1.650000*%
%ADD15C,1.879600*%
%ADD16C,1.508000*%
%ADD17C,1.524000*%
%ADD18C,3.302000*%
%ADD19C,0.609600*%
%ADD20C,0.756400*%
%ADD21C,0.152400*%


D10*
X912841Y-31315D02*
X912841Y-48841D01*
X905052Y-48841D01*
X894796Y-48841D02*
X889928Y-48841D01*
X894796Y-48841D02*
X894903Y-48839D01*
X895009Y-48833D01*
X895115Y-48823D01*
X895221Y-48810D01*
X895327Y-48792D01*
X895431Y-48771D01*
X895535Y-48746D01*
X895638Y-48717D01*
X895739Y-48685D01*
X895839Y-48648D01*
X895938Y-48608D01*
X896036Y-48565D01*
X896132Y-48518D01*
X896226Y-48467D01*
X896318Y-48413D01*
X896408Y-48356D01*
X896496Y-48296D01*
X896581Y-48232D01*
X896664Y-48165D01*
X896745Y-48095D01*
X896823Y-48023D01*
X896899Y-47947D01*
X896971Y-47869D01*
X897041Y-47788D01*
X897108Y-47705D01*
X897172Y-47620D01*
X897232Y-47532D01*
X897289Y-47442D01*
X897343Y-47350D01*
X897394Y-47256D01*
X897441Y-47160D01*
X897484Y-47062D01*
X897524Y-46963D01*
X897561Y-46863D01*
X897593Y-46762D01*
X897622Y-46659D01*
X897647Y-46555D01*
X897668Y-46451D01*
X897686Y-46345D01*
X897699Y-46239D01*
X897709Y-46133D01*
X897715Y-46027D01*
X897717Y-45920D01*
X897717Y-41052D01*
X897715Y-40928D01*
X897709Y-40805D01*
X897699Y-40682D01*
X897686Y-40559D01*
X897668Y-40437D01*
X897647Y-40315D01*
X897621Y-40194D01*
X897592Y-40074D01*
X897559Y-39955D01*
X897523Y-39837D01*
X897482Y-39720D01*
X897438Y-39604D01*
X897390Y-39490D01*
X897339Y-39378D01*
X897284Y-39267D01*
X897226Y-39158D01*
X897164Y-39051D01*
X897099Y-38946D01*
X897030Y-38843D01*
X896959Y-38743D01*
X896884Y-38644D01*
X896806Y-38548D01*
X896725Y-38455D01*
X896641Y-38364D01*
X896554Y-38276D01*
X896465Y-38191D01*
X896373Y-38108D01*
X896278Y-38029D01*
X896181Y-37953D01*
X896081Y-37879D01*
X895980Y-37809D01*
X895876Y-37742D01*
X895770Y-37679D01*
X895661Y-37619D01*
X895552Y-37562D01*
X895440Y-37509D01*
X895327Y-37459D01*
X895212Y-37413D01*
X895096Y-37371D01*
X894979Y-37333D01*
X894860Y-37298D01*
X894740Y-37267D01*
X894620Y-37240D01*
X894498Y-37216D01*
X894376Y-37197D01*
X894254Y-37181D01*
X894131Y-37169D01*
X894007Y-37161D01*
X893884Y-37157D01*
X893760Y-37157D01*
X893637Y-37161D01*
X893513Y-37169D01*
X893390Y-37181D01*
X893268Y-37197D01*
X893146Y-37216D01*
X893024Y-37240D01*
X892904Y-37267D01*
X892784Y-37298D01*
X892665Y-37333D01*
X892548Y-37371D01*
X892432Y-37413D01*
X892317Y-37459D01*
X892204Y-37509D01*
X892092Y-37562D01*
X891983Y-37619D01*
X891875Y-37679D01*
X891768Y-37742D01*
X891664Y-37809D01*
X891563Y-37879D01*
X891463Y-37953D01*
X891366Y-38029D01*
X891271Y-38108D01*
X891179Y-38191D01*
X891090Y-38276D01*
X891003Y-38364D01*
X890919Y-38455D01*
X890838Y-38548D01*
X890760Y-38644D01*
X890685Y-38743D01*
X890614Y-38843D01*
X890545Y-38946D01*
X890480Y-39051D01*
X890418Y-39158D01*
X890360Y-39267D01*
X890305Y-39378D01*
X890254Y-39490D01*
X890206Y-39604D01*
X890162Y-39720D01*
X890121Y-39837D01*
X890085Y-39955D01*
X890052Y-40074D01*
X890023Y-40194D01*
X889997Y-40315D01*
X889976Y-40437D01*
X889958Y-40559D01*
X889945Y-40682D01*
X889935Y-40805D01*
X889929Y-40928D01*
X889927Y-41052D01*
X889928Y-41052D02*
X889928Y-42999D01*
X897717Y-42999D01*
X881032Y-48841D02*
X881032Y-37157D01*
X876164Y-37157D01*
X876057Y-37159D01*
X875951Y-37165D01*
X875845Y-37175D01*
X875739Y-37188D01*
X875633Y-37206D01*
X875529Y-37227D01*
X875425Y-37252D01*
X875322Y-37281D01*
X875221Y-37313D01*
X875121Y-37350D01*
X875022Y-37390D01*
X874924Y-37433D01*
X874828Y-37480D01*
X874734Y-37531D01*
X874642Y-37585D01*
X874552Y-37642D01*
X874464Y-37702D01*
X874379Y-37766D01*
X874296Y-37833D01*
X874215Y-37903D01*
X874137Y-37975D01*
X874061Y-38051D01*
X873989Y-38129D01*
X873919Y-38210D01*
X873852Y-38293D01*
X873788Y-38378D01*
X873728Y-38466D01*
X873671Y-38556D01*
X873617Y-38648D01*
X873566Y-38742D01*
X873519Y-38838D01*
X873476Y-38936D01*
X873436Y-39035D01*
X873399Y-39135D01*
X873367Y-39236D01*
X873338Y-39339D01*
X873313Y-39443D01*
X873292Y-39547D01*
X873274Y-39653D01*
X873261Y-39759D01*
X873251Y-39865D01*
X873245Y-39971D01*
X873243Y-40078D01*
X873243Y-48841D01*
X861567Y-48841D02*
X856699Y-48841D01*
X861567Y-48841D02*
X861674Y-48839D01*
X861780Y-48833D01*
X861886Y-48823D01*
X861992Y-48810D01*
X862098Y-48792D01*
X862202Y-48771D01*
X862306Y-48746D01*
X862409Y-48717D01*
X862510Y-48685D01*
X862610Y-48648D01*
X862709Y-48608D01*
X862807Y-48565D01*
X862903Y-48518D01*
X862997Y-48467D01*
X863089Y-48413D01*
X863179Y-48356D01*
X863267Y-48296D01*
X863352Y-48232D01*
X863435Y-48165D01*
X863516Y-48095D01*
X863594Y-48023D01*
X863670Y-47947D01*
X863742Y-47869D01*
X863812Y-47788D01*
X863879Y-47705D01*
X863943Y-47620D01*
X864003Y-47532D01*
X864060Y-47442D01*
X864114Y-47350D01*
X864165Y-47256D01*
X864212Y-47160D01*
X864255Y-47062D01*
X864295Y-46963D01*
X864332Y-46863D01*
X864364Y-46762D01*
X864393Y-46659D01*
X864418Y-46555D01*
X864439Y-46451D01*
X864457Y-46345D01*
X864470Y-46239D01*
X864480Y-46133D01*
X864486Y-46027D01*
X864488Y-45920D01*
X864488Y-40078D01*
X864486Y-39971D01*
X864480Y-39865D01*
X864470Y-39759D01*
X864457Y-39653D01*
X864439Y-39547D01*
X864418Y-39443D01*
X864393Y-39339D01*
X864364Y-39236D01*
X864332Y-39135D01*
X864295Y-39035D01*
X864255Y-38936D01*
X864212Y-38838D01*
X864165Y-38742D01*
X864114Y-38648D01*
X864060Y-38556D01*
X864003Y-38466D01*
X863943Y-38378D01*
X863879Y-38293D01*
X863812Y-38210D01*
X863742Y-38129D01*
X863670Y-38051D01*
X863594Y-37975D01*
X863516Y-37903D01*
X863435Y-37833D01*
X863352Y-37766D01*
X863267Y-37702D01*
X863179Y-37642D01*
X863089Y-37585D01*
X862997Y-37531D01*
X862903Y-37480D01*
X862807Y-37433D01*
X862709Y-37390D01*
X862610Y-37350D01*
X862510Y-37313D01*
X862409Y-37281D01*
X862306Y-37252D01*
X862202Y-37227D01*
X862098Y-37206D01*
X861992Y-37188D01*
X861886Y-37175D01*
X861780Y-37165D01*
X861674Y-37159D01*
X861567Y-37157D01*
X856699Y-37157D01*
X856699Y-51762D01*
X856701Y-51869D01*
X856707Y-51975D01*
X856717Y-52081D01*
X856730Y-52187D01*
X856748Y-52293D01*
X856769Y-52397D01*
X856794Y-52501D01*
X856823Y-52604D01*
X856855Y-52705D01*
X856892Y-52805D01*
X856932Y-52904D01*
X856975Y-53002D01*
X857022Y-53098D01*
X857073Y-53192D01*
X857127Y-53284D01*
X857184Y-53374D01*
X857244Y-53462D01*
X857308Y-53547D01*
X857375Y-53630D01*
X857445Y-53711D01*
X857517Y-53789D01*
X857593Y-53865D01*
X857671Y-53937D01*
X857752Y-54007D01*
X857835Y-54074D01*
X857920Y-54138D01*
X858008Y-54198D01*
X858098Y-54255D01*
X858190Y-54309D01*
X858284Y-54360D01*
X858380Y-54407D01*
X858478Y-54450D01*
X858577Y-54490D01*
X858677Y-54527D01*
X858778Y-54559D01*
X858881Y-54588D01*
X858985Y-54613D01*
X859089Y-54634D01*
X859195Y-54652D01*
X859301Y-54665D01*
X859407Y-54675D01*
X859513Y-54681D01*
X859620Y-54683D01*
X863515Y-54683D01*
X849389Y-37157D02*
X843547Y-37157D01*
X847441Y-31315D02*
X847441Y-45920D01*
X847439Y-46027D01*
X847433Y-46133D01*
X847423Y-46239D01*
X847410Y-46345D01*
X847392Y-46451D01*
X847371Y-46555D01*
X847346Y-46659D01*
X847317Y-46762D01*
X847285Y-46863D01*
X847248Y-46963D01*
X847208Y-47062D01*
X847165Y-47160D01*
X847118Y-47256D01*
X847067Y-47350D01*
X847013Y-47442D01*
X846956Y-47532D01*
X846896Y-47620D01*
X846832Y-47705D01*
X846765Y-47788D01*
X846695Y-47869D01*
X846623Y-47947D01*
X846547Y-48023D01*
X846469Y-48095D01*
X846388Y-48165D01*
X846305Y-48232D01*
X846220Y-48296D01*
X846132Y-48356D01*
X846042Y-48413D01*
X845950Y-48467D01*
X845856Y-48518D01*
X845760Y-48565D01*
X845662Y-48608D01*
X845563Y-48648D01*
X845463Y-48685D01*
X845362Y-48717D01*
X845259Y-48746D01*
X845155Y-48771D01*
X845051Y-48792D01*
X844945Y-48810D01*
X844839Y-48823D01*
X844733Y-48833D01*
X844627Y-48839D01*
X844520Y-48841D01*
X843547Y-48841D01*
X835305Y-48841D02*
X835305Y-31315D01*
X835305Y-37157D02*
X830436Y-37157D01*
X830329Y-37159D01*
X830223Y-37165D01*
X830117Y-37175D01*
X830011Y-37188D01*
X829905Y-37206D01*
X829801Y-37227D01*
X829697Y-37252D01*
X829594Y-37281D01*
X829493Y-37313D01*
X829393Y-37350D01*
X829294Y-37390D01*
X829196Y-37433D01*
X829100Y-37480D01*
X829006Y-37531D01*
X828914Y-37585D01*
X828824Y-37642D01*
X828736Y-37702D01*
X828651Y-37766D01*
X828568Y-37833D01*
X828487Y-37903D01*
X828409Y-37975D01*
X828333Y-38051D01*
X828261Y-38129D01*
X828191Y-38210D01*
X828124Y-38293D01*
X828060Y-38378D01*
X828000Y-38466D01*
X827943Y-38556D01*
X827889Y-38648D01*
X827838Y-38742D01*
X827791Y-38838D01*
X827748Y-38936D01*
X827708Y-39035D01*
X827671Y-39135D01*
X827639Y-39236D01*
X827610Y-39339D01*
X827585Y-39443D01*
X827564Y-39547D01*
X827546Y-39653D01*
X827533Y-39759D01*
X827523Y-39865D01*
X827517Y-39971D01*
X827515Y-40078D01*
X827515Y-48841D01*
X912841Y-48841D02*
X912841Y-31315D01*
X912841Y-48841D02*
X905052Y-48841D01*
X894796Y-48841D02*
X889928Y-48841D01*
X894796Y-48841D02*
X894903Y-48839D01*
X895009Y-48833D01*
X895115Y-48823D01*
X895221Y-48810D01*
X895327Y-48792D01*
X895431Y-48771D01*
X895535Y-48746D01*
X895638Y-48717D01*
X895739Y-48685D01*
X895839Y-48648D01*
X895938Y-48608D01*
X896036Y-48565D01*
X896132Y-48518D01*
X896226Y-48467D01*
X896318Y-48413D01*
X896408Y-48356D01*
X896496Y-48296D01*
X896581Y-48232D01*
X896664Y-48165D01*
X896745Y-48095D01*
X896823Y-48023D01*
X896899Y-47947D01*
X896971Y-47869D01*
X897041Y-47788D01*
X897108Y-47705D01*
X897172Y-47620D01*
X897232Y-47532D01*
X897289Y-47442D01*
X897343Y-47350D01*
X897394Y-47256D01*
X897441Y-47160D01*
X897484Y-47062D01*
X897524Y-46963D01*
X897561Y-46863D01*
X897593Y-46762D01*
X897622Y-46659D01*
X897647Y-46555D01*
X897668Y-46451D01*
X897686Y-46345D01*
X897699Y-46239D01*
X897709Y-46133D01*
X897715Y-46027D01*
X897717Y-45920D01*
X897717Y-41052D01*
X897715Y-40928D01*
X897709Y-40805D01*
X897699Y-40682D01*
X897686Y-40559D01*
X897668Y-40437D01*
X897647Y-40315D01*
X897621Y-40194D01*
X897592Y-40074D01*
X897559Y-39955D01*
X897523Y-39837D01*
X897482Y-39720D01*
X897438Y-39604D01*
X897390Y-39490D01*
X897339Y-39378D01*
X897284Y-39267D01*
X897226Y-39158D01*
X897164Y-39051D01*
X897099Y-38946D01*
X897030Y-38843D01*
X896959Y-38743D01*
X896884Y-38644D01*
X896806Y-38548D01*
X896725Y-38455D01*
X896641Y-38364D01*
X896554Y-38276D01*
X896465Y-38191D01*
X896373Y-38108D01*
X896278Y-38029D01*
X896181Y-37953D01*
X896081Y-37879D01*
X895980Y-37809D01*
X895876Y-37742D01*
X895770Y-37679D01*
X895661Y-37619D01*
X895552Y-37562D01*
X895440Y-37509D01*
X895327Y-37459D01*
X895212Y-37413D01*
X895096Y-37371D01*
X894979Y-37333D01*
X894860Y-37298D01*
X894740Y-37267D01*
X894620Y-37240D01*
X894498Y-37216D01*
X894376Y-37197D01*
X894254Y-37181D01*
X894131Y-37169D01*
X894007Y-37161D01*
X893884Y-37157D01*
X893760Y-37157D01*
X893637Y-37161D01*
X893513Y-37169D01*
X893390Y-37181D01*
X893268Y-37197D01*
X893146Y-37216D01*
X893024Y-37240D01*
X892904Y-37267D01*
X892784Y-37298D01*
X892665Y-37333D01*
X892548Y-37371D01*
X892432Y-37413D01*
X892317Y-37459D01*
X892204Y-37509D01*
X892092Y-37562D01*
X891983Y-37619D01*
X891875Y-37679D01*
X891768Y-37742D01*
X891664Y-37809D01*
X891563Y-37879D01*
X891463Y-37953D01*
X891366Y-38029D01*
X891271Y-38108D01*
X891179Y-38191D01*
X891090Y-38276D01*
X891003Y-38364D01*
X890919Y-38455D01*
X890838Y-38548D01*
X890760Y-38644D01*
X890685Y-38743D01*
X890614Y-38843D01*
X890545Y-38946D01*
X890480Y-39051D01*
X890418Y-39158D01*
X890360Y-39267D01*
X890305Y-39378D01*
X890254Y-39490D01*
X890206Y-39604D01*
X890162Y-39720D01*
X890121Y-39837D01*
X890085Y-39955D01*
X890052Y-40074D01*
X890023Y-40194D01*
X889997Y-40315D01*
X889976Y-40437D01*
X889958Y-40559D01*
X889945Y-40682D01*
X889935Y-40805D01*
X889929Y-40928D01*
X889927Y-41052D01*
X889928Y-41052D02*
X889928Y-42999D01*
X897717Y-42999D01*
X881032Y-48841D02*
X881032Y-37157D01*
X876164Y-37157D01*
X876057Y-37159D01*
X875951Y-37165D01*
X875845Y-37175D01*
X875739Y-37188D01*
X875633Y-37206D01*
X875529Y-37227D01*
X875425Y-37252D01*
X875322Y-37281D01*
X875221Y-37313D01*
X875121Y-37350D01*
X875022Y-37390D01*
X874924Y-37433D01*
X874828Y-37480D01*
X874734Y-37531D01*
X874642Y-37585D01*
X874552Y-37642D01*
X874464Y-37702D01*
X874379Y-37766D01*
X874296Y-37833D01*
X874215Y-37903D01*
X874137Y-37975D01*
X874061Y-38051D01*
X873989Y-38129D01*
X873919Y-38210D01*
X873852Y-38293D01*
X873788Y-38378D01*
X873728Y-38466D01*
X873671Y-38556D01*
X873617Y-38648D01*
X873566Y-38742D01*
X873519Y-38838D01*
X873476Y-38936D01*
X873436Y-39035D01*
X873399Y-39135D01*
X873367Y-39236D01*
X873338Y-39339D01*
X873313Y-39443D01*
X873292Y-39547D01*
X873274Y-39653D01*
X873261Y-39759D01*
X873251Y-39865D01*
X873245Y-39971D01*
X873243Y-40078D01*
X873243Y-48841D01*
X861567Y-48841D02*
X856699Y-48841D01*
X861567Y-48841D02*
X861674Y-48839D01*
X861780Y-48833D01*
X861886Y-48823D01*
X861992Y-48810D01*
X862098Y-48792D01*
X862202Y-48771D01*
X862306Y-48746D01*
X862409Y-48717D01*
X862510Y-48685D01*
X862610Y-48648D01*
X862709Y-48608D01*
X862807Y-48565D01*
X862903Y-48518D01*
X862997Y-48467D01*
X863089Y-48413D01*
X863179Y-48356D01*
X863267Y-48296D01*
X863352Y-48232D01*
X863435Y-48165D01*
X863516Y-48095D01*
X863594Y-48023D01*
X863670Y-47947D01*
X863742Y-47869D01*
X863812Y-47788D01*
X863879Y-47705D01*
X863943Y-47620D01*
X864003Y-47532D01*
X864060Y-47442D01*
X864114Y-47350D01*
X864165Y-47256D01*
X864212Y-47160D01*
X864255Y-47062D01*
X864295Y-46963D01*
X864332Y-46863D01*
X864364Y-46762D01*
X864393Y-46659D01*
X864418Y-46555D01*
X864439Y-46451D01*
X864457Y-46345D01*
X864470Y-46239D01*
X864480Y-46133D01*
X864486Y-46027D01*
X864488Y-45920D01*
X864488Y-40078D01*
X864486Y-39971D01*
X864480Y-39865D01*
X864470Y-39759D01*
X864457Y-39653D01*
X864439Y-39547D01*
X864418Y-39443D01*
X864393Y-39339D01*
X864364Y-39236D01*
X864332Y-39135D01*
X864295Y-39035D01*
X864255Y-38936D01*
X864212Y-38838D01*
X864165Y-38742D01*
X864114Y-38648D01*
X864060Y-38556D01*
X864003Y-38466D01*
X863943Y-38378D01*
X863879Y-38293D01*
X863812Y-38210D01*
X863742Y-38129D01*
X863670Y-38051D01*
X863594Y-37975D01*
X863516Y-37903D01*
X863435Y-37833D01*
X863352Y-37766D01*
X863267Y-37702D01*
X863179Y-37642D01*
X863089Y-37585D01*
X862997Y-37531D01*
X862903Y-37480D01*
X862807Y-37433D01*
X862709Y-37390D01*
X862610Y-37350D01*
X862510Y-37313D01*
X862409Y-37281D01*
X862306Y-37252D01*
X862202Y-37227D01*
X862098Y-37206D01*
X861992Y-37188D01*
X861886Y-37175D01*
X861780Y-37165D01*
X861674Y-37159D01*
X861567Y-37157D01*
X856699Y-37157D01*
X856699Y-51762D01*
X856701Y-51869D01*
X856707Y-51975D01*
X856717Y-52081D01*
X856730Y-52187D01*
X856748Y-52293D01*
X856769Y-52397D01*
X856794Y-52501D01*
X856823Y-52604D01*
X856855Y-52705D01*
X856892Y-52805D01*
X856932Y-52904D01*
X856975Y-53002D01*
X857022Y-53098D01*
X857073Y-53192D01*
X857127Y-53284D01*
X857184Y-53374D01*
X857244Y-53462D01*
X857308Y-53547D01*
X857375Y-53630D01*
X857445Y-53711D01*
X857517Y-53789D01*
X857593Y-53865D01*
X857671Y-53937D01*
X857752Y-54007D01*
X857835Y-54074D01*
X857920Y-54138D01*
X858008Y-54198D01*
X858098Y-54255D01*
X858190Y-54309D01*
X858284Y-54360D01*
X858380Y-54407D01*
X858478Y-54450D01*
X858577Y-54490D01*
X858677Y-54527D01*
X858778Y-54559D01*
X858881Y-54588D01*
X858985Y-54613D01*
X859089Y-54634D01*
X859195Y-54652D01*
X859301Y-54665D01*
X859407Y-54675D01*
X859513Y-54681D01*
X859620Y-54683D01*
X863515Y-54683D01*
X849389Y-37157D02*
X843547Y-37157D01*
X847441Y-31315D02*
X847441Y-45920D01*
X847439Y-46027D01*
X847433Y-46133D01*
X847423Y-46239D01*
X847410Y-46345D01*
X847392Y-46451D01*
X847371Y-46555D01*
X847346Y-46659D01*
X847317Y-46762D01*
X847285Y-46863D01*
X847248Y-46963D01*
X847208Y-47062D01*
X847165Y-47160D01*
X847118Y-47256D01*
X847067Y-47350D01*
X847013Y-47442D01*
X846956Y-47532D01*
X846896Y-47620D01*
X846832Y-47705D01*
X846765Y-47788D01*
X846695Y-47869D01*
X846623Y-47947D01*
X846547Y-48023D01*
X846469Y-48095D01*
X846388Y-48165D01*
X846305Y-48232D01*
X846220Y-48296D01*
X846132Y-48356D01*
X846042Y-48413D01*
X845950Y-48467D01*
X845856Y-48518D01*
X845760Y-48565D01*
X845662Y-48608D01*
X845563Y-48648D01*
X845463Y-48685D01*
X845362Y-48717D01*
X845259Y-48746D01*
X845155Y-48771D01*
X845051Y-48792D01*
X844945Y-48810D01*
X844839Y-48823D01*
X844733Y-48833D01*
X844627Y-48839D01*
X844520Y-48841D01*
X843547Y-48841D01*
X835305Y-48841D02*
X835305Y-31315D01*
X835305Y-37157D02*
X830436Y-37157D01*
X830329Y-37159D01*
X830223Y-37165D01*
X830117Y-37175D01*
X830011Y-37188D01*
X829905Y-37206D01*
X829801Y-37227D01*
X829697Y-37252D01*
X829594Y-37281D01*
X829493Y-37313D01*
X829393Y-37350D01*
X829294Y-37390D01*
X829196Y-37433D01*
X829100Y-37480D01*
X829006Y-37531D01*
X828914Y-37585D01*
X828824Y-37642D01*
X828736Y-37702D01*
X828651Y-37766D01*
X828568Y-37833D01*
X828487Y-37903D01*
X828409Y-37975D01*
X828333Y-38051D01*
X828261Y-38129D01*
X828191Y-38210D01*
X828124Y-38293D01*
X828060Y-38378D01*
X828000Y-38466D01*
X827943Y-38556D01*
X827889Y-38648D01*
X827838Y-38742D01*
X827791Y-38838D01*
X827748Y-38936D01*
X827708Y-39035D01*
X827671Y-39135D01*
X827639Y-39236D01*
X827610Y-39339D01*
X827585Y-39443D01*
X827564Y-39547D01*
X827546Y-39653D01*
X827533Y-39759D01*
X827523Y-39865D01*
X827517Y-39971D01*
X827515Y-40078D01*
X827515Y-48841D01*
D11*
X1166833Y931667D02*
X1159611Y953333D01*
X1152389Y931667D01*
X1154195Y937084D02*
X1165028Y937084D01*
X1131112Y931667D02*
X1131112Y953333D01*
X1123890Y941296D01*
X1116668Y953333D01*
X1116668Y931667D01*
X1106394Y931667D02*
X1106394Y946111D01*
X1106996Y952129D02*
X1106996Y953333D01*
X1105792Y953333D01*
X1105792Y952129D01*
X1106996Y952129D01*
X1096629Y946111D02*
X1096629Y931667D01*
X1096629Y946111D02*
X1090611Y946111D01*
X1090493Y946109D01*
X1090375Y946103D01*
X1090257Y946094D01*
X1090140Y946080D01*
X1090023Y946063D01*
X1089907Y946042D01*
X1089791Y946017D01*
X1089676Y945988D01*
X1089563Y945956D01*
X1089450Y945919D01*
X1089339Y945880D01*
X1089229Y945836D01*
X1089121Y945789D01*
X1089014Y945739D01*
X1088909Y945685D01*
X1088806Y945627D01*
X1088704Y945566D01*
X1088605Y945502D01*
X1088508Y945435D01*
X1088413Y945365D01*
X1088320Y945291D01*
X1088230Y945215D01*
X1088143Y945136D01*
X1088058Y945053D01*
X1087975Y944968D01*
X1087896Y944881D01*
X1087820Y944791D01*
X1087746Y944698D01*
X1087676Y944603D01*
X1087609Y944506D01*
X1087545Y944407D01*
X1087484Y944306D01*
X1087426Y944202D01*
X1087372Y944097D01*
X1087322Y943990D01*
X1087275Y943882D01*
X1087231Y943772D01*
X1087192Y943661D01*
X1087155Y943548D01*
X1087123Y943435D01*
X1087094Y943320D01*
X1087069Y943204D01*
X1087048Y943088D01*
X1087031Y942971D01*
X1087017Y942854D01*
X1087008Y942736D01*
X1087002Y942618D01*
X1087000Y942500D01*
X1087000Y931667D01*
X1073335Y931667D02*
X1067317Y931667D01*
X1073335Y931667D02*
X1073453Y931669D01*
X1073571Y931675D01*
X1073689Y931684D01*
X1073806Y931698D01*
X1073923Y931715D01*
X1074039Y931736D01*
X1074155Y931761D01*
X1074270Y931790D01*
X1074383Y931822D01*
X1074496Y931859D01*
X1074607Y931898D01*
X1074717Y931942D01*
X1074825Y931989D01*
X1074932Y932039D01*
X1075037Y932093D01*
X1075141Y932151D01*
X1075242Y932212D01*
X1075341Y932276D01*
X1075438Y932343D01*
X1075533Y932413D01*
X1075626Y932487D01*
X1075716Y932563D01*
X1075803Y932642D01*
X1075888Y932725D01*
X1075971Y932810D01*
X1076050Y932897D01*
X1076126Y932987D01*
X1076200Y933080D01*
X1076270Y933175D01*
X1076337Y933272D01*
X1076401Y933371D01*
X1076462Y933473D01*
X1076520Y933576D01*
X1076574Y933681D01*
X1076624Y933788D01*
X1076671Y933896D01*
X1076715Y934006D01*
X1076754Y934117D01*
X1076791Y934230D01*
X1076823Y934343D01*
X1076852Y934458D01*
X1076877Y934574D01*
X1076898Y934690D01*
X1076915Y934807D01*
X1076929Y934924D01*
X1076938Y935042D01*
X1076944Y935160D01*
X1076946Y935278D01*
X1076946Y941296D01*
X1076944Y941433D01*
X1076938Y941571D01*
X1076928Y941708D01*
X1076915Y941845D01*
X1076897Y941981D01*
X1076875Y942117D01*
X1076850Y942252D01*
X1076821Y942387D01*
X1076788Y942520D01*
X1076751Y942653D01*
X1076710Y942784D01*
X1076666Y942914D01*
X1076618Y943043D01*
X1076566Y943170D01*
X1076511Y943296D01*
X1076452Y943420D01*
X1076390Y943543D01*
X1076324Y943664D01*
X1076254Y943782D01*
X1076182Y943899D01*
X1076106Y944014D01*
X1076026Y944126D01*
X1075944Y944236D01*
X1075858Y944344D01*
X1075770Y944449D01*
X1075678Y944552D01*
X1075584Y944652D01*
X1075487Y944749D01*
X1075387Y944843D01*
X1075284Y944935D01*
X1075179Y945023D01*
X1075071Y945109D01*
X1074961Y945191D01*
X1074849Y945271D01*
X1074734Y945347D01*
X1074617Y945419D01*
X1074499Y945489D01*
X1074378Y945555D01*
X1074255Y945617D01*
X1074131Y945676D01*
X1074005Y945731D01*
X1073878Y945783D01*
X1073749Y945831D01*
X1073619Y945875D01*
X1073488Y945916D01*
X1073355Y945953D01*
X1073222Y945986D01*
X1073087Y946015D01*
X1072952Y946040D01*
X1072816Y946062D01*
X1072680Y946080D01*
X1072543Y946093D01*
X1072406Y946103D01*
X1072268Y946109D01*
X1072131Y946111D01*
X1071994Y946109D01*
X1071856Y946103D01*
X1071719Y946093D01*
X1071582Y946080D01*
X1071446Y946062D01*
X1071310Y946040D01*
X1071175Y946015D01*
X1071040Y945986D01*
X1070907Y945953D01*
X1070774Y945916D01*
X1070643Y945875D01*
X1070513Y945831D01*
X1070384Y945783D01*
X1070257Y945731D01*
X1070131Y945676D01*
X1070007Y945617D01*
X1069884Y945555D01*
X1069763Y945489D01*
X1069645Y945419D01*
X1069528Y945347D01*
X1069413Y945271D01*
X1069301Y945191D01*
X1069191Y945109D01*
X1069083Y945023D01*
X1068978Y944935D01*
X1068875Y944843D01*
X1068775Y944749D01*
X1068678Y944652D01*
X1068584Y944552D01*
X1068492Y944449D01*
X1068404Y944344D01*
X1068318Y944236D01*
X1068236Y944126D01*
X1068156Y944014D01*
X1068080Y943899D01*
X1068008Y943782D01*
X1067938Y943664D01*
X1067872Y943543D01*
X1067810Y943420D01*
X1067751Y943296D01*
X1067696Y943170D01*
X1067644Y943043D01*
X1067596Y942914D01*
X1067552Y942784D01*
X1067511Y942653D01*
X1067474Y942520D01*
X1067441Y942387D01*
X1067412Y942252D01*
X1067387Y942117D01*
X1067365Y941981D01*
X1067347Y941845D01*
X1067334Y941708D01*
X1067324Y941571D01*
X1067318Y941433D01*
X1067316Y941296D01*
X1067317Y941296D02*
X1067317Y938889D01*
X1076946Y938889D01*
X1057085Y931667D02*
X1057085Y946111D01*
X1049863Y946111D01*
X1049863Y943704D01*
X1038610Y940093D02*
X1033193Y940093D01*
X1038610Y940093D02*
X1038738Y940091D01*
X1038867Y940085D01*
X1038995Y940075D01*
X1039123Y940062D01*
X1039250Y940044D01*
X1039377Y940023D01*
X1039503Y939997D01*
X1039628Y939968D01*
X1039752Y939935D01*
X1039875Y939899D01*
X1039997Y939858D01*
X1040118Y939814D01*
X1040237Y939766D01*
X1040355Y939715D01*
X1040471Y939660D01*
X1040585Y939601D01*
X1040698Y939539D01*
X1040809Y939474D01*
X1040917Y939405D01*
X1041024Y939333D01*
X1041128Y939258D01*
X1041230Y939180D01*
X1041329Y939098D01*
X1041426Y939014D01*
X1041520Y938926D01*
X1041612Y938836D01*
X1041700Y938743D01*
X1041786Y938648D01*
X1041869Y938550D01*
X1041949Y938449D01*
X1042026Y938346D01*
X1042100Y938241D01*
X1042170Y938133D01*
X1042237Y938023D01*
X1042301Y937912D01*
X1042361Y937798D01*
X1042418Y937683D01*
X1042471Y937566D01*
X1042520Y937448D01*
X1042566Y937328D01*
X1042609Y937206D01*
X1042647Y937084D01*
X1042682Y936960D01*
X1042713Y936835D01*
X1042740Y936710D01*
X1042764Y936583D01*
X1042783Y936456D01*
X1042799Y936329D01*
X1042811Y936201D01*
X1042819Y936073D01*
X1042823Y935944D01*
X1042823Y935816D01*
X1042819Y935687D01*
X1042811Y935559D01*
X1042799Y935431D01*
X1042783Y935304D01*
X1042764Y935177D01*
X1042740Y935050D01*
X1042713Y934925D01*
X1042682Y934800D01*
X1042647Y934676D01*
X1042609Y934554D01*
X1042566Y934432D01*
X1042520Y934312D01*
X1042471Y934194D01*
X1042418Y934077D01*
X1042361Y933962D01*
X1042301Y933848D01*
X1042237Y933737D01*
X1042170Y933627D01*
X1042100Y933519D01*
X1042026Y933414D01*
X1041949Y933311D01*
X1041869Y933210D01*
X1041786Y933112D01*
X1041700Y933017D01*
X1041612Y932924D01*
X1041520Y932834D01*
X1041426Y932746D01*
X1041329Y932662D01*
X1041230Y932580D01*
X1041128Y932502D01*
X1041024Y932427D01*
X1040917Y932355D01*
X1040809Y932286D01*
X1040698Y932221D01*
X1040585Y932159D01*
X1040471Y932100D01*
X1040355Y932045D01*
X1040237Y931994D01*
X1040118Y931946D01*
X1039997Y931902D01*
X1039875Y931861D01*
X1039752Y931825D01*
X1039628Y931792D01*
X1039503Y931763D01*
X1039377Y931737D01*
X1039250Y931716D01*
X1039123Y931698D01*
X1038995Y931685D01*
X1038867Y931675D01*
X1038738Y931669D01*
X1038610Y931667D01*
X1033193Y931667D01*
X1033193Y942500D01*
X1033195Y942618D01*
X1033201Y942736D01*
X1033210Y942854D01*
X1033224Y942971D01*
X1033241Y943088D01*
X1033262Y943204D01*
X1033287Y943320D01*
X1033316Y943435D01*
X1033348Y943548D01*
X1033385Y943661D01*
X1033424Y943772D01*
X1033468Y943882D01*
X1033515Y943990D01*
X1033565Y944097D01*
X1033619Y944202D01*
X1033677Y944306D01*
X1033738Y944407D01*
X1033802Y944506D01*
X1033869Y944603D01*
X1033939Y944698D01*
X1034013Y944791D01*
X1034089Y944881D01*
X1034168Y944968D01*
X1034251Y945053D01*
X1034336Y945136D01*
X1034423Y945215D01*
X1034513Y945291D01*
X1034606Y945365D01*
X1034701Y945435D01*
X1034798Y945502D01*
X1034897Y945566D01*
X1034999Y945627D01*
X1035102Y945685D01*
X1035207Y945739D01*
X1035314Y945789D01*
X1035422Y945836D01*
X1035532Y945880D01*
X1035643Y945919D01*
X1035756Y945956D01*
X1035869Y945988D01*
X1035984Y946017D01*
X1036100Y946042D01*
X1036216Y946063D01*
X1036333Y946080D01*
X1036450Y946094D01*
X1036568Y946103D01*
X1036686Y946109D01*
X1036804Y946111D01*
X1041619Y946111D01*
X1022786Y953333D02*
X1022786Y935278D01*
X1022784Y935160D01*
X1022778Y935042D01*
X1022769Y934924D01*
X1022755Y934807D01*
X1022738Y934690D01*
X1022717Y934574D01*
X1022692Y934458D01*
X1022663Y934343D01*
X1022631Y934230D01*
X1022594Y934117D01*
X1022555Y934006D01*
X1022511Y933896D01*
X1022464Y933788D01*
X1022414Y933681D01*
X1022360Y933576D01*
X1022302Y933473D01*
X1022241Y933371D01*
X1022177Y933272D01*
X1022110Y933175D01*
X1022040Y933080D01*
X1021966Y932987D01*
X1021890Y932897D01*
X1021811Y932810D01*
X1021728Y932725D01*
X1021643Y932642D01*
X1021556Y932563D01*
X1021466Y932487D01*
X1021373Y932413D01*
X1021278Y932343D01*
X1021181Y932276D01*
X1021082Y932212D01*
X1020981Y932151D01*
X1020877Y932093D01*
X1020772Y932039D01*
X1020665Y931989D01*
X1020557Y931942D01*
X1020447Y931898D01*
X1020336Y931859D01*
X1020223Y931822D01*
X1020110Y931790D01*
X1019995Y931761D01*
X1019879Y931736D01*
X1019763Y931715D01*
X1019646Y931698D01*
X1019529Y931684D01*
X1019411Y931675D01*
X1019293Y931669D01*
X1019175Y931667D01*
X998620Y931667D02*
X998620Y953333D01*
X988991Y953333D01*
X988991Y943704D02*
X998620Y943704D01*
X981007Y946111D02*
X981007Y931667D01*
X981609Y952129D02*
X981609Y953333D01*
X980405Y953333D01*
X980405Y952129D01*
X981609Y952129D01*
X971064Y946111D02*
X971064Y931667D01*
X971064Y946111D02*
X963842Y946111D01*
X963842Y943704D01*
X953051Y931667D02*
X947032Y931667D01*
X953051Y931667D02*
X953169Y931669D01*
X953287Y931675D01*
X953405Y931684D01*
X953522Y931698D01*
X953639Y931715D01*
X953755Y931736D01*
X953871Y931761D01*
X953986Y931790D01*
X954099Y931822D01*
X954212Y931859D01*
X954323Y931898D01*
X954433Y931942D01*
X954541Y931989D01*
X954648Y932039D01*
X954753Y932093D01*
X954857Y932151D01*
X954958Y932212D01*
X955057Y932276D01*
X955154Y932343D01*
X955249Y932413D01*
X955342Y932487D01*
X955432Y932563D01*
X955519Y932642D01*
X955604Y932725D01*
X955687Y932810D01*
X955766Y932897D01*
X955842Y932987D01*
X955916Y933080D01*
X955986Y933175D01*
X956053Y933272D01*
X956117Y933371D01*
X956178Y933473D01*
X956236Y933576D01*
X956290Y933681D01*
X956340Y933788D01*
X956387Y933896D01*
X956431Y934006D01*
X956470Y934117D01*
X956507Y934230D01*
X956539Y934343D01*
X956568Y934458D01*
X956593Y934574D01*
X956614Y934690D01*
X956631Y934807D01*
X956645Y934924D01*
X956654Y935042D01*
X956660Y935160D01*
X956662Y935278D01*
X956662Y941296D01*
X956660Y941433D01*
X956654Y941571D01*
X956644Y941708D01*
X956631Y941845D01*
X956613Y941981D01*
X956591Y942117D01*
X956566Y942252D01*
X956537Y942387D01*
X956504Y942520D01*
X956467Y942653D01*
X956426Y942784D01*
X956382Y942914D01*
X956334Y943043D01*
X956282Y943170D01*
X956227Y943296D01*
X956168Y943420D01*
X956106Y943543D01*
X956040Y943664D01*
X955970Y943782D01*
X955898Y943899D01*
X955822Y944014D01*
X955742Y944126D01*
X955660Y944236D01*
X955574Y944344D01*
X955486Y944449D01*
X955394Y944552D01*
X955300Y944652D01*
X955203Y944749D01*
X955103Y944843D01*
X955000Y944935D01*
X954895Y945023D01*
X954787Y945109D01*
X954677Y945191D01*
X954565Y945271D01*
X954450Y945347D01*
X954333Y945419D01*
X954215Y945489D01*
X954094Y945555D01*
X953971Y945617D01*
X953847Y945676D01*
X953721Y945731D01*
X953594Y945783D01*
X953465Y945831D01*
X953335Y945875D01*
X953204Y945916D01*
X953071Y945953D01*
X952938Y945986D01*
X952803Y946015D01*
X952668Y946040D01*
X952532Y946062D01*
X952396Y946080D01*
X952259Y946093D01*
X952122Y946103D01*
X951984Y946109D01*
X951847Y946111D01*
X951710Y946109D01*
X951572Y946103D01*
X951435Y946093D01*
X951298Y946080D01*
X951162Y946062D01*
X951026Y946040D01*
X950891Y946015D01*
X950756Y945986D01*
X950623Y945953D01*
X950490Y945916D01*
X950359Y945875D01*
X950229Y945831D01*
X950100Y945783D01*
X949973Y945731D01*
X949847Y945676D01*
X949723Y945617D01*
X949600Y945555D01*
X949479Y945489D01*
X949361Y945419D01*
X949244Y945347D01*
X949129Y945271D01*
X949017Y945191D01*
X948907Y945109D01*
X948799Y945023D01*
X948694Y944935D01*
X948591Y944843D01*
X948491Y944749D01*
X948394Y944652D01*
X948300Y944552D01*
X948208Y944449D01*
X948120Y944344D01*
X948034Y944236D01*
X947952Y944126D01*
X947872Y944014D01*
X947796Y943899D01*
X947724Y943782D01*
X947654Y943664D01*
X947588Y943543D01*
X947526Y943420D01*
X947467Y943296D01*
X947412Y943170D01*
X947360Y943043D01*
X947312Y942914D01*
X947268Y942784D01*
X947227Y942653D01*
X947190Y942520D01*
X947157Y942387D01*
X947128Y942252D01*
X947103Y942117D01*
X947081Y941981D01*
X947063Y941845D01*
X947050Y941708D01*
X947040Y941571D01*
X947034Y941433D01*
X947032Y941296D01*
X947032Y938889D01*
X956662Y938889D01*
D10*
X1318973Y-31315D02*
X1318973Y-48841D01*
X1323841Y-31315D02*
X1314104Y-31315D01*
X1303880Y-48841D02*
X1299011Y-48841D01*
X1303880Y-48841D02*
X1303987Y-48839D01*
X1304093Y-48833D01*
X1304199Y-48823D01*
X1304305Y-48810D01*
X1304411Y-48792D01*
X1304515Y-48771D01*
X1304619Y-48746D01*
X1304722Y-48717D01*
X1304823Y-48685D01*
X1304923Y-48648D01*
X1305022Y-48608D01*
X1305120Y-48565D01*
X1305216Y-48518D01*
X1305310Y-48467D01*
X1305402Y-48413D01*
X1305492Y-48356D01*
X1305580Y-48296D01*
X1305665Y-48232D01*
X1305748Y-48165D01*
X1305829Y-48095D01*
X1305907Y-48023D01*
X1305983Y-47947D01*
X1306055Y-47869D01*
X1306125Y-47788D01*
X1306192Y-47705D01*
X1306256Y-47620D01*
X1306316Y-47532D01*
X1306373Y-47442D01*
X1306427Y-47350D01*
X1306478Y-47256D01*
X1306525Y-47160D01*
X1306568Y-47062D01*
X1306608Y-46963D01*
X1306645Y-46863D01*
X1306677Y-46762D01*
X1306706Y-46659D01*
X1306731Y-46555D01*
X1306752Y-46451D01*
X1306770Y-46345D01*
X1306783Y-46239D01*
X1306793Y-46133D01*
X1306799Y-46027D01*
X1306801Y-45920D01*
X1306801Y-41052D01*
X1306799Y-40928D01*
X1306793Y-40805D01*
X1306783Y-40682D01*
X1306770Y-40559D01*
X1306752Y-40437D01*
X1306731Y-40315D01*
X1306705Y-40194D01*
X1306676Y-40074D01*
X1306643Y-39955D01*
X1306607Y-39837D01*
X1306566Y-39720D01*
X1306522Y-39604D01*
X1306474Y-39490D01*
X1306423Y-39378D01*
X1306368Y-39267D01*
X1306310Y-39158D01*
X1306248Y-39051D01*
X1306183Y-38946D01*
X1306114Y-38843D01*
X1306043Y-38743D01*
X1305968Y-38644D01*
X1305890Y-38548D01*
X1305809Y-38455D01*
X1305725Y-38364D01*
X1305638Y-38276D01*
X1305549Y-38191D01*
X1305457Y-38108D01*
X1305362Y-38029D01*
X1305265Y-37953D01*
X1305165Y-37879D01*
X1305064Y-37809D01*
X1304960Y-37742D01*
X1304854Y-37679D01*
X1304745Y-37619D01*
X1304636Y-37562D01*
X1304524Y-37509D01*
X1304411Y-37459D01*
X1304296Y-37413D01*
X1304180Y-37371D01*
X1304063Y-37333D01*
X1303944Y-37298D01*
X1303824Y-37267D01*
X1303704Y-37240D01*
X1303582Y-37216D01*
X1303460Y-37197D01*
X1303338Y-37181D01*
X1303215Y-37169D01*
X1303091Y-37161D01*
X1302968Y-37157D01*
X1302844Y-37157D01*
X1302721Y-37161D01*
X1302597Y-37169D01*
X1302474Y-37181D01*
X1302352Y-37197D01*
X1302230Y-37216D01*
X1302108Y-37240D01*
X1301988Y-37267D01*
X1301868Y-37298D01*
X1301749Y-37333D01*
X1301632Y-37371D01*
X1301516Y-37413D01*
X1301401Y-37459D01*
X1301288Y-37509D01*
X1301176Y-37562D01*
X1301067Y-37619D01*
X1300959Y-37679D01*
X1300852Y-37742D01*
X1300748Y-37809D01*
X1300647Y-37879D01*
X1300547Y-37953D01*
X1300450Y-38029D01*
X1300355Y-38108D01*
X1300263Y-38191D01*
X1300174Y-38276D01*
X1300087Y-38364D01*
X1300003Y-38455D01*
X1299922Y-38548D01*
X1299844Y-38644D01*
X1299769Y-38743D01*
X1299698Y-38843D01*
X1299629Y-38946D01*
X1299564Y-39051D01*
X1299502Y-39158D01*
X1299444Y-39267D01*
X1299389Y-39378D01*
X1299338Y-39490D01*
X1299290Y-39604D01*
X1299246Y-39720D01*
X1299205Y-39837D01*
X1299169Y-39955D01*
X1299136Y-40074D01*
X1299107Y-40194D01*
X1299081Y-40315D01*
X1299060Y-40437D01*
X1299042Y-40559D01*
X1299029Y-40682D01*
X1299019Y-40805D01*
X1299013Y-40928D01*
X1299011Y-41052D01*
X1299011Y-42999D01*
X1306801Y-42999D01*
X1289592Y-48841D02*
X1289592Y-37157D01*
X1280829Y-37157D01*
X1280722Y-37159D01*
X1280616Y-37165D01*
X1280510Y-37175D01*
X1280404Y-37188D01*
X1280298Y-37206D01*
X1280194Y-37227D01*
X1280090Y-37252D01*
X1279987Y-37281D01*
X1279886Y-37313D01*
X1279786Y-37350D01*
X1279687Y-37390D01*
X1279589Y-37433D01*
X1279493Y-37480D01*
X1279399Y-37531D01*
X1279307Y-37585D01*
X1279217Y-37642D01*
X1279129Y-37702D01*
X1279044Y-37766D01*
X1278961Y-37833D01*
X1278880Y-37903D01*
X1278802Y-37975D01*
X1278726Y-38051D01*
X1278654Y-38129D01*
X1278584Y-38210D01*
X1278517Y-38293D01*
X1278453Y-38378D01*
X1278393Y-38466D01*
X1278336Y-38556D01*
X1278282Y-38648D01*
X1278231Y-38742D01*
X1278184Y-38838D01*
X1278141Y-38936D01*
X1278101Y-39035D01*
X1278064Y-39135D01*
X1278032Y-39236D01*
X1278003Y-39339D01*
X1277978Y-39443D01*
X1277957Y-39547D01*
X1277939Y-39653D01*
X1277926Y-39759D01*
X1277916Y-39865D01*
X1277910Y-39971D01*
X1277908Y-40078D01*
X1277908Y-48841D01*
X1283750Y-48841D02*
X1283750Y-37157D01*
X1267730Y-37157D02*
X1267730Y-54683D01*
X1267730Y-37157D02*
X1262861Y-37157D01*
X1262754Y-37159D01*
X1262648Y-37165D01*
X1262542Y-37175D01*
X1262436Y-37188D01*
X1262330Y-37206D01*
X1262226Y-37227D01*
X1262122Y-37252D01*
X1262019Y-37281D01*
X1261918Y-37313D01*
X1261818Y-37350D01*
X1261719Y-37390D01*
X1261621Y-37433D01*
X1261525Y-37480D01*
X1261431Y-37531D01*
X1261339Y-37585D01*
X1261249Y-37642D01*
X1261161Y-37702D01*
X1261076Y-37766D01*
X1260993Y-37833D01*
X1260912Y-37903D01*
X1260834Y-37975D01*
X1260758Y-38051D01*
X1260686Y-38129D01*
X1260616Y-38210D01*
X1260549Y-38293D01*
X1260485Y-38378D01*
X1260425Y-38466D01*
X1260368Y-38556D01*
X1260314Y-38648D01*
X1260263Y-38742D01*
X1260216Y-38838D01*
X1260173Y-38936D01*
X1260133Y-39035D01*
X1260096Y-39135D01*
X1260064Y-39236D01*
X1260035Y-39339D01*
X1260010Y-39443D01*
X1259989Y-39547D01*
X1259971Y-39653D01*
X1259958Y-39759D01*
X1259948Y-39865D01*
X1259942Y-39971D01*
X1259940Y-40078D01*
X1259940Y-45920D01*
X1259942Y-46027D01*
X1259948Y-46133D01*
X1259958Y-46239D01*
X1259971Y-46345D01*
X1259989Y-46451D01*
X1260010Y-46555D01*
X1260035Y-46659D01*
X1260064Y-46762D01*
X1260096Y-46863D01*
X1260133Y-46963D01*
X1260173Y-47062D01*
X1260216Y-47160D01*
X1260263Y-47256D01*
X1260314Y-47350D01*
X1260368Y-47442D01*
X1260425Y-47532D01*
X1260485Y-47620D01*
X1260549Y-47705D01*
X1260616Y-47788D01*
X1260686Y-47869D01*
X1260758Y-47947D01*
X1260834Y-48023D01*
X1260912Y-48095D01*
X1260993Y-48165D01*
X1261076Y-48232D01*
X1261161Y-48296D01*
X1261249Y-48356D01*
X1261339Y-48413D01*
X1261431Y-48467D01*
X1261525Y-48518D01*
X1261621Y-48565D01*
X1261719Y-48608D01*
X1261818Y-48648D01*
X1261918Y-48685D01*
X1262019Y-48717D01*
X1262122Y-48746D01*
X1262226Y-48771D01*
X1262330Y-48792D01*
X1262436Y-48810D01*
X1262542Y-48823D01*
X1262648Y-48833D01*
X1262754Y-48839D01*
X1262861Y-48841D01*
X1267730Y-48841D01*
X1251804Y-44946D02*
X1251804Y-41052D01*
X1251802Y-40928D01*
X1251796Y-40805D01*
X1251786Y-40682D01*
X1251773Y-40559D01*
X1251755Y-40437D01*
X1251734Y-40315D01*
X1251708Y-40194D01*
X1251679Y-40074D01*
X1251646Y-39955D01*
X1251610Y-39837D01*
X1251569Y-39720D01*
X1251525Y-39604D01*
X1251477Y-39490D01*
X1251426Y-39378D01*
X1251371Y-39267D01*
X1251313Y-39158D01*
X1251251Y-39051D01*
X1251186Y-38946D01*
X1251117Y-38843D01*
X1251046Y-38743D01*
X1250971Y-38644D01*
X1250893Y-38548D01*
X1250812Y-38455D01*
X1250728Y-38364D01*
X1250641Y-38276D01*
X1250552Y-38191D01*
X1250460Y-38108D01*
X1250365Y-38029D01*
X1250268Y-37953D01*
X1250168Y-37879D01*
X1250067Y-37809D01*
X1249963Y-37742D01*
X1249857Y-37679D01*
X1249748Y-37619D01*
X1249639Y-37562D01*
X1249527Y-37509D01*
X1249414Y-37459D01*
X1249299Y-37413D01*
X1249183Y-37371D01*
X1249066Y-37333D01*
X1248947Y-37298D01*
X1248827Y-37267D01*
X1248707Y-37240D01*
X1248585Y-37216D01*
X1248463Y-37197D01*
X1248341Y-37181D01*
X1248218Y-37169D01*
X1248094Y-37161D01*
X1247971Y-37157D01*
X1247847Y-37157D01*
X1247724Y-37161D01*
X1247600Y-37169D01*
X1247477Y-37181D01*
X1247355Y-37197D01*
X1247233Y-37216D01*
X1247111Y-37240D01*
X1246991Y-37267D01*
X1246871Y-37298D01*
X1246752Y-37333D01*
X1246635Y-37371D01*
X1246519Y-37413D01*
X1246404Y-37459D01*
X1246291Y-37509D01*
X1246179Y-37562D01*
X1246070Y-37619D01*
X1245962Y-37679D01*
X1245855Y-37742D01*
X1245751Y-37809D01*
X1245650Y-37879D01*
X1245550Y-37953D01*
X1245453Y-38029D01*
X1245358Y-38108D01*
X1245266Y-38191D01*
X1245177Y-38276D01*
X1245090Y-38364D01*
X1245006Y-38455D01*
X1244925Y-38548D01*
X1244847Y-38644D01*
X1244772Y-38743D01*
X1244701Y-38843D01*
X1244632Y-38946D01*
X1244567Y-39051D01*
X1244505Y-39158D01*
X1244447Y-39267D01*
X1244392Y-39378D01*
X1244341Y-39490D01*
X1244293Y-39604D01*
X1244249Y-39720D01*
X1244208Y-39837D01*
X1244172Y-39955D01*
X1244139Y-40074D01*
X1244110Y-40194D01*
X1244084Y-40315D01*
X1244063Y-40437D01*
X1244045Y-40559D01*
X1244032Y-40682D01*
X1244022Y-40805D01*
X1244016Y-40928D01*
X1244014Y-41052D01*
X1244014Y-44946D01*
X1244016Y-45070D01*
X1244022Y-45193D01*
X1244032Y-45316D01*
X1244045Y-45439D01*
X1244063Y-45561D01*
X1244084Y-45683D01*
X1244110Y-45804D01*
X1244139Y-45924D01*
X1244172Y-46043D01*
X1244208Y-46161D01*
X1244249Y-46278D01*
X1244293Y-46394D01*
X1244341Y-46508D01*
X1244392Y-46620D01*
X1244447Y-46731D01*
X1244505Y-46840D01*
X1244567Y-46947D01*
X1244632Y-47052D01*
X1244701Y-47155D01*
X1244772Y-47255D01*
X1244847Y-47354D01*
X1244925Y-47450D01*
X1245006Y-47543D01*
X1245090Y-47634D01*
X1245177Y-47722D01*
X1245266Y-47807D01*
X1245358Y-47890D01*
X1245453Y-47969D01*
X1245550Y-48045D01*
X1245650Y-48119D01*
X1245751Y-48189D01*
X1245855Y-48256D01*
X1245962Y-48319D01*
X1246070Y-48379D01*
X1246179Y-48436D01*
X1246291Y-48489D01*
X1246404Y-48539D01*
X1246519Y-48585D01*
X1246635Y-48627D01*
X1246752Y-48665D01*
X1246871Y-48700D01*
X1246991Y-48731D01*
X1247111Y-48758D01*
X1247233Y-48782D01*
X1247355Y-48801D01*
X1247477Y-48817D01*
X1247600Y-48829D01*
X1247724Y-48837D01*
X1247847Y-48841D01*
X1247971Y-48841D01*
X1248094Y-48837D01*
X1248218Y-48829D01*
X1248341Y-48817D01*
X1248463Y-48801D01*
X1248585Y-48782D01*
X1248707Y-48758D01*
X1248827Y-48731D01*
X1248947Y-48700D01*
X1249066Y-48665D01*
X1249183Y-48627D01*
X1249299Y-48585D01*
X1249414Y-48539D01*
X1249527Y-48489D01*
X1249639Y-48436D01*
X1249748Y-48379D01*
X1249857Y-48319D01*
X1249963Y-48256D01*
X1250067Y-48189D01*
X1250168Y-48119D01*
X1250268Y-48045D01*
X1250365Y-47969D01*
X1250460Y-47890D01*
X1250552Y-47807D01*
X1250641Y-47722D01*
X1250728Y-47634D01*
X1250812Y-47543D01*
X1250893Y-47450D01*
X1250971Y-47354D01*
X1251046Y-47255D01*
X1251117Y-47155D01*
X1251186Y-47052D01*
X1251251Y-46947D01*
X1251313Y-46840D01*
X1251371Y-46731D01*
X1251426Y-46620D01*
X1251477Y-46508D01*
X1251525Y-46394D01*
X1251569Y-46278D01*
X1251610Y-46161D01*
X1251646Y-46043D01*
X1251679Y-45924D01*
X1251708Y-45804D01*
X1251734Y-45683D01*
X1251755Y-45561D01*
X1251773Y-45439D01*
X1251786Y-45316D01*
X1251796Y-45193D01*
X1251802Y-45070D01*
X1251804Y-44946D01*
X1318973Y-48841D02*
X1318973Y-31315D01*
X1323841Y-31315D02*
X1314104Y-31315D01*
X1303880Y-48841D02*
X1299011Y-48841D01*
X1303880Y-48841D02*
X1303987Y-48839D01*
X1304093Y-48833D01*
X1304199Y-48823D01*
X1304305Y-48810D01*
X1304411Y-48792D01*
X1304515Y-48771D01*
X1304619Y-48746D01*
X1304722Y-48717D01*
X1304823Y-48685D01*
X1304923Y-48648D01*
X1305022Y-48608D01*
X1305120Y-48565D01*
X1305216Y-48518D01*
X1305310Y-48467D01*
X1305402Y-48413D01*
X1305492Y-48356D01*
X1305580Y-48296D01*
X1305665Y-48232D01*
X1305748Y-48165D01*
X1305829Y-48095D01*
X1305907Y-48023D01*
X1305983Y-47947D01*
X1306055Y-47869D01*
X1306125Y-47788D01*
X1306192Y-47705D01*
X1306256Y-47620D01*
X1306316Y-47532D01*
X1306373Y-47442D01*
X1306427Y-47350D01*
X1306478Y-47256D01*
X1306525Y-47160D01*
X1306568Y-47062D01*
X1306608Y-46963D01*
X1306645Y-46863D01*
X1306677Y-46762D01*
X1306706Y-46659D01*
X1306731Y-46555D01*
X1306752Y-46451D01*
X1306770Y-46345D01*
X1306783Y-46239D01*
X1306793Y-46133D01*
X1306799Y-46027D01*
X1306801Y-45920D01*
X1306801Y-41052D01*
X1306799Y-40928D01*
X1306793Y-40805D01*
X1306783Y-40682D01*
X1306770Y-40559D01*
X1306752Y-40437D01*
X1306731Y-40315D01*
X1306705Y-40194D01*
X1306676Y-40074D01*
X1306643Y-39955D01*
X1306607Y-39837D01*
X1306566Y-39720D01*
X1306522Y-39604D01*
X1306474Y-39490D01*
X1306423Y-39378D01*
X1306368Y-39267D01*
X1306310Y-39158D01*
X1306248Y-39051D01*
X1306183Y-38946D01*
X1306114Y-38843D01*
X1306043Y-38743D01*
X1305968Y-38644D01*
X1305890Y-38548D01*
X1305809Y-38455D01*
X1305725Y-38364D01*
X1305638Y-38276D01*
X1305549Y-38191D01*
X1305457Y-38108D01*
X1305362Y-38029D01*
X1305265Y-37953D01*
X1305165Y-37879D01*
X1305064Y-37809D01*
X1304960Y-37742D01*
X1304854Y-37679D01*
X1304745Y-37619D01*
X1304636Y-37562D01*
X1304524Y-37509D01*
X1304411Y-37459D01*
X1304296Y-37413D01*
X1304180Y-37371D01*
X1304063Y-37333D01*
X1303944Y-37298D01*
X1303824Y-37267D01*
X1303704Y-37240D01*
X1303582Y-37216D01*
X1303460Y-37197D01*
X1303338Y-37181D01*
X1303215Y-37169D01*
X1303091Y-37161D01*
X1302968Y-37157D01*
X1302844Y-37157D01*
X1302721Y-37161D01*
X1302597Y-37169D01*
X1302474Y-37181D01*
X1302352Y-37197D01*
X1302230Y-37216D01*
X1302108Y-37240D01*
X1301988Y-37267D01*
X1301868Y-37298D01*
X1301749Y-37333D01*
X1301632Y-37371D01*
X1301516Y-37413D01*
X1301401Y-37459D01*
X1301288Y-37509D01*
X1301176Y-37562D01*
X1301067Y-37619D01*
X1300959Y-37679D01*
X1300852Y-37742D01*
X1300748Y-37809D01*
X1300647Y-37879D01*
X1300547Y-37953D01*
X1300450Y-38029D01*
X1300355Y-38108D01*
X1300263Y-38191D01*
X1300174Y-38276D01*
X1300087Y-38364D01*
X1300003Y-38455D01*
X1299922Y-38548D01*
X1299844Y-38644D01*
X1299769Y-38743D01*
X1299698Y-38843D01*
X1299629Y-38946D01*
X1299564Y-39051D01*
X1299502Y-39158D01*
X1299444Y-39267D01*
X1299389Y-39378D01*
X1299338Y-39490D01*
X1299290Y-39604D01*
X1299246Y-39720D01*
X1299205Y-39837D01*
X1299169Y-39955D01*
X1299136Y-40074D01*
X1299107Y-40194D01*
X1299081Y-40315D01*
X1299060Y-40437D01*
X1299042Y-40559D01*
X1299029Y-40682D01*
X1299019Y-40805D01*
X1299013Y-40928D01*
X1299011Y-41052D01*
X1299011Y-42999D01*
X1306801Y-42999D01*
X1289592Y-48841D02*
X1289592Y-37157D01*
X1280829Y-37157D01*
X1280722Y-37159D01*
X1280616Y-37165D01*
X1280510Y-37175D01*
X1280404Y-37188D01*
X1280298Y-37206D01*
X1280194Y-37227D01*
X1280090Y-37252D01*
X1279987Y-37281D01*
X1279886Y-37313D01*
X1279786Y-37350D01*
X1279687Y-37390D01*
X1279589Y-37433D01*
X1279493Y-37480D01*
X1279399Y-37531D01*
X1279307Y-37585D01*
X1279217Y-37642D01*
X1279129Y-37702D01*
X1279044Y-37766D01*
X1278961Y-37833D01*
X1278880Y-37903D01*
X1278802Y-37975D01*
X1278726Y-38051D01*
X1278654Y-38129D01*
X1278584Y-38210D01*
X1278517Y-38293D01*
X1278453Y-38378D01*
X1278393Y-38466D01*
X1278336Y-38556D01*
X1278282Y-38648D01*
X1278231Y-38742D01*
X1278184Y-38838D01*
X1278141Y-38936D01*
X1278101Y-39035D01*
X1278064Y-39135D01*
X1278032Y-39236D01*
X1278003Y-39339D01*
X1277978Y-39443D01*
X1277957Y-39547D01*
X1277939Y-39653D01*
X1277926Y-39759D01*
X1277916Y-39865D01*
X1277910Y-39971D01*
X1277908Y-40078D01*
X1277908Y-48841D01*
X1283750Y-48841D02*
X1283750Y-37157D01*
X1267730Y-37157D02*
X1267730Y-54683D01*
X1267730Y-37157D02*
X1262861Y-37157D01*
X1262754Y-37159D01*
X1262648Y-37165D01*
X1262542Y-37175D01*
X1262436Y-37188D01*
X1262330Y-37206D01*
X1262226Y-37227D01*
X1262122Y-37252D01*
X1262019Y-37281D01*
X1261918Y-37313D01*
X1261818Y-37350D01*
X1261719Y-37390D01*
X1261621Y-37433D01*
X1261525Y-37480D01*
X1261431Y-37531D01*
X1261339Y-37585D01*
X1261249Y-37642D01*
X1261161Y-37702D01*
X1261076Y-37766D01*
X1260993Y-37833D01*
X1260912Y-37903D01*
X1260834Y-37975D01*
X1260758Y-38051D01*
X1260686Y-38129D01*
X1260616Y-38210D01*
X1260549Y-38293D01*
X1260485Y-38378D01*
X1260425Y-38466D01*
X1260368Y-38556D01*
X1260314Y-38648D01*
X1260263Y-38742D01*
X1260216Y-38838D01*
X1260173Y-38936D01*
X1260133Y-39035D01*
X1260096Y-39135D01*
X1260064Y-39236D01*
X1260035Y-39339D01*
X1260010Y-39443D01*
X1259989Y-39547D01*
X1259971Y-39653D01*
X1259958Y-39759D01*
X1259948Y-39865D01*
X1259942Y-39971D01*
X1259940Y-40078D01*
X1259940Y-45920D01*
X1259942Y-46027D01*
X1259948Y-46133D01*
X1259958Y-46239D01*
X1259971Y-46345D01*
X1259989Y-46451D01*
X1260010Y-46555D01*
X1260035Y-46659D01*
X1260064Y-46762D01*
X1260096Y-46863D01*
X1260133Y-46963D01*
X1260173Y-47062D01*
X1260216Y-47160D01*
X1260263Y-47256D01*
X1260314Y-47350D01*
X1260368Y-47442D01*
X1260425Y-47532D01*
X1260485Y-47620D01*
X1260549Y-47705D01*
X1260616Y-47788D01*
X1260686Y-47869D01*
X1260758Y-47947D01*
X1260834Y-48023D01*
X1260912Y-48095D01*
X1260993Y-48165D01*
X1261076Y-48232D01*
X1261161Y-48296D01*
X1261249Y-48356D01*
X1261339Y-48413D01*
X1261431Y-48467D01*
X1261525Y-48518D01*
X1261621Y-48565D01*
X1261719Y-48608D01*
X1261818Y-48648D01*
X1261918Y-48685D01*
X1262019Y-48717D01*
X1262122Y-48746D01*
X1262226Y-48771D01*
X1262330Y-48792D01*
X1262436Y-48810D01*
X1262542Y-48823D01*
X1262648Y-48833D01*
X1262754Y-48839D01*
X1262861Y-48841D01*
X1267730Y-48841D01*
X1251804Y-44946D02*
X1251804Y-41052D01*
X1251802Y-40928D01*
X1251796Y-40805D01*
X1251786Y-40682D01*
X1251773Y-40559D01*
X1251755Y-40437D01*
X1251734Y-40315D01*
X1251708Y-40194D01*
X1251679Y-40074D01*
X1251646Y-39955D01*
X1251610Y-39837D01*
X1251569Y-39720D01*
X1251525Y-39604D01*
X1251477Y-39490D01*
X1251426Y-39378D01*
X1251371Y-39267D01*
X1251313Y-39158D01*
X1251251Y-39051D01*
X1251186Y-38946D01*
X1251117Y-38843D01*
X1251046Y-38743D01*
X1250971Y-38644D01*
X1250893Y-38548D01*
X1250812Y-38455D01*
X1250728Y-38364D01*
X1250641Y-38276D01*
X1250552Y-38191D01*
X1250460Y-38108D01*
X1250365Y-38029D01*
X1250268Y-37953D01*
X1250168Y-37879D01*
X1250067Y-37809D01*
X1249963Y-37742D01*
X1249857Y-37679D01*
X1249748Y-37619D01*
X1249639Y-37562D01*
X1249527Y-37509D01*
X1249414Y-37459D01*
X1249299Y-37413D01*
X1249183Y-37371D01*
X1249066Y-37333D01*
X1248947Y-37298D01*
X1248827Y-37267D01*
X1248707Y-37240D01*
X1248585Y-37216D01*
X1248463Y-37197D01*
X1248341Y-37181D01*
X1248218Y-37169D01*
X1248094Y-37161D01*
X1247971Y-37157D01*
X1247847Y-37157D01*
X1247724Y-37161D01*
X1247600Y-37169D01*
X1247477Y-37181D01*
X1247355Y-37197D01*
X1247233Y-37216D01*
X1247111Y-37240D01*
X1246991Y-37267D01*
X1246871Y-37298D01*
X1246752Y-37333D01*
X1246635Y-37371D01*
X1246519Y-37413D01*
X1246404Y-37459D01*
X1246291Y-37509D01*
X1246179Y-37562D01*
X1246070Y-37619D01*
X1245962Y-37679D01*
X1245855Y-37742D01*
X1245751Y-37809D01*
X1245650Y-37879D01*
X1245550Y-37953D01*
X1245453Y-38029D01*
X1245358Y-38108D01*
X1245266Y-38191D01*
X1245177Y-38276D01*
X1245090Y-38364D01*
X1245006Y-38455D01*
X1244925Y-38548D01*
X1244847Y-38644D01*
X1244772Y-38743D01*
X1244701Y-38843D01*
X1244632Y-38946D01*
X1244567Y-39051D01*
X1244505Y-39158D01*
X1244447Y-39267D01*
X1244392Y-39378D01*
X1244341Y-39490D01*
X1244293Y-39604D01*
X1244249Y-39720D01*
X1244208Y-39837D01*
X1244172Y-39955D01*
X1244139Y-40074D01*
X1244110Y-40194D01*
X1244084Y-40315D01*
X1244063Y-40437D01*
X1244045Y-40559D01*
X1244032Y-40682D01*
X1244022Y-40805D01*
X1244016Y-40928D01*
X1244014Y-41052D01*
X1244014Y-44946D01*
X1244016Y-45070D01*
X1244022Y-45193D01*
X1244032Y-45316D01*
X1244045Y-45439D01*
X1244063Y-45561D01*
X1244084Y-45683D01*
X1244110Y-45804D01*
X1244139Y-45924D01*
X1244172Y-46043D01*
X1244208Y-46161D01*
X1244249Y-46278D01*
X1244293Y-46394D01*
X1244341Y-46508D01*
X1244392Y-46620D01*
X1244447Y-46731D01*
X1244505Y-46840D01*
X1244567Y-46947D01*
X1244632Y-47052D01*
X1244701Y-47155D01*
X1244772Y-47255D01*
X1244847Y-47354D01*
X1244925Y-47450D01*
X1245006Y-47543D01*
X1245090Y-47634D01*
X1245177Y-47722D01*
X1245266Y-47807D01*
X1245358Y-47890D01*
X1245453Y-47969D01*
X1245550Y-48045D01*
X1245650Y-48119D01*
X1245751Y-48189D01*
X1245855Y-48256D01*
X1245962Y-48319D01*
X1246070Y-48379D01*
X1246179Y-48436D01*
X1246291Y-48489D01*
X1246404Y-48539D01*
X1246519Y-48585D01*
X1246635Y-48627D01*
X1246752Y-48665D01*
X1246871Y-48700D01*
X1246991Y-48731D01*
X1247111Y-48758D01*
X1247233Y-48782D01*
X1247355Y-48801D01*
X1247477Y-48817D01*
X1247600Y-48829D01*
X1247724Y-48837D01*
X1247847Y-48841D01*
X1247971Y-48841D01*
X1248094Y-48837D01*
X1248218Y-48829D01*
X1248341Y-48817D01*
X1248463Y-48801D01*
X1248585Y-48782D01*
X1248707Y-48758D01*
X1248827Y-48731D01*
X1248947Y-48700D01*
X1249066Y-48665D01*
X1249183Y-48627D01*
X1249299Y-48585D01*
X1249414Y-48539D01*
X1249527Y-48489D01*
X1249639Y-48436D01*
X1249748Y-48379D01*
X1249857Y-48319D01*
X1249963Y-48256D01*
X1250067Y-48189D01*
X1250168Y-48119D01*
X1250268Y-48045D01*
X1250365Y-47969D01*
X1250460Y-47890D01*
X1250552Y-47807D01*
X1250641Y-47722D01*
X1250728Y-47634D01*
X1250812Y-47543D01*
X1250893Y-47450D01*
X1250971Y-47354D01*
X1251046Y-47255D01*
X1251117Y-47155D01*
X1251186Y-47052D01*
X1251251Y-46947D01*
X1251313Y-46840D01*
X1251371Y-46731D01*
X1251426Y-46620D01*
X1251477Y-46508D01*
X1251525Y-46394D01*
X1251569Y-46278D01*
X1251610Y-46161D01*
X1251646Y-46043D01*
X1251679Y-45924D01*
X1251708Y-45804D01*
X1251734Y-45683D01*
X1251755Y-45561D01*
X1251773Y-45439D01*
X1251786Y-45316D01*
X1251796Y-45193D01*
X1251802Y-45070D01*
X1251804Y-44946D01*
X868499Y-241341D02*
X868377Y-241339D01*
X868254Y-241333D01*
X868132Y-241324D01*
X868011Y-241310D01*
X867890Y-241293D01*
X867769Y-241272D01*
X867649Y-241247D01*
X867530Y-241219D01*
X867412Y-241186D01*
X867295Y-241150D01*
X867180Y-241111D01*
X867065Y-241067D01*
X866952Y-241021D01*
X866841Y-240970D01*
X866731Y-240916D01*
X866623Y-240859D01*
X866516Y-240799D01*
X866412Y-240735D01*
X866310Y-240667D01*
X866210Y-240597D01*
X866112Y-240524D01*
X866016Y-240447D01*
X865923Y-240368D01*
X865833Y-240285D01*
X865745Y-240200D01*
X865660Y-240112D01*
X865577Y-240022D01*
X865498Y-239929D01*
X865421Y-239833D01*
X865348Y-239735D01*
X865278Y-239635D01*
X865210Y-239533D01*
X865146Y-239429D01*
X865086Y-239322D01*
X865029Y-239214D01*
X864975Y-239104D01*
X864924Y-238993D01*
X864878Y-238880D01*
X864834Y-238765D01*
X864795Y-238650D01*
X864759Y-238533D01*
X864726Y-238415D01*
X864698Y-238296D01*
X864673Y-238176D01*
X864652Y-238055D01*
X864635Y-237934D01*
X864621Y-237813D01*
X864612Y-237691D01*
X864606Y-237568D01*
X864604Y-237446D01*
X868499Y-241341D02*
X868696Y-241339D01*
X868893Y-241332D01*
X869089Y-241320D01*
X869285Y-241303D01*
X869481Y-241282D01*
X869676Y-241256D01*
X869871Y-241226D01*
X870064Y-241191D01*
X870257Y-241151D01*
X870449Y-241107D01*
X870640Y-241058D01*
X870829Y-241004D01*
X871017Y-240946D01*
X871204Y-240884D01*
X871389Y-240817D01*
X871573Y-240745D01*
X871754Y-240670D01*
X871934Y-240590D01*
X872112Y-240505D01*
X872288Y-240417D01*
X872461Y-240324D01*
X872633Y-240227D01*
X872802Y-240126D01*
X872968Y-240021D01*
X873132Y-239912D01*
X873294Y-239800D01*
X873452Y-239683D01*
X873608Y-239563D01*
X873761Y-239439D01*
X873911Y-239311D01*
X874057Y-239180D01*
X874201Y-239045D01*
X874341Y-238907D01*
X873855Y-227710D02*
X873853Y-227588D01*
X873847Y-227465D01*
X873838Y-227343D01*
X873824Y-227222D01*
X873807Y-227101D01*
X873786Y-226980D01*
X873761Y-226860D01*
X873733Y-226741D01*
X873700Y-226623D01*
X873664Y-226506D01*
X873625Y-226391D01*
X873581Y-226276D01*
X873535Y-226163D01*
X873484Y-226052D01*
X873430Y-225942D01*
X873373Y-225834D01*
X873313Y-225727D01*
X873249Y-225623D01*
X873181Y-225521D01*
X873111Y-225421D01*
X873038Y-225323D01*
X872961Y-225227D01*
X872882Y-225134D01*
X872799Y-225044D01*
X872714Y-224956D01*
X872626Y-224871D01*
X872536Y-224788D01*
X872443Y-224709D01*
X872347Y-224632D01*
X872249Y-224559D01*
X872149Y-224489D01*
X872047Y-224421D01*
X871943Y-224357D01*
X871836Y-224297D01*
X871728Y-224240D01*
X871618Y-224186D01*
X871507Y-224135D01*
X871394Y-224089D01*
X871279Y-224045D01*
X871164Y-224006D01*
X871047Y-223970D01*
X870929Y-223937D01*
X870810Y-223909D01*
X870690Y-223884D01*
X870569Y-223863D01*
X870448Y-223846D01*
X870327Y-223832D01*
X870205Y-223823D01*
X870082Y-223817D01*
X869960Y-223815D01*
X869786Y-223817D01*
X869612Y-223823D01*
X869438Y-223834D01*
X869265Y-223848D01*
X869092Y-223867D01*
X868919Y-223890D01*
X868747Y-223916D01*
X868576Y-223947D01*
X868405Y-223982D01*
X868236Y-224021D01*
X868067Y-224065D01*
X867900Y-224112D01*
X867733Y-224163D01*
X867568Y-224218D01*
X867404Y-224277D01*
X867242Y-224340D01*
X867081Y-224406D01*
X866922Y-224477D01*
X866765Y-224551D01*
X866609Y-224629D01*
X866456Y-224711D01*
X866304Y-224796D01*
X866154Y-224885D01*
X866007Y-224977D01*
X865862Y-225073D01*
X865719Y-225173D01*
X865578Y-225276D01*
X871907Y-231118D02*
X872014Y-231053D01*
X872118Y-230985D01*
X872220Y-230914D01*
X872319Y-230839D01*
X872417Y-230762D01*
X872511Y-230681D01*
X872603Y-230597D01*
X872693Y-230511D01*
X872780Y-230421D01*
X872864Y-230329D01*
X872945Y-230235D01*
X873022Y-230138D01*
X873097Y-230038D01*
X873169Y-229937D01*
X873237Y-229833D01*
X873302Y-229727D01*
X873364Y-229618D01*
X873423Y-229509D01*
X873477Y-229397D01*
X873529Y-229283D01*
X873576Y-229168D01*
X873620Y-229052D01*
X873661Y-228934D01*
X873697Y-228815D01*
X873730Y-228695D01*
X873759Y-228574D01*
X873785Y-228452D01*
X873806Y-228330D01*
X873824Y-228207D01*
X873837Y-228083D01*
X873847Y-227959D01*
X873853Y-227834D01*
X873855Y-227710D01*
X866552Y-234038D02*
X866445Y-234103D01*
X866341Y-234171D01*
X866239Y-234242D01*
X866140Y-234317D01*
X866042Y-234394D01*
X865948Y-234475D01*
X865855Y-234559D01*
X865766Y-234645D01*
X865679Y-234735D01*
X865595Y-234827D01*
X865514Y-234921D01*
X865437Y-235018D01*
X865362Y-235118D01*
X865290Y-235219D01*
X865222Y-235323D01*
X865157Y-235429D01*
X865095Y-235538D01*
X865036Y-235648D01*
X864982Y-235759D01*
X864930Y-235873D01*
X864883Y-235988D01*
X864839Y-236104D01*
X864798Y-236222D01*
X864762Y-236341D01*
X864729Y-236461D01*
X864700Y-236582D01*
X864674Y-236704D01*
X864653Y-236826D01*
X864635Y-236949D01*
X864622Y-237073D01*
X864612Y-237197D01*
X864606Y-237322D01*
X864604Y-237446D01*
X866552Y-234039D02*
X871907Y-231118D01*
X858408Y-229657D02*
X852566Y-229657D01*
X856461Y-223815D02*
X856461Y-238420D01*
X856459Y-238527D01*
X856453Y-238633D01*
X856443Y-238739D01*
X856430Y-238845D01*
X856412Y-238951D01*
X856391Y-239055D01*
X856366Y-239159D01*
X856337Y-239262D01*
X856305Y-239363D01*
X856268Y-239463D01*
X856228Y-239562D01*
X856185Y-239660D01*
X856138Y-239756D01*
X856087Y-239850D01*
X856033Y-239942D01*
X855976Y-240032D01*
X855916Y-240120D01*
X855852Y-240205D01*
X855785Y-240288D01*
X855715Y-240369D01*
X855643Y-240447D01*
X855567Y-240523D01*
X855489Y-240595D01*
X855408Y-240665D01*
X855325Y-240732D01*
X855240Y-240796D01*
X855152Y-240856D01*
X855062Y-240913D01*
X854970Y-240967D01*
X854876Y-241018D01*
X854780Y-241065D01*
X854682Y-241108D01*
X854583Y-241148D01*
X854483Y-241185D01*
X854382Y-241217D01*
X854279Y-241246D01*
X854175Y-241271D01*
X854071Y-241292D01*
X853965Y-241310D01*
X853859Y-241323D01*
X853753Y-241333D01*
X853647Y-241339D01*
X853540Y-241341D01*
X852566Y-241341D01*
X841675Y-234525D02*
X837293Y-234525D01*
X841675Y-234525D02*
X841790Y-234527D01*
X841905Y-234533D01*
X842020Y-234542D01*
X842134Y-234556D01*
X842248Y-234573D01*
X842361Y-234595D01*
X842473Y-234620D01*
X842585Y-234649D01*
X842695Y-234681D01*
X842804Y-234718D01*
X842912Y-234758D01*
X843019Y-234801D01*
X843124Y-234848D01*
X843227Y-234899D01*
X843329Y-234953D01*
X843429Y-235011D01*
X843526Y-235072D01*
X843622Y-235136D01*
X843715Y-235203D01*
X843806Y-235274D01*
X843895Y-235347D01*
X843981Y-235424D01*
X844064Y-235503D01*
X844145Y-235585D01*
X844223Y-235670D01*
X844298Y-235757D01*
X844370Y-235847D01*
X844439Y-235939D01*
X844505Y-236034D01*
X844567Y-236130D01*
X844626Y-236229D01*
X844682Y-236330D01*
X844735Y-236432D01*
X844784Y-236536D01*
X844829Y-236642D01*
X844871Y-236749D01*
X844909Y-236858D01*
X844943Y-236968D01*
X844974Y-237079D01*
X845001Y-237191D01*
X845024Y-237303D01*
X845044Y-237417D01*
X845059Y-237531D01*
X845071Y-237646D01*
X845079Y-237760D01*
X845083Y-237875D01*
X845083Y-237991D01*
X845079Y-238106D01*
X845071Y-238220D01*
X845059Y-238335D01*
X845044Y-238449D01*
X845024Y-238563D01*
X845001Y-238675D01*
X844974Y-238787D01*
X844943Y-238898D01*
X844909Y-239008D01*
X844871Y-239117D01*
X844829Y-239224D01*
X844784Y-239330D01*
X844735Y-239434D01*
X844682Y-239536D01*
X844626Y-239637D01*
X844567Y-239736D01*
X844505Y-239832D01*
X844439Y-239927D01*
X844370Y-240019D01*
X844298Y-240109D01*
X844223Y-240196D01*
X844145Y-240281D01*
X844064Y-240363D01*
X843981Y-240442D01*
X843895Y-240519D01*
X843806Y-240592D01*
X843715Y-240663D01*
X843622Y-240730D01*
X843526Y-240794D01*
X843429Y-240855D01*
X843329Y-240913D01*
X843227Y-240967D01*
X843124Y-241018D01*
X843019Y-241065D01*
X842912Y-241108D01*
X842804Y-241148D01*
X842695Y-241185D01*
X842585Y-241217D01*
X842473Y-241246D01*
X842361Y-241271D01*
X842248Y-241293D01*
X842134Y-241310D01*
X842020Y-241324D01*
X841905Y-241333D01*
X841790Y-241339D01*
X841675Y-241341D01*
X837293Y-241341D01*
X837293Y-232578D01*
X837295Y-232471D01*
X837301Y-232365D01*
X837311Y-232259D01*
X837324Y-232153D01*
X837342Y-232047D01*
X837363Y-231943D01*
X837388Y-231839D01*
X837417Y-231736D01*
X837449Y-231635D01*
X837486Y-231535D01*
X837526Y-231436D01*
X837569Y-231338D01*
X837616Y-231242D01*
X837667Y-231148D01*
X837721Y-231056D01*
X837778Y-230966D01*
X837838Y-230878D01*
X837902Y-230793D01*
X837969Y-230710D01*
X838039Y-230629D01*
X838111Y-230551D01*
X838187Y-230475D01*
X838265Y-230403D01*
X838346Y-230333D01*
X838429Y-230266D01*
X838514Y-230202D01*
X838602Y-230142D01*
X838692Y-230085D01*
X838784Y-230031D01*
X838878Y-229980D01*
X838974Y-229933D01*
X839072Y-229890D01*
X839171Y-229850D01*
X839271Y-229813D01*
X839372Y-229781D01*
X839475Y-229752D01*
X839579Y-229727D01*
X839683Y-229706D01*
X839789Y-229688D01*
X839895Y-229675D01*
X840001Y-229665D01*
X840107Y-229659D01*
X840214Y-229657D01*
X844109Y-229657D01*
X827470Y-229657D02*
X827470Y-241341D01*
X827470Y-229657D02*
X821628Y-229657D01*
X821628Y-231604D01*
X817006Y-229657D02*
X811164Y-229657D01*
X815058Y-223815D02*
X815058Y-238420D01*
X815056Y-238527D01*
X815050Y-238633D01*
X815040Y-238739D01*
X815027Y-238845D01*
X815009Y-238951D01*
X814988Y-239055D01*
X814963Y-239159D01*
X814934Y-239262D01*
X814902Y-239363D01*
X814865Y-239463D01*
X814825Y-239562D01*
X814782Y-239660D01*
X814735Y-239756D01*
X814684Y-239850D01*
X814630Y-239942D01*
X814573Y-240032D01*
X814513Y-240120D01*
X814449Y-240205D01*
X814382Y-240288D01*
X814312Y-240369D01*
X814240Y-240447D01*
X814164Y-240523D01*
X814086Y-240595D01*
X814005Y-240665D01*
X813922Y-240732D01*
X813837Y-240796D01*
X813749Y-240856D01*
X813659Y-240913D01*
X813567Y-240967D01*
X813473Y-241018D01*
X813377Y-241065D01*
X813279Y-241108D01*
X813180Y-241148D01*
X813080Y-241185D01*
X812979Y-241217D01*
X812876Y-241246D01*
X812772Y-241271D01*
X812668Y-241292D01*
X812562Y-241310D01*
X812456Y-241323D01*
X812350Y-241333D01*
X812244Y-241339D01*
X812137Y-241341D01*
X811164Y-241341D01*
X1366341Y-240841D02*
X1366341Y-223315D01*
X1361473Y-223315D01*
X1361335Y-223317D01*
X1361198Y-223323D01*
X1361060Y-223333D01*
X1360923Y-223346D01*
X1360786Y-223364D01*
X1360650Y-223385D01*
X1360515Y-223410D01*
X1360380Y-223439D01*
X1360246Y-223472D01*
X1360114Y-223509D01*
X1359982Y-223549D01*
X1359851Y-223593D01*
X1359722Y-223641D01*
X1359594Y-223692D01*
X1359468Y-223747D01*
X1359343Y-223806D01*
X1359220Y-223868D01*
X1359099Y-223933D01*
X1358980Y-224002D01*
X1358862Y-224074D01*
X1358747Y-224150D01*
X1358634Y-224229D01*
X1358523Y-224310D01*
X1358415Y-224396D01*
X1358309Y-224484D01*
X1358205Y-224575D01*
X1358105Y-224669D01*
X1358007Y-224765D01*
X1357911Y-224865D01*
X1357819Y-224967D01*
X1357729Y-225072D01*
X1357643Y-225179D01*
X1357559Y-225288D01*
X1357479Y-225400D01*
X1357402Y-225514D01*
X1357328Y-225631D01*
X1357257Y-225749D01*
X1357190Y-225869D01*
X1357126Y-225991D01*
X1357066Y-226115D01*
X1357009Y-226241D01*
X1356956Y-226368D01*
X1356906Y-226496D01*
X1356861Y-226626D01*
X1356818Y-226758D01*
X1356780Y-226890D01*
X1356745Y-227023D01*
X1356714Y-227157D01*
X1356687Y-227292D01*
X1356664Y-227428D01*
X1356644Y-227565D01*
X1356629Y-227702D01*
X1356617Y-227839D01*
X1356609Y-227976D01*
X1356605Y-228114D01*
X1356605Y-228252D01*
X1356609Y-228390D01*
X1356617Y-228527D01*
X1356629Y-228664D01*
X1356644Y-228801D01*
X1356664Y-228938D01*
X1356687Y-229074D01*
X1356714Y-229209D01*
X1356745Y-229343D01*
X1356780Y-229476D01*
X1356818Y-229608D01*
X1356861Y-229740D01*
X1356906Y-229870D01*
X1356956Y-229998D01*
X1357009Y-230125D01*
X1357066Y-230251D01*
X1357126Y-230375D01*
X1357190Y-230497D01*
X1357257Y-230617D01*
X1357328Y-230735D01*
X1357402Y-230852D01*
X1357479Y-230966D01*
X1357559Y-231078D01*
X1357643Y-231187D01*
X1357729Y-231294D01*
X1357819Y-231399D01*
X1357911Y-231501D01*
X1358007Y-231601D01*
X1358105Y-231697D01*
X1358205Y-231791D01*
X1358309Y-231882D01*
X1358415Y-231970D01*
X1358523Y-232056D01*
X1358634Y-232137D01*
X1358747Y-232216D01*
X1358862Y-232292D01*
X1358980Y-232364D01*
X1359099Y-232433D01*
X1359220Y-232498D01*
X1359343Y-232560D01*
X1359468Y-232619D01*
X1359594Y-232674D01*
X1359722Y-232725D01*
X1359851Y-232773D01*
X1359982Y-232817D01*
X1360114Y-232857D01*
X1360246Y-232894D01*
X1360380Y-232927D01*
X1360515Y-232956D01*
X1360650Y-232981D01*
X1360786Y-233002D01*
X1360923Y-233020D01*
X1361060Y-233033D01*
X1361198Y-233043D01*
X1361335Y-233049D01*
X1361473Y-233051D01*
X1361473Y-233052D02*
X1366341Y-233052D01*
X1360499Y-233052D02*
X1356604Y-240841D01*
X1345320Y-240841D02*
X1340451Y-240841D01*
X1345320Y-240841D02*
X1345427Y-240839D01*
X1345533Y-240833D01*
X1345639Y-240823D01*
X1345745Y-240810D01*
X1345851Y-240792D01*
X1345955Y-240771D01*
X1346059Y-240746D01*
X1346162Y-240717D01*
X1346263Y-240685D01*
X1346363Y-240648D01*
X1346462Y-240608D01*
X1346560Y-240565D01*
X1346656Y-240518D01*
X1346750Y-240467D01*
X1346842Y-240413D01*
X1346932Y-240356D01*
X1347020Y-240296D01*
X1347105Y-240232D01*
X1347188Y-240165D01*
X1347269Y-240095D01*
X1347347Y-240023D01*
X1347423Y-239947D01*
X1347495Y-239869D01*
X1347565Y-239788D01*
X1347632Y-239705D01*
X1347696Y-239620D01*
X1347756Y-239532D01*
X1347813Y-239442D01*
X1347867Y-239350D01*
X1347918Y-239256D01*
X1347965Y-239160D01*
X1348008Y-239062D01*
X1348048Y-238963D01*
X1348085Y-238863D01*
X1348117Y-238762D01*
X1348146Y-238659D01*
X1348171Y-238555D01*
X1348192Y-238451D01*
X1348210Y-238345D01*
X1348223Y-238239D01*
X1348233Y-238133D01*
X1348239Y-238027D01*
X1348241Y-237920D01*
X1348241Y-233052D01*
X1348239Y-232928D01*
X1348233Y-232805D01*
X1348223Y-232682D01*
X1348210Y-232559D01*
X1348192Y-232437D01*
X1348171Y-232315D01*
X1348145Y-232194D01*
X1348116Y-232074D01*
X1348083Y-231955D01*
X1348047Y-231837D01*
X1348006Y-231720D01*
X1347962Y-231604D01*
X1347914Y-231490D01*
X1347863Y-231378D01*
X1347808Y-231267D01*
X1347750Y-231158D01*
X1347688Y-231051D01*
X1347623Y-230946D01*
X1347554Y-230843D01*
X1347483Y-230743D01*
X1347408Y-230644D01*
X1347330Y-230548D01*
X1347249Y-230455D01*
X1347165Y-230364D01*
X1347078Y-230276D01*
X1346989Y-230191D01*
X1346897Y-230108D01*
X1346802Y-230029D01*
X1346705Y-229953D01*
X1346605Y-229879D01*
X1346504Y-229809D01*
X1346400Y-229742D01*
X1346294Y-229679D01*
X1346185Y-229619D01*
X1346076Y-229562D01*
X1345964Y-229509D01*
X1345851Y-229459D01*
X1345736Y-229413D01*
X1345620Y-229371D01*
X1345503Y-229333D01*
X1345384Y-229298D01*
X1345264Y-229267D01*
X1345144Y-229240D01*
X1345022Y-229216D01*
X1344900Y-229197D01*
X1344778Y-229181D01*
X1344655Y-229169D01*
X1344531Y-229161D01*
X1344408Y-229157D01*
X1344284Y-229157D01*
X1344161Y-229161D01*
X1344037Y-229169D01*
X1343914Y-229181D01*
X1343792Y-229197D01*
X1343670Y-229216D01*
X1343548Y-229240D01*
X1343428Y-229267D01*
X1343308Y-229298D01*
X1343189Y-229333D01*
X1343072Y-229371D01*
X1342956Y-229413D01*
X1342841Y-229459D01*
X1342728Y-229509D01*
X1342616Y-229562D01*
X1342507Y-229619D01*
X1342399Y-229679D01*
X1342292Y-229742D01*
X1342188Y-229809D01*
X1342087Y-229879D01*
X1341987Y-229953D01*
X1341890Y-230029D01*
X1341795Y-230108D01*
X1341703Y-230191D01*
X1341614Y-230276D01*
X1341527Y-230364D01*
X1341443Y-230455D01*
X1341362Y-230548D01*
X1341284Y-230644D01*
X1341209Y-230743D01*
X1341138Y-230843D01*
X1341069Y-230946D01*
X1341004Y-231051D01*
X1340942Y-231158D01*
X1340884Y-231267D01*
X1340829Y-231378D01*
X1340778Y-231490D01*
X1340730Y-231604D01*
X1340686Y-231720D01*
X1340645Y-231837D01*
X1340609Y-231955D01*
X1340576Y-232074D01*
X1340547Y-232194D01*
X1340521Y-232315D01*
X1340500Y-232437D01*
X1340482Y-232559D01*
X1340469Y-232682D01*
X1340459Y-232805D01*
X1340453Y-232928D01*
X1340451Y-233052D01*
X1340451Y-234999D01*
X1348241Y-234999D01*
X1330713Y-234025D02*
X1325845Y-235973D01*
X1330714Y-234025D02*
X1330806Y-233986D01*
X1330897Y-233944D01*
X1330985Y-233898D01*
X1331072Y-233848D01*
X1331157Y-233795D01*
X1331240Y-233738D01*
X1331320Y-233679D01*
X1331398Y-233616D01*
X1331474Y-233550D01*
X1331546Y-233481D01*
X1331616Y-233410D01*
X1331683Y-233335D01*
X1331748Y-233259D01*
X1331808Y-233179D01*
X1331866Y-233097D01*
X1331921Y-233013D01*
X1331972Y-232927D01*
X1332020Y-232839D01*
X1332064Y-232750D01*
X1332104Y-232658D01*
X1332141Y-232565D01*
X1332174Y-232471D01*
X1332204Y-232375D01*
X1332229Y-232278D01*
X1332251Y-232180D01*
X1332269Y-232082D01*
X1332283Y-231983D01*
X1332293Y-231883D01*
X1332299Y-231783D01*
X1332301Y-231683D01*
X1332299Y-231583D01*
X1332293Y-231483D01*
X1332283Y-231383D01*
X1332270Y-231284D01*
X1332252Y-231186D01*
X1332230Y-231088D01*
X1332205Y-230991D01*
X1332176Y-230895D01*
X1332143Y-230801D01*
X1332106Y-230708D01*
X1332066Y-230616D01*
X1332022Y-230526D01*
X1331974Y-230438D01*
X1331923Y-230352D01*
X1331869Y-230268D01*
X1331811Y-230186D01*
X1331750Y-230107D01*
X1331686Y-230030D01*
X1331619Y-229955D01*
X1331549Y-229884D01*
X1331477Y-229815D01*
X1331401Y-229749D01*
X1331324Y-229686D01*
X1331243Y-229626D01*
X1331161Y-229570D01*
X1331076Y-229516D01*
X1330989Y-229466D01*
X1330900Y-229420D01*
X1330810Y-229377D01*
X1330718Y-229338D01*
X1330624Y-229303D01*
X1330529Y-229271D01*
X1330433Y-229243D01*
X1330336Y-229219D01*
X1330238Y-229199D01*
X1330139Y-229182D01*
X1330040Y-229170D01*
X1329940Y-229161D01*
X1329840Y-229157D01*
X1329740Y-229156D01*
X1329740Y-229157D02*
X1329474Y-229164D01*
X1329209Y-229178D01*
X1328944Y-229197D01*
X1328679Y-229223D01*
X1328415Y-229256D01*
X1328152Y-229295D01*
X1327890Y-229340D01*
X1327629Y-229391D01*
X1327370Y-229449D01*
X1327112Y-229513D01*
X1326855Y-229583D01*
X1326601Y-229659D01*
X1326348Y-229741D01*
X1326097Y-229830D01*
X1325848Y-229924D01*
X1325602Y-230025D01*
X1325359Y-230131D01*
X1325845Y-235973D02*
X1325753Y-236012D01*
X1325662Y-236054D01*
X1325574Y-236100D01*
X1325487Y-236150D01*
X1325402Y-236203D01*
X1325319Y-236260D01*
X1325239Y-236319D01*
X1325161Y-236382D01*
X1325085Y-236448D01*
X1325013Y-236517D01*
X1324943Y-236588D01*
X1324876Y-236662D01*
X1324812Y-236739D01*
X1324751Y-236819D01*
X1324693Y-236901D01*
X1324638Y-236984D01*
X1324587Y-237071D01*
X1324539Y-237159D01*
X1324495Y-237248D01*
X1324455Y-237340D01*
X1324418Y-237433D01*
X1324385Y-237527D01*
X1324355Y-237623D01*
X1324330Y-237720D01*
X1324308Y-237818D01*
X1324290Y-237916D01*
X1324276Y-238015D01*
X1324266Y-238115D01*
X1324260Y-238215D01*
X1324258Y-238315D01*
X1324260Y-238415D01*
X1324266Y-238515D01*
X1324276Y-238615D01*
X1324289Y-238714D01*
X1324307Y-238812D01*
X1324329Y-238910D01*
X1324354Y-239007D01*
X1324383Y-239103D01*
X1324416Y-239197D01*
X1324453Y-239290D01*
X1324493Y-239382D01*
X1324537Y-239472D01*
X1324585Y-239560D01*
X1324636Y-239646D01*
X1324690Y-239730D01*
X1324748Y-239812D01*
X1324809Y-239891D01*
X1324873Y-239968D01*
X1324940Y-240043D01*
X1325010Y-240114D01*
X1325082Y-240183D01*
X1325158Y-240249D01*
X1325235Y-240312D01*
X1325316Y-240372D01*
X1325398Y-240428D01*
X1325483Y-240482D01*
X1325570Y-240532D01*
X1325659Y-240578D01*
X1325749Y-240621D01*
X1325841Y-240660D01*
X1325935Y-240695D01*
X1326030Y-240727D01*
X1326126Y-240755D01*
X1326223Y-240779D01*
X1326321Y-240799D01*
X1326420Y-240816D01*
X1326519Y-240828D01*
X1326619Y-240837D01*
X1326719Y-240841D01*
X1326819Y-240842D01*
X1326819Y-240841D02*
X1327209Y-240831D01*
X1327599Y-240812D01*
X1327989Y-240783D01*
X1328378Y-240745D01*
X1328765Y-240698D01*
X1329152Y-240642D01*
X1329537Y-240577D01*
X1329920Y-240502D01*
X1330302Y-240419D01*
X1330681Y-240326D01*
X1331058Y-240225D01*
X1331433Y-240115D01*
X1331805Y-239996D01*
X1332174Y-239868D01*
X1313186Y-240841D02*
X1308318Y-240841D01*
X1313186Y-240841D02*
X1313293Y-240839D01*
X1313399Y-240833D01*
X1313505Y-240823D01*
X1313611Y-240810D01*
X1313717Y-240792D01*
X1313821Y-240771D01*
X1313925Y-240746D01*
X1314028Y-240717D01*
X1314129Y-240685D01*
X1314229Y-240648D01*
X1314328Y-240608D01*
X1314426Y-240565D01*
X1314522Y-240518D01*
X1314616Y-240467D01*
X1314708Y-240413D01*
X1314798Y-240356D01*
X1314886Y-240296D01*
X1314971Y-240232D01*
X1315054Y-240165D01*
X1315135Y-240095D01*
X1315213Y-240023D01*
X1315289Y-239947D01*
X1315361Y-239869D01*
X1315431Y-239788D01*
X1315498Y-239705D01*
X1315562Y-239620D01*
X1315622Y-239532D01*
X1315679Y-239442D01*
X1315733Y-239350D01*
X1315784Y-239256D01*
X1315831Y-239160D01*
X1315874Y-239062D01*
X1315914Y-238963D01*
X1315951Y-238863D01*
X1315983Y-238762D01*
X1316012Y-238659D01*
X1316037Y-238555D01*
X1316058Y-238451D01*
X1316076Y-238345D01*
X1316089Y-238239D01*
X1316099Y-238133D01*
X1316105Y-238027D01*
X1316107Y-237920D01*
X1316107Y-233052D01*
X1316108Y-233052D02*
X1316106Y-232928D01*
X1316100Y-232805D01*
X1316090Y-232682D01*
X1316077Y-232559D01*
X1316059Y-232437D01*
X1316038Y-232315D01*
X1316012Y-232194D01*
X1315983Y-232074D01*
X1315950Y-231955D01*
X1315914Y-231837D01*
X1315873Y-231720D01*
X1315829Y-231604D01*
X1315781Y-231490D01*
X1315730Y-231378D01*
X1315675Y-231267D01*
X1315617Y-231158D01*
X1315555Y-231051D01*
X1315490Y-230946D01*
X1315421Y-230843D01*
X1315350Y-230743D01*
X1315275Y-230644D01*
X1315197Y-230548D01*
X1315116Y-230455D01*
X1315032Y-230364D01*
X1314945Y-230276D01*
X1314856Y-230191D01*
X1314764Y-230108D01*
X1314669Y-230029D01*
X1314572Y-229953D01*
X1314472Y-229879D01*
X1314371Y-229809D01*
X1314267Y-229742D01*
X1314161Y-229679D01*
X1314052Y-229619D01*
X1313943Y-229562D01*
X1313831Y-229509D01*
X1313718Y-229459D01*
X1313603Y-229413D01*
X1313487Y-229371D01*
X1313370Y-229333D01*
X1313251Y-229298D01*
X1313131Y-229267D01*
X1313011Y-229240D01*
X1312889Y-229216D01*
X1312767Y-229197D01*
X1312645Y-229181D01*
X1312522Y-229169D01*
X1312398Y-229161D01*
X1312275Y-229157D01*
X1312151Y-229157D01*
X1312028Y-229161D01*
X1311904Y-229169D01*
X1311781Y-229181D01*
X1311659Y-229197D01*
X1311537Y-229216D01*
X1311415Y-229240D01*
X1311295Y-229267D01*
X1311175Y-229298D01*
X1311056Y-229333D01*
X1310939Y-229371D01*
X1310823Y-229413D01*
X1310708Y-229459D01*
X1310595Y-229509D01*
X1310483Y-229562D01*
X1310374Y-229619D01*
X1310266Y-229679D01*
X1310159Y-229742D01*
X1310055Y-229809D01*
X1309954Y-229879D01*
X1309854Y-229953D01*
X1309757Y-230029D01*
X1309662Y-230108D01*
X1309570Y-230191D01*
X1309481Y-230276D01*
X1309394Y-230364D01*
X1309310Y-230455D01*
X1309229Y-230548D01*
X1309151Y-230644D01*
X1309076Y-230743D01*
X1309005Y-230843D01*
X1308936Y-230946D01*
X1308871Y-231051D01*
X1308809Y-231158D01*
X1308751Y-231267D01*
X1308696Y-231378D01*
X1308645Y-231490D01*
X1308597Y-231604D01*
X1308553Y-231720D01*
X1308512Y-231837D01*
X1308476Y-231955D01*
X1308443Y-232074D01*
X1308414Y-232194D01*
X1308388Y-232315D01*
X1308367Y-232437D01*
X1308349Y-232559D01*
X1308336Y-232682D01*
X1308326Y-232805D01*
X1308320Y-232928D01*
X1308318Y-233052D01*
X1308318Y-234999D01*
X1316107Y-234999D01*
X1301766Y-229157D02*
X1295924Y-229157D01*
X1299819Y-223315D02*
X1299819Y-237920D01*
X1299817Y-238027D01*
X1299811Y-238133D01*
X1299801Y-238239D01*
X1299788Y-238345D01*
X1299770Y-238451D01*
X1299749Y-238555D01*
X1299724Y-238659D01*
X1299695Y-238762D01*
X1299663Y-238863D01*
X1299626Y-238963D01*
X1299586Y-239062D01*
X1299543Y-239160D01*
X1299496Y-239256D01*
X1299445Y-239350D01*
X1299391Y-239442D01*
X1299334Y-239532D01*
X1299274Y-239620D01*
X1299210Y-239705D01*
X1299143Y-239788D01*
X1299073Y-239869D01*
X1299001Y-239947D01*
X1298925Y-240023D01*
X1298847Y-240095D01*
X1298766Y-240165D01*
X1298683Y-240232D01*
X1298598Y-240296D01*
X1298510Y-240356D01*
X1298420Y-240413D01*
X1298328Y-240467D01*
X1298234Y-240518D01*
X1298138Y-240565D01*
X1298040Y-240608D01*
X1297941Y-240648D01*
X1297841Y-240685D01*
X1297740Y-240717D01*
X1297637Y-240746D01*
X1297533Y-240771D01*
X1297429Y-240792D01*
X1297323Y-240810D01*
X1297217Y-240823D01*
X1297111Y-240833D01*
X1297005Y-240839D01*
X1296898Y-240841D01*
X1295924Y-240841D01*
X1339052Y260659D02*
X1342946Y260659D01*
X1343068Y260661D01*
X1343191Y260667D01*
X1343313Y260676D01*
X1343434Y260690D01*
X1343555Y260707D01*
X1343676Y260728D01*
X1343796Y260753D01*
X1343915Y260781D01*
X1344033Y260814D01*
X1344150Y260850D01*
X1344265Y260889D01*
X1344380Y260933D01*
X1344493Y260979D01*
X1344604Y261030D01*
X1344714Y261084D01*
X1344822Y261141D01*
X1344929Y261201D01*
X1345033Y261265D01*
X1345135Y261333D01*
X1345235Y261403D01*
X1345333Y261476D01*
X1345429Y261553D01*
X1345522Y261632D01*
X1345612Y261715D01*
X1345700Y261800D01*
X1345785Y261888D01*
X1345868Y261978D01*
X1345947Y262071D01*
X1346024Y262167D01*
X1346097Y262265D01*
X1346167Y262365D01*
X1346235Y262467D01*
X1346299Y262571D01*
X1346359Y262678D01*
X1346416Y262786D01*
X1346470Y262896D01*
X1346521Y263007D01*
X1346567Y263120D01*
X1346611Y263235D01*
X1346650Y263350D01*
X1346686Y263467D01*
X1346719Y263585D01*
X1346747Y263704D01*
X1346772Y263824D01*
X1346793Y263945D01*
X1346810Y264066D01*
X1346824Y264187D01*
X1346833Y264309D01*
X1346839Y264432D01*
X1346841Y264554D01*
X1346841Y274290D01*
X1346839Y274412D01*
X1346833Y274535D01*
X1346824Y274657D01*
X1346810Y274778D01*
X1346793Y274899D01*
X1346772Y275020D01*
X1346747Y275140D01*
X1346719Y275259D01*
X1346686Y275377D01*
X1346650Y275494D01*
X1346611Y275609D01*
X1346567Y275724D01*
X1346521Y275837D01*
X1346470Y275948D01*
X1346416Y276058D01*
X1346359Y276166D01*
X1346299Y276273D01*
X1346235Y276377D01*
X1346167Y276479D01*
X1346097Y276579D01*
X1346024Y276677D01*
X1345947Y276773D01*
X1345868Y276866D01*
X1345785Y276956D01*
X1345700Y277044D01*
X1345612Y277129D01*
X1345522Y277212D01*
X1345429Y277291D01*
X1345333Y277368D01*
X1345235Y277441D01*
X1345135Y277511D01*
X1345033Y277579D01*
X1344929Y277643D01*
X1344822Y277703D01*
X1344714Y277760D01*
X1344604Y277814D01*
X1344493Y277865D01*
X1344380Y277911D01*
X1344265Y277955D01*
X1344150Y277994D01*
X1344033Y278030D01*
X1343915Y278063D01*
X1343796Y278091D01*
X1343676Y278116D01*
X1343555Y278137D01*
X1343434Y278154D01*
X1343313Y278168D01*
X1343191Y278177D01*
X1343068Y278183D01*
X1342946Y278185D01*
X1339052Y278185D01*
X1332296Y278185D02*
X1326454Y260659D01*
X1320612Y278185D01*
X1312784Y274290D02*
X1307915Y278185D01*
X1307915Y260659D01*
X1303047Y260659D02*
X1312784Y260659D01*
X1357973Y522159D02*
X1357973Y539685D01*
X1362841Y539685D02*
X1353104Y539685D01*
X1345013Y533843D02*
X1345013Y522159D01*
X1345013Y533843D02*
X1339171Y533843D01*
X1339171Y531896D01*
X1333255Y533843D02*
X1333255Y522159D01*
X1333742Y538711D02*
X1333742Y539685D01*
X1332768Y539685D01*
X1332768Y538711D01*
X1333742Y538711D01*
X1322628Y522159D02*
X1317760Y522159D01*
X1322628Y522159D02*
X1322735Y522161D01*
X1322841Y522167D01*
X1322947Y522177D01*
X1323053Y522190D01*
X1323159Y522208D01*
X1323263Y522229D01*
X1323367Y522254D01*
X1323470Y522283D01*
X1323571Y522315D01*
X1323671Y522352D01*
X1323770Y522392D01*
X1323868Y522435D01*
X1323964Y522482D01*
X1324058Y522533D01*
X1324150Y522587D01*
X1324240Y522644D01*
X1324328Y522704D01*
X1324413Y522768D01*
X1324496Y522835D01*
X1324577Y522905D01*
X1324655Y522977D01*
X1324731Y523053D01*
X1324803Y523131D01*
X1324873Y523212D01*
X1324940Y523295D01*
X1325004Y523380D01*
X1325064Y523468D01*
X1325121Y523558D01*
X1325175Y523650D01*
X1325226Y523744D01*
X1325273Y523840D01*
X1325316Y523938D01*
X1325356Y524037D01*
X1325393Y524137D01*
X1325425Y524238D01*
X1325454Y524341D01*
X1325479Y524445D01*
X1325500Y524549D01*
X1325518Y524655D01*
X1325531Y524761D01*
X1325541Y524867D01*
X1325547Y524973D01*
X1325549Y525080D01*
X1325549Y530922D01*
X1325547Y531029D01*
X1325541Y531135D01*
X1325531Y531241D01*
X1325518Y531347D01*
X1325500Y531453D01*
X1325479Y531557D01*
X1325454Y531661D01*
X1325425Y531764D01*
X1325393Y531865D01*
X1325356Y531965D01*
X1325316Y532064D01*
X1325273Y532162D01*
X1325226Y532258D01*
X1325175Y532352D01*
X1325121Y532444D01*
X1325064Y532534D01*
X1325004Y532622D01*
X1324940Y532707D01*
X1324873Y532790D01*
X1324803Y532871D01*
X1324731Y532949D01*
X1324655Y533025D01*
X1324577Y533097D01*
X1324496Y533167D01*
X1324413Y533234D01*
X1324328Y533298D01*
X1324240Y533358D01*
X1324150Y533415D01*
X1324058Y533469D01*
X1323964Y533520D01*
X1323868Y533567D01*
X1323770Y533610D01*
X1323671Y533650D01*
X1323571Y533687D01*
X1323470Y533719D01*
X1323367Y533748D01*
X1323263Y533773D01*
X1323159Y533794D01*
X1323053Y533812D01*
X1322947Y533825D01*
X1322841Y533835D01*
X1322735Y533841D01*
X1322628Y533843D01*
X1317760Y533843D01*
X1317760Y519238D01*
X1317762Y519131D01*
X1317768Y519025D01*
X1317778Y518919D01*
X1317791Y518813D01*
X1317809Y518707D01*
X1317830Y518603D01*
X1317855Y518499D01*
X1317884Y518396D01*
X1317916Y518295D01*
X1317953Y518195D01*
X1317993Y518096D01*
X1318036Y517998D01*
X1318083Y517902D01*
X1318134Y517808D01*
X1318188Y517716D01*
X1318245Y517626D01*
X1318305Y517538D01*
X1318369Y517453D01*
X1318436Y517370D01*
X1318506Y517289D01*
X1318578Y517211D01*
X1318654Y517135D01*
X1318732Y517063D01*
X1318813Y516993D01*
X1318896Y516926D01*
X1318981Y516862D01*
X1319069Y516802D01*
X1319159Y516745D01*
X1319251Y516691D01*
X1319345Y516640D01*
X1319441Y516593D01*
X1319539Y516550D01*
X1319638Y516510D01*
X1319738Y516473D01*
X1319839Y516441D01*
X1319942Y516412D01*
X1320046Y516387D01*
X1320150Y516366D01*
X1320256Y516348D01*
X1320362Y516335D01*
X1320468Y516325D01*
X1320574Y516319D01*
X1320681Y516317D01*
X1324576Y516317D01*
X1298575Y535790D02*
X1293707Y539685D01*
X1293707Y522159D01*
X1298575Y522159D02*
X1288838Y522159D01*
X1279540Y522159D02*
X1279540Y539685D01*
X1279540Y522159D02*
X1274672Y522159D01*
X1274565Y522161D01*
X1274459Y522167D01*
X1274353Y522177D01*
X1274247Y522190D01*
X1274141Y522208D01*
X1274037Y522229D01*
X1273933Y522254D01*
X1273830Y522283D01*
X1273729Y522315D01*
X1273629Y522352D01*
X1273530Y522392D01*
X1273432Y522435D01*
X1273336Y522482D01*
X1273242Y522533D01*
X1273150Y522587D01*
X1273060Y522644D01*
X1272972Y522704D01*
X1272887Y522768D01*
X1272804Y522835D01*
X1272723Y522905D01*
X1272645Y522977D01*
X1272569Y523053D01*
X1272497Y523131D01*
X1272427Y523212D01*
X1272360Y523295D01*
X1272296Y523380D01*
X1272236Y523468D01*
X1272179Y523558D01*
X1272125Y523650D01*
X1272074Y523744D01*
X1272027Y523840D01*
X1271984Y523938D01*
X1271944Y524037D01*
X1271907Y524137D01*
X1271875Y524238D01*
X1271846Y524341D01*
X1271821Y524445D01*
X1271800Y524549D01*
X1271782Y524655D01*
X1271769Y524761D01*
X1271759Y524867D01*
X1271753Y524973D01*
X1271751Y525080D01*
X1271751Y530922D01*
X1271753Y531029D01*
X1271759Y531135D01*
X1271769Y531241D01*
X1271782Y531347D01*
X1271800Y531453D01*
X1271821Y531557D01*
X1271846Y531661D01*
X1271875Y531764D01*
X1271907Y531865D01*
X1271944Y531965D01*
X1271984Y532064D01*
X1272027Y532162D01*
X1272074Y532258D01*
X1272125Y532352D01*
X1272179Y532444D01*
X1272236Y532534D01*
X1272296Y532622D01*
X1272360Y532707D01*
X1272427Y532790D01*
X1272497Y532871D01*
X1272569Y532949D01*
X1272645Y533025D01*
X1272723Y533097D01*
X1272804Y533167D01*
X1272887Y533234D01*
X1272972Y533298D01*
X1273060Y533358D01*
X1273150Y533415D01*
X1273242Y533469D01*
X1273336Y533520D01*
X1273432Y533567D01*
X1273530Y533610D01*
X1273629Y533650D01*
X1273729Y533687D01*
X1273830Y533719D01*
X1273933Y533748D01*
X1274037Y533773D01*
X1274141Y533794D01*
X1274247Y533812D01*
X1274353Y533825D01*
X1274459Y533835D01*
X1274565Y533841D01*
X1274672Y533843D01*
X1279540Y533843D01*
X1357473Y712659D02*
X1357473Y730185D01*
X1362341Y730185D02*
X1352604Y730185D01*
X1344513Y724343D02*
X1344513Y712659D01*
X1344513Y724343D02*
X1338671Y724343D01*
X1338671Y722396D01*
X1332755Y724343D02*
X1332755Y712659D01*
X1333242Y729211D02*
X1333242Y730185D01*
X1332268Y730185D01*
X1332268Y729211D01*
X1333242Y729211D01*
X1322128Y712659D02*
X1317260Y712659D01*
X1322128Y712659D02*
X1322235Y712661D01*
X1322341Y712667D01*
X1322447Y712677D01*
X1322553Y712690D01*
X1322659Y712708D01*
X1322763Y712729D01*
X1322867Y712754D01*
X1322970Y712783D01*
X1323071Y712815D01*
X1323171Y712852D01*
X1323270Y712892D01*
X1323368Y712935D01*
X1323464Y712982D01*
X1323558Y713033D01*
X1323650Y713087D01*
X1323740Y713144D01*
X1323828Y713204D01*
X1323913Y713268D01*
X1323996Y713335D01*
X1324077Y713405D01*
X1324155Y713477D01*
X1324231Y713553D01*
X1324303Y713631D01*
X1324373Y713712D01*
X1324440Y713795D01*
X1324504Y713880D01*
X1324564Y713968D01*
X1324621Y714058D01*
X1324675Y714150D01*
X1324726Y714244D01*
X1324773Y714340D01*
X1324816Y714438D01*
X1324856Y714537D01*
X1324893Y714637D01*
X1324925Y714738D01*
X1324954Y714841D01*
X1324979Y714945D01*
X1325000Y715049D01*
X1325018Y715155D01*
X1325031Y715261D01*
X1325041Y715367D01*
X1325047Y715473D01*
X1325049Y715580D01*
X1325049Y721422D01*
X1325047Y721529D01*
X1325041Y721635D01*
X1325031Y721741D01*
X1325018Y721847D01*
X1325000Y721953D01*
X1324979Y722057D01*
X1324954Y722161D01*
X1324925Y722264D01*
X1324893Y722365D01*
X1324856Y722465D01*
X1324816Y722564D01*
X1324773Y722662D01*
X1324726Y722758D01*
X1324675Y722852D01*
X1324621Y722944D01*
X1324564Y723034D01*
X1324504Y723122D01*
X1324440Y723207D01*
X1324373Y723290D01*
X1324303Y723371D01*
X1324231Y723449D01*
X1324155Y723525D01*
X1324077Y723597D01*
X1323996Y723667D01*
X1323913Y723734D01*
X1323828Y723798D01*
X1323740Y723858D01*
X1323650Y723915D01*
X1323558Y723969D01*
X1323464Y724020D01*
X1323368Y724067D01*
X1323270Y724110D01*
X1323171Y724150D01*
X1323071Y724187D01*
X1322970Y724219D01*
X1322867Y724248D01*
X1322763Y724273D01*
X1322659Y724294D01*
X1322553Y724312D01*
X1322447Y724325D01*
X1322341Y724335D01*
X1322235Y724341D01*
X1322128Y724343D01*
X1317260Y724343D01*
X1317260Y709738D01*
X1317262Y709631D01*
X1317268Y709525D01*
X1317278Y709419D01*
X1317291Y709313D01*
X1317309Y709207D01*
X1317330Y709103D01*
X1317355Y708999D01*
X1317384Y708896D01*
X1317416Y708795D01*
X1317453Y708695D01*
X1317493Y708596D01*
X1317536Y708498D01*
X1317583Y708402D01*
X1317634Y708308D01*
X1317688Y708216D01*
X1317745Y708126D01*
X1317805Y708038D01*
X1317869Y707953D01*
X1317936Y707870D01*
X1318006Y707789D01*
X1318078Y707711D01*
X1318154Y707635D01*
X1318232Y707563D01*
X1318313Y707493D01*
X1318396Y707426D01*
X1318481Y707362D01*
X1318569Y707302D01*
X1318659Y707245D01*
X1318751Y707191D01*
X1318845Y707140D01*
X1318941Y707093D01*
X1319039Y707050D01*
X1319138Y707010D01*
X1319238Y706973D01*
X1319339Y706941D01*
X1319442Y706912D01*
X1319546Y706887D01*
X1319650Y706866D01*
X1319756Y706848D01*
X1319862Y706835D01*
X1319968Y706825D01*
X1320074Y706819D01*
X1320181Y706817D01*
X1324076Y706817D01*
X1298075Y726290D02*
X1293207Y730185D01*
X1293207Y712659D01*
X1298075Y712659D02*
X1288338Y712659D01*
X1276531Y719475D02*
X1272150Y719475D01*
X1276531Y719475D02*
X1276646Y719473D01*
X1276761Y719467D01*
X1276876Y719458D01*
X1276990Y719444D01*
X1277104Y719427D01*
X1277217Y719405D01*
X1277329Y719380D01*
X1277441Y719351D01*
X1277551Y719319D01*
X1277660Y719282D01*
X1277768Y719242D01*
X1277875Y719199D01*
X1277980Y719152D01*
X1278083Y719101D01*
X1278185Y719047D01*
X1278285Y718989D01*
X1278382Y718928D01*
X1278478Y718864D01*
X1278571Y718797D01*
X1278662Y718726D01*
X1278751Y718653D01*
X1278837Y718576D01*
X1278920Y718497D01*
X1279001Y718415D01*
X1279079Y718330D01*
X1279154Y718243D01*
X1279226Y718153D01*
X1279295Y718061D01*
X1279361Y717966D01*
X1279423Y717870D01*
X1279482Y717771D01*
X1279538Y717670D01*
X1279591Y717568D01*
X1279640Y717464D01*
X1279685Y717358D01*
X1279727Y717251D01*
X1279765Y717142D01*
X1279799Y717032D01*
X1279830Y716921D01*
X1279857Y716809D01*
X1279880Y716697D01*
X1279900Y716583D01*
X1279915Y716469D01*
X1279927Y716354D01*
X1279935Y716240D01*
X1279939Y716125D01*
X1279939Y716009D01*
X1279935Y715894D01*
X1279927Y715780D01*
X1279915Y715665D01*
X1279900Y715551D01*
X1279880Y715437D01*
X1279857Y715325D01*
X1279830Y715213D01*
X1279799Y715102D01*
X1279765Y714992D01*
X1279727Y714883D01*
X1279685Y714776D01*
X1279640Y714670D01*
X1279591Y714566D01*
X1279538Y714464D01*
X1279482Y714363D01*
X1279423Y714264D01*
X1279361Y714168D01*
X1279295Y714073D01*
X1279226Y713981D01*
X1279154Y713891D01*
X1279079Y713804D01*
X1279001Y713719D01*
X1278920Y713637D01*
X1278837Y713558D01*
X1278751Y713481D01*
X1278662Y713408D01*
X1278571Y713337D01*
X1278478Y713270D01*
X1278382Y713206D01*
X1278285Y713145D01*
X1278185Y713087D01*
X1278083Y713033D01*
X1277980Y712982D01*
X1277875Y712935D01*
X1277768Y712892D01*
X1277660Y712852D01*
X1277551Y712815D01*
X1277441Y712783D01*
X1277329Y712754D01*
X1277217Y712729D01*
X1277104Y712707D01*
X1276990Y712690D01*
X1276876Y712676D01*
X1276761Y712667D01*
X1276646Y712661D01*
X1276531Y712659D01*
X1272150Y712659D01*
X1272150Y721422D01*
X1272152Y721529D01*
X1272158Y721635D01*
X1272168Y721741D01*
X1272181Y721847D01*
X1272199Y721953D01*
X1272220Y722057D01*
X1272245Y722161D01*
X1272274Y722264D01*
X1272306Y722365D01*
X1272343Y722465D01*
X1272383Y722564D01*
X1272426Y722662D01*
X1272473Y722758D01*
X1272524Y722852D01*
X1272578Y722944D01*
X1272635Y723034D01*
X1272695Y723122D01*
X1272759Y723207D01*
X1272826Y723290D01*
X1272896Y723371D01*
X1272968Y723449D01*
X1273044Y723525D01*
X1273122Y723597D01*
X1273203Y723667D01*
X1273286Y723734D01*
X1273371Y723798D01*
X1273459Y723858D01*
X1273549Y723915D01*
X1273641Y723969D01*
X1273735Y724020D01*
X1273831Y724067D01*
X1273929Y724110D01*
X1274028Y724150D01*
X1274128Y724187D01*
X1274229Y724219D01*
X1274332Y724248D01*
X1274436Y724273D01*
X1274540Y724294D01*
X1274646Y724312D01*
X1274752Y724325D01*
X1274858Y724335D01*
X1274964Y724341D01*
X1275071Y724343D01*
X1278966Y724343D01*
X879473Y539685D02*
X879473Y522159D01*
X884341Y539685D02*
X874604Y539685D01*
X866513Y533843D02*
X866513Y522159D01*
X866513Y533843D02*
X860671Y533843D01*
X860671Y531896D01*
X854755Y533843D02*
X854755Y522159D01*
X855242Y538711D02*
X855242Y539685D01*
X854268Y539685D01*
X854268Y538711D01*
X855242Y538711D01*
X844128Y522159D02*
X839260Y522159D01*
X844128Y522159D02*
X844235Y522161D01*
X844341Y522167D01*
X844447Y522177D01*
X844553Y522190D01*
X844659Y522208D01*
X844763Y522229D01*
X844867Y522254D01*
X844970Y522283D01*
X845071Y522315D01*
X845171Y522352D01*
X845270Y522392D01*
X845368Y522435D01*
X845464Y522482D01*
X845558Y522533D01*
X845650Y522587D01*
X845740Y522644D01*
X845828Y522704D01*
X845913Y522768D01*
X845996Y522835D01*
X846077Y522905D01*
X846155Y522977D01*
X846231Y523053D01*
X846303Y523131D01*
X846373Y523212D01*
X846440Y523295D01*
X846504Y523380D01*
X846564Y523468D01*
X846621Y523558D01*
X846675Y523650D01*
X846726Y523744D01*
X846773Y523840D01*
X846816Y523938D01*
X846856Y524037D01*
X846893Y524137D01*
X846925Y524238D01*
X846954Y524341D01*
X846979Y524445D01*
X847000Y524549D01*
X847018Y524655D01*
X847031Y524761D01*
X847041Y524867D01*
X847047Y524973D01*
X847049Y525080D01*
X847049Y530922D01*
X847047Y531029D01*
X847041Y531135D01*
X847031Y531241D01*
X847018Y531347D01*
X847000Y531453D01*
X846979Y531557D01*
X846954Y531661D01*
X846925Y531764D01*
X846893Y531865D01*
X846856Y531965D01*
X846816Y532064D01*
X846773Y532162D01*
X846726Y532258D01*
X846675Y532352D01*
X846621Y532444D01*
X846564Y532534D01*
X846504Y532622D01*
X846440Y532707D01*
X846373Y532790D01*
X846303Y532871D01*
X846231Y532949D01*
X846155Y533025D01*
X846077Y533097D01*
X845996Y533167D01*
X845913Y533234D01*
X845828Y533298D01*
X845740Y533358D01*
X845650Y533415D01*
X845558Y533469D01*
X845464Y533520D01*
X845368Y533567D01*
X845270Y533610D01*
X845171Y533650D01*
X845071Y533687D01*
X844970Y533719D01*
X844867Y533748D01*
X844763Y533773D01*
X844659Y533794D01*
X844553Y533812D01*
X844447Y533825D01*
X844341Y533835D01*
X844235Y533841D01*
X844128Y533843D01*
X839260Y533843D01*
X839260Y519238D01*
X839262Y519131D01*
X839268Y519025D01*
X839278Y518919D01*
X839291Y518813D01*
X839309Y518707D01*
X839330Y518603D01*
X839355Y518499D01*
X839384Y518396D01*
X839416Y518295D01*
X839453Y518195D01*
X839493Y518096D01*
X839536Y517998D01*
X839583Y517902D01*
X839634Y517808D01*
X839688Y517716D01*
X839745Y517626D01*
X839805Y517538D01*
X839869Y517453D01*
X839936Y517370D01*
X840006Y517289D01*
X840078Y517211D01*
X840154Y517135D01*
X840232Y517063D01*
X840313Y516993D01*
X840396Y516926D01*
X840481Y516862D01*
X840569Y516802D01*
X840659Y516745D01*
X840751Y516691D01*
X840845Y516640D01*
X840941Y516593D01*
X841039Y516550D01*
X841138Y516510D01*
X841238Y516473D01*
X841339Y516441D01*
X841442Y516412D01*
X841546Y516387D01*
X841650Y516366D01*
X841756Y516348D01*
X841862Y516335D01*
X841968Y516325D01*
X842074Y516319D01*
X842181Y516317D01*
X846076Y516317D01*
X814720Y539686D02*
X814590Y539684D01*
X814460Y539678D01*
X814331Y539669D01*
X814202Y539655D01*
X814073Y539638D01*
X813945Y539617D01*
X813817Y539592D01*
X813691Y539563D01*
X813565Y539531D01*
X813440Y539495D01*
X813317Y539455D01*
X813194Y539412D01*
X813073Y539365D01*
X812954Y539314D01*
X812835Y539260D01*
X812719Y539202D01*
X812604Y539141D01*
X812492Y539077D01*
X812381Y539009D01*
X812272Y538938D01*
X812165Y538864D01*
X812061Y538787D01*
X811959Y538707D01*
X811859Y538623D01*
X811762Y538537D01*
X811668Y538448D01*
X811576Y538356D01*
X811487Y538262D01*
X811401Y538165D01*
X811317Y538065D01*
X811237Y537963D01*
X811160Y537859D01*
X811086Y537752D01*
X811015Y537643D01*
X810947Y537532D01*
X810883Y537420D01*
X810822Y537305D01*
X810764Y537189D01*
X810710Y537070D01*
X810659Y536951D01*
X810612Y536830D01*
X810569Y536707D01*
X810529Y536584D01*
X810493Y536459D01*
X810461Y536333D01*
X810432Y536207D01*
X810407Y536079D01*
X810386Y535951D01*
X810369Y535822D01*
X810355Y535693D01*
X810346Y535564D01*
X810340Y535434D01*
X810338Y535304D01*
X814720Y539685D02*
X814867Y539683D01*
X815015Y539677D01*
X815162Y539668D01*
X815309Y539654D01*
X815455Y539637D01*
X815601Y539616D01*
X815747Y539591D01*
X815891Y539562D01*
X816035Y539529D01*
X816178Y539493D01*
X816320Y539453D01*
X816461Y539409D01*
X816600Y539362D01*
X816739Y539311D01*
X816876Y539256D01*
X817011Y539198D01*
X817145Y539136D01*
X817277Y539071D01*
X817408Y539002D01*
X817536Y538930D01*
X817663Y538854D01*
X817788Y538776D01*
X817910Y538694D01*
X818031Y538608D01*
X818149Y538520D01*
X818265Y538429D01*
X818378Y538334D01*
X818489Y538237D01*
X818597Y538137D01*
X818703Y538034D01*
X818806Y537928D01*
X818906Y537820D01*
X819003Y537709D01*
X819097Y537595D01*
X819188Y537480D01*
X819276Y537361D01*
X819361Y537241D01*
X819443Y537118D01*
X819522Y536993D01*
X819597Y536867D01*
X819669Y536738D01*
X819738Y536607D01*
X819803Y536475D01*
X819864Y536341D01*
X819922Y536205D01*
X819977Y536068D01*
X820028Y535930D01*
X820075Y535790D01*
X811798Y531896D02*
X811701Y531992D01*
X811607Y532090D01*
X811515Y532190D01*
X811427Y532294D01*
X811341Y532399D01*
X811259Y532508D01*
X811180Y532618D01*
X811104Y532731D01*
X811031Y532846D01*
X810961Y532963D01*
X810895Y533082D01*
X810833Y533203D01*
X810774Y533326D01*
X810718Y533450D01*
X810667Y533576D01*
X810619Y533703D01*
X810574Y533832D01*
X810533Y533962D01*
X810497Y534093D01*
X810463Y534225D01*
X810434Y534358D01*
X810409Y534491D01*
X810387Y534626D01*
X810369Y534761D01*
X810356Y534896D01*
X810346Y535032D01*
X810340Y535168D01*
X810338Y535304D01*
X811799Y531896D02*
X820075Y522159D01*
X810338Y522159D01*
X801040Y522159D02*
X801040Y539685D01*
X801040Y522159D02*
X796172Y522159D01*
X796065Y522161D01*
X795959Y522167D01*
X795853Y522177D01*
X795747Y522190D01*
X795641Y522208D01*
X795537Y522229D01*
X795433Y522254D01*
X795330Y522283D01*
X795229Y522315D01*
X795129Y522352D01*
X795030Y522392D01*
X794932Y522435D01*
X794836Y522482D01*
X794742Y522533D01*
X794650Y522587D01*
X794560Y522644D01*
X794472Y522704D01*
X794387Y522768D01*
X794304Y522835D01*
X794223Y522905D01*
X794145Y522977D01*
X794069Y523053D01*
X793997Y523131D01*
X793927Y523212D01*
X793860Y523295D01*
X793796Y523380D01*
X793736Y523468D01*
X793679Y523558D01*
X793625Y523650D01*
X793574Y523744D01*
X793527Y523840D01*
X793484Y523938D01*
X793444Y524037D01*
X793407Y524137D01*
X793375Y524238D01*
X793346Y524341D01*
X793321Y524445D01*
X793300Y524549D01*
X793282Y524655D01*
X793269Y524761D01*
X793259Y524867D01*
X793253Y524973D01*
X793251Y525080D01*
X793251Y530922D01*
X793253Y531029D01*
X793259Y531135D01*
X793269Y531241D01*
X793282Y531347D01*
X793300Y531453D01*
X793321Y531557D01*
X793346Y531661D01*
X793375Y531764D01*
X793407Y531865D01*
X793444Y531965D01*
X793484Y532064D01*
X793527Y532162D01*
X793574Y532258D01*
X793625Y532352D01*
X793679Y532444D01*
X793736Y532534D01*
X793796Y532622D01*
X793860Y532707D01*
X793927Y532790D01*
X793997Y532871D01*
X794069Y532949D01*
X794145Y533025D01*
X794223Y533097D01*
X794304Y533167D01*
X794387Y533234D01*
X794472Y533298D01*
X794560Y533358D01*
X794650Y533415D01*
X794742Y533469D01*
X794836Y533520D01*
X794932Y533567D01*
X795030Y533610D01*
X795129Y533650D01*
X795229Y533687D01*
X795330Y533719D01*
X795433Y533748D01*
X795537Y533773D01*
X795641Y533794D01*
X795747Y533812D01*
X795853Y533825D01*
X795959Y533835D01*
X796065Y533841D01*
X796172Y533843D01*
X801040Y533843D01*
X876973Y713659D02*
X876973Y731185D01*
X881841Y731185D02*
X872104Y731185D01*
X864013Y725343D02*
X864013Y713659D01*
X864013Y725343D02*
X858171Y725343D01*
X858171Y723396D01*
X852255Y725343D02*
X852255Y713659D01*
X852742Y730211D02*
X852742Y731185D01*
X851768Y731185D01*
X851768Y730211D01*
X852742Y730211D01*
X841628Y713659D02*
X836760Y713659D01*
X841628Y713659D02*
X841735Y713661D01*
X841841Y713667D01*
X841947Y713677D01*
X842053Y713690D01*
X842159Y713708D01*
X842263Y713729D01*
X842367Y713754D01*
X842470Y713783D01*
X842571Y713815D01*
X842671Y713852D01*
X842770Y713892D01*
X842868Y713935D01*
X842964Y713982D01*
X843058Y714033D01*
X843150Y714087D01*
X843240Y714144D01*
X843328Y714204D01*
X843413Y714268D01*
X843496Y714335D01*
X843577Y714405D01*
X843655Y714477D01*
X843731Y714553D01*
X843803Y714631D01*
X843873Y714712D01*
X843940Y714795D01*
X844004Y714880D01*
X844064Y714968D01*
X844121Y715058D01*
X844175Y715150D01*
X844226Y715244D01*
X844273Y715340D01*
X844316Y715438D01*
X844356Y715537D01*
X844393Y715637D01*
X844425Y715738D01*
X844454Y715841D01*
X844479Y715945D01*
X844500Y716049D01*
X844518Y716155D01*
X844531Y716261D01*
X844541Y716367D01*
X844547Y716473D01*
X844549Y716580D01*
X844549Y722422D01*
X844547Y722529D01*
X844541Y722635D01*
X844531Y722741D01*
X844518Y722847D01*
X844500Y722953D01*
X844479Y723057D01*
X844454Y723161D01*
X844425Y723264D01*
X844393Y723365D01*
X844356Y723465D01*
X844316Y723564D01*
X844273Y723662D01*
X844226Y723758D01*
X844175Y723852D01*
X844121Y723944D01*
X844064Y724034D01*
X844004Y724122D01*
X843940Y724207D01*
X843873Y724290D01*
X843803Y724371D01*
X843731Y724449D01*
X843655Y724525D01*
X843577Y724597D01*
X843496Y724667D01*
X843413Y724734D01*
X843328Y724798D01*
X843240Y724858D01*
X843150Y724915D01*
X843058Y724969D01*
X842964Y725020D01*
X842868Y725067D01*
X842770Y725110D01*
X842671Y725150D01*
X842571Y725187D01*
X842470Y725219D01*
X842367Y725248D01*
X842263Y725273D01*
X842159Y725294D01*
X842053Y725312D01*
X841947Y725325D01*
X841841Y725335D01*
X841735Y725341D01*
X841628Y725343D01*
X836760Y725343D01*
X836760Y710738D01*
X836762Y710631D01*
X836768Y710525D01*
X836778Y710419D01*
X836791Y710313D01*
X836809Y710207D01*
X836830Y710103D01*
X836855Y709999D01*
X836884Y709896D01*
X836916Y709795D01*
X836953Y709695D01*
X836993Y709596D01*
X837036Y709498D01*
X837083Y709402D01*
X837134Y709308D01*
X837188Y709216D01*
X837245Y709126D01*
X837305Y709038D01*
X837369Y708953D01*
X837436Y708870D01*
X837506Y708789D01*
X837578Y708711D01*
X837654Y708635D01*
X837732Y708563D01*
X837813Y708493D01*
X837896Y708426D01*
X837981Y708362D01*
X838069Y708302D01*
X838159Y708245D01*
X838251Y708191D01*
X838345Y708140D01*
X838441Y708093D01*
X838539Y708050D01*
X838638Y708010D01*
X838738Y707973D01*
X838839Y707941D01*
X838942Y707912D01*
X839046Y707887D01*
X839150Y707866D01*
X839256Y707848D01*
X839362Y707835D01*
X839468Y707825D01*
X839574Y707819D01*
X839681Y707817D01*
X843576Y707817D01*
X812220Y731186D02*
X812090Y731184D01*
X811960Y731178D01*
X811831Y731169D01*
X811702Y731155D01*
X811573Y731138D01*
X811445Y731117D01*
X811317Y731092D01*
X811191Y731063D01*
X811065Y731031D01*
X810940Y730995D01*
X810817Y730955D01*
X810694Y730912D01*
X810573Y730865D01*
X810454Y730814D01*
X810335Y730760D01*
X810219Y730702D01*
X810104Y730641D01*
X809992Y730577D01*
X809881Y730509D01*
X809772Y730438D01*
X809665Y730364D01*
X809561Y730287D01*
X809459Y730207D01*
X809359Y730123D01*
X809262Y730037D01*
X809168Y729948D01*
X809076Y729856D01*
X808987Y729762D01*
X808901Y729665D01*
X808817Y729565D01*
X808737Y729463D01*
X808660Y729359D01*
X808586Y729252D01*
X808515Y729143D01*
X808447Y729032D01*
X808383Y728920D01*
X808322Y728805D01*
X808264Y728689D01*
X808210Y728570D01*
X808159Y728451D01*
X808112Y728330D01*
X808069Y728207D01*
X808029Y728084D01*
X807993Y727959D01*
X807961Y727833D01*
X807932Y727707D01*
X807907Y727579D01*
X807886Y727451D01*
X807869Y727322D01*
X807855Y727193D01*
X807846Y727064D01*
X807840Y726934D01*
X807838Y726804D01*
X812220Y731185D02*
X812367Y731183D01*
X812515Y731177D01*
X812662Y731168D01*
X812809Y731154D01*
X812955Y731137D01*
X813101Y731116D01*
X813247Y731091D01*
X813391Y731062D01*
X813535Y731029D01*
X813678Y730993D01*
X813820Y730953D01*
X813961Y730909D01*
X814100Y730862D01*
X814239Y730811D01*
X814376Y730756D01*
X814511Y730698D01*
X814645Y730636D01*
X814777Y730571D01*
X814908Y730502D01*
X815036Y730430D01*
X815163Y730354D01*
X815288Y730276D01*
X815410Y730194D01*
X815531Y730108D01*
X815649Y730020D01*
X815765Y729929D01*
X815878Y729834D01*
X815989Y729737D01*
X816097Y729637D01*
X816203Y729534D01*
X816306Y729428D01*
X816406Y729320D01*
X816503Y729209D01*
X816597Y729095D01*
X816688Y728980D01*
X816776Y728861D01*
X816861Y728741D01*
X816943Y728618D01*
X817022Y728493D01*
X817097Y728367D01*
X817169Y728238D01*
X817238Y728107D01*
X817303Y727975D01*
X817364Y727841D01*
X817422Y727705D01*
X817477Y727568D01*
X817528Y727430D01*
X817575Y727290D01*
X809298Y723396D02*
X809201Y723492D01*
X809107Y723590D01*
X809015Y723690D01*
X808927Y723794D01*
X808841Y723899D01*
X808759Y724008D01*
X808680Y724118D01*
X808604Y724231D01*
X808531Y724346D01*
X808461Y724463D01*
X808395Y724582D01*
X808333Y724703D01*
X808274Y724826D01*
X808218Y724950D01*
X808167Y725076D01*
X808119Y725203D01*
X808074Y725332D01*
X808033Y725462D01*
X807997Y725593D01*
X807963Y725725D01*
X807934Y725858D01*
X807909Y725991D01*
X807887Y726126D01*
X807869Y726261D01*
X807856Y726396D01*
X807846Y726532D01*
X807840Y726668D01*
X807838Y726804D01*
X809299Y723396D02*
X817575Y713659D01*
X807838Y713659D01*
X796031Y720475D02*
X791650Y720475D01*
X796031Y720475D02*
X796146Y720473D01*
X796261Y720467D01*
X796376Y720458D01*
X796490Y720444D01*
X796604Y720427D01*
X796717Y720405D01*
X796829Y720380D01*
X796941Y720351D01*
X797051Y720319D01*
X797160Y720282D01*
X797268Y720242D01*
X797375Y720199D01*
X797480Y720152D01*
X797583Y720101D01*
X797685Y720047D01*
X797785Y719989D01*
X797882Y719928D01*
X797978Y719864D01*
X798071Y719797D01*
X798162Y719726D01*
X798251Y719653D01*
X798337Y719576D01*
X798420Y719497D01*
X798501Y719415D01*
X798579Y719330D01*
X798654Y719243D01*
X798726Y719153D01*
X798795Y719061D01*
X798861Y718966D01*
X798923Y718870D01*
X798982Y718771D01*
X799038Y718670D01*
X799091Y718568D01*
X799140Y718464D01*
X799185Y718358D01*
X799227Y718251D01*
X799265Y718142D01*
X799299Y718032D01*
X799330Y717921D01*
X799357Y717809D01*
X799380Y717697D01*
X799400Y717583D01*
X799415Y717469D01*
X799427Y717354D01*
X799435Y717240D01*
X799439Y717125D01*
X799439Y717009D01*
X799435Y716894D01*
X799427Y716780D01*
X799415Y716665D01*
X799400Y716551D01*
X799380Y716437D01*
X799357Y716325D01*
X799330Y716213D01*
X799299Y716102D01*
X799265Y715992D01*
X799227Y715883D01*
X799185Y715776D01*
X799140Y715670D01*
X799091Y715566D01*
X799038Y715464D01*
X798982Y715363D01*
X798923Y715264D01*
X798861Y715168D01*
X798795Y715073D01*
X798726Y714981D01*
X798654Y714891D01*
X798579Y714804D01*
X798501Y714719D01*
X798420Y714637D01*
X798337Y714558D01*
X798251Y714481D01*
X798162Y714408D01*
X798071Y714337D01*
X797978Y714270D01*
X797882Y714206D01*
X797785Y714145D01*
X797685Y714087D01*
X797583Y714033D01*
X797480Y713982D01*
X797375Y713935D01*
X797268Y713892D01*
X797160Y713852D01*
X797051Y713815D01*
X796941Y713783D01*
X796829Y713754D01*
X796717Y713729D01*
X796604Y713707D01*
X796490Y713690D01*
X796376Y713676D01*
X796261Y713667D01*
X796146Y713661D01*
X796031Y713659D01*
X791650Y713659D01*
X791650Y722422D01*
X791652Y722529D01*
X791658Y722635D01*
X791668Y722741D01*
X791681Y722847D01*
X791699Y722953D01*
X791720Y723057D01*
X791745Y723161D01*
X791774Y723264D01*
X791806Y723365D01*
X791843Y723465D01*
X791883Y723564D01*
X791926Y723662D01*
X791973Y723758D01*
X792024Y723852D01*
X792078Y723944D01*
X792135Y724034D01*
X792195Y724122D01*
X792259Y724207D01*
X792326Y724290D01*
X792396Y724371D01*
X792468Y724449D01*
X792544Y724525D01*
X792622Y724597D01*
X792703Y724667D01*
X792786Y724734D01*
X792871Y724798D01*
X792959Y724858D01*
X793049Y724915D01*
X793141Y724969D01*
X793235Y725020D01*
X793331Y725067D01*
X793429Y725110D01*
X793528Y725150D01*
X793628Y725187D01*
X793729Y725219D01*
X793832Y725248D01*
X793936Y725273D01*
X794040Y725294D01*
X794146Y725312D01*
X794252Y725325D01*
X794358Y725335D01*
X794464Y725341D01*
X794571Y725343D01*
X798466Y725343D01*
X861052Y262659D02*
X864946Y262659D01*
X865068Y262661D01*
X865191Y262667D01*
X865313Y262676D01*
X865434Y262690D01*
X865555Y262707D01*
X865676Y262728D01*
X865796Y262753D01*
X865915Y262781D01*
X866033Y262814D01*
X866150Y262850D01*
X866265Y262889D01*
X866380Y262933D01*
X866493Y262979D01*
X866604Y263030D01*
X866714Y263084D01*
X866822Y263141D01*
X866929Y263201D01*
X867033Y263265D01*
X867135Y263333D01*
X867235Y263403D01*
X867333Y263476D01*
X867429Y263553D01*
X867522Y263632D01*
X867612Y263715D01*
X867700Y263800D01*
X867785Y263888D01*
X867868Y263978D01*
X867947Y264071D01*
X868024Y264167D01*
X868097Y264265D01*
X868167Y264365D01*
X868235Y264467D01*
X868299Y264571D01*
X868359Y264678D01*
X868416Y264786D01*
X868470Y264896D01*
X868521Y265007D01*
X868567Y265120D01*
X868611Y265235D01*
X868650Y265350D01*
X868686Y265467D01*
X868719Y265585D01*
X868747Y265704D01*
X868772Y265824D01*
X868793Y265945D01*
X868810Y266066D01*
X868824Y266187D01*
X868833Y266309D01*
X868839Y266432D01*
X868841Y266554D01*
X868841Y276290D01*
X868839Y276412D01*
X868833Y276535D01*
X868824Y276657D01*
X868810Y276778D01*
X868793Y276899D01*
X868772Y277020D01*
X868747Y277140D01*
X868719Y277259D01*
X868686Y277377D01*
X868650Y277494D01*
X868611Y277609D01*
X868567Y277724D01*
X868521Y277837D01*
X868470Y277948D01*
X868416Y278058D01*
X868359Y278166D01*
X868299Y278273D01*
X868235Y278377D01*
X868167Y278479D01*
X868097Y278579D01*
X868024Y278677D01*
X867947Y278773D01*
X867868Y278866D01*
X867785Y278956D01*
X867700Y279044D01*
X867612Y279129D01*
X867522Y279212D01*
X867429Y279291D01*
X867333Y279368D01*
X867235Y279441D01*
X867135Y279511D01*
X867033Y279579D01*
X866929Y279643D01*
X866822Y279703D01*
X866714Y279760D01*
X866604Y279814D01*
X866493Y279865D01*
X866380Y279911D01*
X866265Y279955D01*
X866150Y279994D01*
X866033Y280030D01*
X865915Y280063D01*
X865796Y280091D01*
X865676Y280116D01*
X865555Y280137D01*
X865434Y280154D01*
X865313Y280168D01*
X865191Y280177D01*
X865068Y280183D01*
X864946Y280185D01*
X861052Y280185D01*
X854296Y280185D02*
X848454Y262659D01*
X842612Y280185D01*
X829429Y280186D02*
X829299Y280184D01*
X829169Y280178D01*
X829040Y280169D01*
X828911Y280155D01*
X828782Y280138D01*
X828654Y280117D01*
X828526Y280092D01*
X828400Y280063D01*
X828274Y280031D01*
X828149Y279995D01*
X828026Y279955D01*
X827903Y279912D01*
X827782Y279865D01*
X827663Y279814D01*
X827544Y279760D01*
X827428Y279702D01*
X827313Y279641D01*
X827201Y279577D01*
X827090Y279509D01*
X826981Y279438D01*
X826874Y279364D01*
X826770Y279287D01*
X826668Y279207D01*
X826568Y279123D01*
X826471Y279037D01*
X826377Y278948D01*
X826285Y278856D01*
X826196Y278762D01*
X826110Y278665D01*
X826026Y278565D01*
X825946Y278463D01*
X825869Y278359D01*
X825795Y278252D01*
X825724Y278143D01*
X825656Y278032D01*
X825592Y277920D01*
X825531Y277805D01*
X825473Y277689D01*
X825419Y277570D01*
X825368Y277451D01*
X825321Y277330D01*
X825278Y277207D01*
X825238Y277084D01*
X825202Y276959D01*
X825170Y276833D01*
X825141Y276707D01*
X825116Y276579D01*
X825095Y276451D01*
X825078Y276322D01*
X825064Y276193D01*
X825055Y276064D01*
X825049Y275934D01*
X825047Y275804D01*
X829429Y280185D02*
X829576Y280183D01*
X829724Y280177D01*
X829871Y280168D01*
X830018Y280154D01*
X830164Y280137D01*
X830310Y280116D01*
X830456Y280091D01*
X830600Y280062D01*
X830744Y280029D01*
X830887Y279993D01*
X831029Y279953D01*
X831170Y279909D01*
X831309Y279862D01*
X831448Y279811D01*
X831585Y279756D01*
X831720Y279698D01*
X831854Y279636D01*
X831986Y279571D01*
X832117Y279502D01*
X832245Y279430D01*
X832372Y279354D01*
X832497Y279276D01*
X832619Y279194D01*
X832740Y279108D01*
X832858Y279020D01*
X832974Y278929D01*
X833087Y278834D01*
X833198Y278737D01*
X833306Y278637D01*
X833412Y278534D01*
X833515Y278428D01*
X833615Y278320D01*
X833712Y278209D01*
X833806Y278095D01*
X833897Y277980D01*
X833985Y277861D01*
X834070Y277741D01*
X834152Y277618D01*
X834231Y277493D01*
X834306Y277367D01*
X834378Y277238D01*
X834447Y277107D01*
X834512Y276975D01*
X834573Y276841D01*
X834631Y276705D01*
X834686Y276568D01*
X834737Y276430D01*
X834784Y276290D01*
X826507Y272396D02*
X826410Y272492D01*
X826316Y272590D01*
X826224Y272690D01*
X826136Y272794D01*
X826050Y272899D01*
X825968Y273008D01*
X825889Y273118D01*
X825813Y273231D01*
X825740Y273346D01*
X825670Y273463D01*
X825604Y273582D01*
X825542Y273703D01*
X825483Y273826D01*
X825427Y273950D01*
X825376Y274076D01*
X825328Y274203D01*
X825283Y274332D01*
X825242Y274462D01*
X825206Y274593D01*
X825172Y274725D01*
X825143Y274858D01*
X825118Y274991D01*
X825096Y275126D01*
X825078Y275261D01*
X825065Y275396D01*
X825055Y275532D01*
X825049Y275668D01*
X825047Y275804D01*
X826508Y272396D02*
X834784Y262659D01*
X825047Y262659D01*
X1106104Y-237446D02*
X1106106Y-237568D01*
X1106112Y-237691D01*
X1106121Y-237813D01*
X1106135Y-237934D01*
X1106152Y-238055D01*
X1106173Y-238176D01*
X1106198Y-238296D01*
X1106226Y-238415D01*
X1106259Y-238533D01*
X1106295Y-238650D01*
X1106334Y-238765D01*
X1106378Y-238880D01*
X1106424Y-238993D01*
X1106475Y-239104D01*
X1106529Y-239214D01*
X1106586Y-239322D01*
X1106646Y-239429D01*
X1106710Y-239533D01*
X1106778Y-239635D01*
X1106848Y-239735D01*
X1106921Y-239833D01*
X1106998Y-239929D01*
X1107077Y-240022D01*
X1107160Y-240112D01*
X1107245Y-240200D01*
X1107333Y-240285D01*
X1107423Y-240368D01*
X1107516Y-240447D01*
X1107612Y-240524D01*
X1107710Y-240597D01*
X1107810Y-240667D01*
X1107912Y-240735D01*
X1108016Y-240799D01*
X1108123Y-240859D01*
X1108231Y-240916D01*
X1108341Y-240970D01*
X1108452Y-241021D01*
X1108565Y-241067D01*
X1108680Y-241111D01*
X1108795Y-241150D01*
X1108912Y-241186D01*
X1109030Y-241219D01*
X1109149Y-241247D01*
X1109269Y-241272D01*
X1109390Y-241293D01*
X1109511Y-241310D01*
X1109632Y-241324D01*
X1109754Y-241333D01*
X1109877Y-241339D01*
X1109999Y-241341D01*
X1110196Y-241339D01*
X1110393Y-241332D01*
X1110589Y-241320D01*
X1110785Y-241303D01*
X1110981Y-241282D01*
X1111176Y-241256D01*
X1111371Y-241226D01*
X1111564Y-241191D01*
X1111757Y-241151D01*
X1111949Y-241107D01*
X1112140Y-241058D01*
X1112329Y-241004D01*
X1112517Y-240946D01*
X1112704Y-240884D01*
X1112889Y-240817D01*
X1113073Y-240745D01*
X1113254Y-240670D01*
X1113434Y-240590D01*
X1113612Y-240505D01*
X1113788Y-240417D01*
X1113961Y-240324D01*
X1114133Y-240227D01*
X1114302Y-240126D01*
X1114468Y-240021D01*
X1114632Y-239912D01*
X1114794Y-239800D01*
X1114952Y-239683D01*
X1115108Y-239563D01*
X1115261Y-239439D01*
X1115411Y-239311D01*
X1115557Y-239180D01*
X1115701Y-239045D01*
X1115841Y-238907D01*
X1115355Y-227710D02*
X1115353Y-227588D01*
X1115347Y-227465D01*
X1115338Y-227343D01*
X1115324Y-227222D01*
X1115307Y-227101D01*
X1115286Y-226980D01*
X1115261Y-226860D01*
X1115233Y-226741D01*
X1115200Y-226623D01*
X1115164Y-226506D01*
X1115125Y-226391D01*
X1115081Y-226276D01*
X1115035Y-226163D01*
X1114984Y-226052D01*
X1114930Y-225942D01*
X1114873Y-225834D01*
X1114813Y-225727D01*
X1114749Y-225623D01*
X1114681Y-225521D01*
X1114611Y-225421D01*
X1114538Y-225323D01*
X1114461Y-225227D01*
X1114382Y-225134D01*
X1114299Y-225044D01*
X1114214Y-224956D01*
X1114126Y-224871D01*
X1114036Y-224788D01*
X1113943Y-224709D01*
X1113847Y-224632D01*
X1113749Y-224559D01*
X1113649Y-224489D01*
X1113547Y-224421D01*
X1113443Y-224357D01*
X1113336Y-224297D01*
X1113228Y-224240D01*
X1113118Y-224186D01*
X1113007Y-224135D01*
X1112894Y-224089D01*
X1112779Y-224045D01*
X1112664Y-224006D01*
X1112547Y-223970D01*
X1112429Y-223937D01*
X1112310Y-223909D01*
X1112190Y-223884D01*
X1112069Y-223863D01*
X1111948Y-223846D01*
X1111827Y-223832D01*
X1111705Y-223823D01*
X1111582Y-223817D01*
X1111460Y-223815D01*
X1111286Y-223817D01*
X1111112Y-223823D01*
X1110938Y-223834D01*
X1110765Y-223848D01*
X1110592Y-223867D01*
X1110419Y-223890D01*
X1110247Y-223916D01*
X1110076Y-223947D01*
X1109905Y-223982D01*
X1109736Y-224021D01*
X1109567Y-224065D01*
X1109400Y-224112D01*
X1109233Y-224163D01*
X1109068Y-224218D01*
X1108904Y-224277D01*
X1108742Y-224340D01*
X1108581Y-224406D01*
X1108422Y-224477D01*
X1108265Y-224551D01*
X1108109Y-224629D01*
X1107956Y-224711D01*
X1107804Y-224796D01*
X1107654Y-224885D01*
X1107507Y-224977D01*
X1107362Y-225073D01*
X1107219Y-225173D01*
X1107078Y-225276D01*
X1113407Y-231118D02*
X1113514Y-231053D01*
X1113618Y-230985D01*
X1113720Y-230914D01*
X1113819Y-230839D01*
X1113917Y-230762D01*
X1114011Y-230681D01*
X1114103Y-230597D01*
X1114193Y-230511D01*
X1114280Y-230421D01*
X1114364Y-230329D01*
X1114445Y-230235D01*
X1114522Y-230138D01*
X1114597Y-230038D01*
X1114669Y-229937D01*
X1114737Y-229833D01*
X1114802Y-229727D01*
X1114864Y-229618D01*
X1114923Y-229509D01*
X1114977Y-229397D01*
X1115029Y-229283D01*
X1115076Y-229168D01*
X1115120Y-229052D01*
X1115161Y-228934D01*
X1115197Y-228815D01*
X1115230Y-228695D01*
X1115259Y-228574D01*
X1115285Y-228452D01*
X1115306Y-228330D01*
X1115324Y-228207D01*
X1115337Y-228083D01*
X1115347Y-227959D01*
X1115353Y-227834D01*
X1115355Y-227710D01*
X1108052Y-234038D02*
X1107945Y-234103D01*
X1107841Y-234171D01*
X1107739Y-234242D01*
X1107640Y-234317D01*
X1107542Y-234394D01*
X1107448Y-234475D01*
X1107355Y-234559D01*
X1107266Y-234645D01*
X1107179Y-234735D01*
X1107095Y-234827D01*
X1107014Y-234921D01*
X1106937Y-235018D01*
X1106862Y-235118D01*
X1106790Y-235219D01*
X1106722Y-235323D01*
X1106657Y-235429D01*
X1106595Y-235538D01*
X1106536Y-235648D01*
X1106482Y-235759D01*
X1106430Y-235873D01*
X1106383Y-235988D01*
X1106339Y-236104D01*
X1106298Y-236222D01*
X1106262Y-236341D01*
X1106229Y-236461D01*
X1106200Y-236582D01*
X1106174Y-236704D01*
X1106153Y-236826D01*
X1106135Y-236949D01*
X1106122Y-237073D01*
X1106112Y-237197D01*
X1106106Y-237322D01*
X1106104Y-237446D01*
X1108052Y-234039D02*
X1113407Y-231118D01*
X1099908Y-229657D02*
X1094066Y-229657D01*
X1097961Y-223815D02*
X1097961Y-238420D01*
X1097959Y-238527D01*
X1097953Y-238633D01*
X1097943Y-238739D01*
X1097930Y-238845D01*
X1097912Y-238951D01*
X1097891Y-239055D01*
X1097866Y-239159D01*
X1097837Y-239262D01*
X1097805Y-239363D01*
X1097768Y-239463D01*
X1097728Y-239562D01*
X1097685Y-239660D01*
X1097638Y-239756D01*
X1097587Y-239850D01*
X1097533Y-239942D01*
X1097476Y-240032D01*
X1097416Y-240120D01*
X1097352Y-240205D01*
X1097285Y-240288D01*
X1097215Y-240369D01*
X1097143Y-240447D01*
X1097067Y-240523D01*
X1096989Y-240595D01*
X1096908Y-240665D01*
X1096825Y-240732D01*
X1096740Y-240796D01*
X1096652Y-240856D01*
X1096562Y-240913D01*
X1096470Y-240967D01*
X1096376Y-241018D01*
X1096280Y-241065D01*
X1096182Y-241108D01*
X1096083Y-241148D01*
X1095983Y-241185D01*
X1095882Y-241217D01*
X1095779Y-241246D01*
X1095675Y-241271D01*
X1095571Y-241292D01*
X1095465Y-241310D01*
X1095359Y-241323D01*
X1095253Y-241333D01*
X1095147Y-241339D01*
X1095040Y-241341D01*
X1094066Y-241341D01*
X1083175Y-234525D02*
X1078793Y-234525D01*
X1083175Y-234525D02*
X1083290Y-234527D01*
X1083405Y-234533D01*
X1083520Y-234542D01*
X1083634Y-234556D01*
X1083748Y-234573D01*
X1083861Y-234595D01*
X1083973Y-234620D01*
X1084085Y-234649D01*
X1084195Y-234681D01*
X1084304Y-234718D01*
X1084412Y-234758D01*
X1084519Y-234801D01*
X1084624Y-234848D01*
X1084727Y-234899D01*
X1084829Y-234953D01*
X1084929Y-235011D01*
X1085026Y-235072D01*
X1085122Y-235136D01*
X1085215Y-235203D01*
X1085306Y-235274D01*
X1085395Y-235347D01*
X1085481Y-235424D01*
X1085564Y-235503D01*
X1085645Y-235585D01*
X1085723Y-235670D01*
X1085798Y-235757D01*
X1085870Y-235847D01*
X1085939Y-235939D01*
X1086005Y-236034D01*
X1086067Y-236130D01*
X1086126Y-236229D01*
X1086182Y-236330D01*
X1086235Y-236432D01*
X1086284Y-236536D01*
X1086329Y-236642D01*
X1086371Y-236749D01*
X1086409Y-236858D01*
X1086443Y-236968D01*
X1086474Y-237079D01*
X1086501Y-237191D01*
X1086524Y-237303D01*
X1086544Y-237417D01*
X1086559Y-237531D01*
X1086571Y-237646D01*
X1086579Y-237760D01*
X1086583Y-237875D01*
X1086583Y-237991D01*
X1086579Y-238106D01*
X1086571Y-238220D01*
X1086559Y-238335D01*
X1086544Y-238449D01*
X1086524Y-238563D01*
X1086501Y-238675D01*
X1086474Y-238787D01*
X1086443Y-238898D01*
X1086409Y-239008D01*
X1086371Y-239117D01*
X1086329Y-239224D01*
X1086284Y-239330D01*
X1086235Y-239434D01*
X1086182Y-239536D01*
X1086126Y-239637D01*
X1086067Y-239736D01*
X1086005Y-239832D01*
X1085939Y-239927D01*
X1085870Y-240019D01*
X1085798Y-240109D01*
X1085723Y-240196D01*
X1085645Y-240281D01*
X1085564Y-240363D01*
X1085481Y-240442D01*
X1085395Y-240519D01*
X1085306Y-240592D01*
X1085215Y-240663D01*
X1085122Y-240730D01*
X1085026Y-240794D01*
X1084929Y-240855D01*
X1084829Y-240913D01*
X1084727Y-240967D01*
X1084624Y-241018D01*
X1084519Y-241065D01*
X1084412Y-241108D01*
X1084304Y-241148D01*
X1084195Y-241185D01*
X1084085Y-241217D01*
X1083973Y-241246D01*
X1083861Y-241271D01*
X1083748Y-241293D01*
X1083634Y-241310D01*
X1083520Y-241324D01*
X1083405Y-241333D01*
X1083290Y-241339D01*
X1083175Y-241341D01*
X1078793Y-241341D01*
X1078793Y-232578D01*
X1078795Y-232471D01*
X1078801Y-232365D01*
X1078811Y-232259D01*
X1078824Y-232153D01*
X1078842Y-232047D01*
X1078863Y-231943D01*
X1078888Y-231839D01*
X1078917Y-231736D01*
X1078949Y-231635D01*
X1078986Y-231535D01*
X1079026Y-231436D01*
X1079069Y-231338D01*
X1079116Y-231242D01*
X1079167Y-231148D01*
X1079221Y-231056D01*
X1079278Y-230966D01*
X1079338Y-230878D01*
X1079402Y-230793D01*
X1079469Y-230710D01*
X1079539Y-230629D01*
X1079611Y-230551D01*
X1079687Y-230475D01*
X1079765Y-230403D01*
X1079846Y-230333D01*
X1079929Y-230266D01*
X1080014Y-230202D01*
X1080102Y-230142D01*
X1080192Y-230085D01*
X1080284Y-230031D01*
X1080378Y-229980D01*
X1080474Y-229933D01*
X1080572Y-229890D01*
X1080671Y-229850D01*
X1080771Y-229813D01*
X1080872Y-229781D01*
X1080975Y-229752D01*
X1081079Y-229727D01*
X1081183Y-229706D01*
X1081289Y-229688D01*
X1081395Y-229675D01*
X1081501Y-229665D01*
X1081607Y-229659D01*
X1081714Y-229657D01*
X1085609Y-229657D01*
X1068970Y-229657D02*
X1068970Y-241341D01*
X1068970Y-229657D02*
X1063128Y-229657D01*
X1063128Y-231604D01*
X1058506Y-229657D02*
X1052664Y-229657D01*
X1056558Y-223815D02*
X1056558Y-238420D01*
X1056556Y-238527D01*
X1056550Y-238633D01*
X1056540Y-238739D01*
X1056527Y-238845D01*
X1056509Y-238951D01*
X1056488Y-239055D01*
X1056463Y-239159D01*
X1056434Y-239262D01*
X1056402Y-239363D01*
X1056365Y-239463D01*
X1056325Y-239562D01*
X1056282Y-239660D01*
X1056235Y-239756D01*
X1056184Y-239850D01*
X1056130Y-239942D01*
X1056073Y-240032D01*
X1056013Y-240120D01*
X1055949Y-240205D01*
X1055882Y-240288D01*
X1055812Y-240369D01*
X1055740Y-240447D01*
X1055664Y-240523D01*
X1055586Y-240595D01*
X1055505Y-240665D01*
X1055422Y-240732D01*
X1055337Y-240796D01*
X1055249Y-240856D01*
X1055159Y-240913D01*
X1055067Y-240967D01*
X1054973Y-241018D01*
X1054877Y-241065D01*
X1054779Y-241108D01*
X1054680Y-241148D01*
X1054580Y-241185D01*
X1054479Y-241217D01*
X1054376Y-241246D01*
X1054272Y-241271D01*
X1054168Y-241292D01*
X1054062Y-241310D01*
X1053956Y-241323D01*
X1053850Y-241333D01*
X1053744Y-241339D01*
X1053637Y-241341D01*
X1052664Y-241341D01*
D12*
X1005140Y465900D02*
X992060Y465900D01*
X992060Y440500D02*
X1005140Y440500D01*
X1005140Y415100D02*
X992060Y415100D01*
X992060Y389700D02*
X1005140Y389700D01*
X1005140Y364300D02*
X992060Y364300D01*
X992060Y338900D02*
X1005140Y338900D01*
X1005140Y313500D02*
X992060Y313500D01*
X992060Y288100D02*
X1005140Y288100D01*
X1005140Y262700D02*
X992060Y262700D01*
X992060Y237300D02*
X1005140Y237300D01*
X1005140Y211900D02*
X992060Y211900D01*
X992060Y186500D02*
X1005140Y186500D01*
X1005140Y161100D02*
X992060Y161100D01*
X992060Y135700D02*
X1005140Y135700D01*
X1005140Y110300D02*
X992060Y110300D01*
X992060Y84900D02*
X1005140Y84900D01*
X1005140Y59500D02*
X992060Y59500D01*
X992060Y34100D02*
X1005140Y34100D01*
X1005140Y8700D02*
X992060Y8700D01*
X992060Y-16700D02*
X1005140Y-16700D01*
X1144460Y465900D02*
X1157540Y465900D01*
X1157540Y440500D02*
X1144460Y440500D01*
X1144460Y415100D02*
X1157540Y415100D01*
X1157540Y389700D02*
X1144460Y389700D01*
X1144460Y364300D02*
X1157540Y364300D01*
X1157540Y338900D02*
X1144460Y338900D01*
X1144460Y313500D02*
X1157540Y313500D01*
X1157540Y288100D02*
X1144460Y288100D01*
X1144460Y262700D02*
X1157540Y262700D01*
X1157540Y237300D02*
X1144460Y237300D01*
X1144460Y211900D02*
X1157540Y211900D01*
X1157540Y186500D02*
X1144460Y186500D01*
X1144460Y161100D02*
X1157540Y161100D01*
X1157540Y135700D02*
X1144460Y135700D01*
X1144460Y110300D02*
X1157540Y110300D01*
X1157540Y84900D02*
X1144460Y84900D01*
X1144460Y59500D02*
X1157540Y59500D01*
X1157540Y34100D02*
X1144460Y34100D01*
X1144460Y8700D02*
X1157540Y8700D01*
X1157540Y-16700D02*
X1144460Y-16700D01*
D13*
X1182250Y862800D03*
X1156850Y862800D03*
X1131450Y862800D03*
X1106050Y862800D03*
X1080650Y862800D03*
X1055250Y862800D03*
X1029850Y862800D03*
X1004450Y862800D03*
D14*
X1312000Y755000D03*
X1312000Y785000D03*
X1312000Y870000D03*
X848000Y755000D03*
X848000Y785000D03*
X848000Y870000D03*
D15*
X1010000Y-55600D03*
X1035400Y-55600D03*
X1060800Y-55600D03*
X1086200Y-55600D03*
X1111600Y-55600D03*
X1137000Y-55600D03*
D14*
X913000Y435500D03*
X883000Y435500D03*
X798000Y435500D03*
X1247000Y435500D03*
X1277000Y435500D03*
X1362000Y435500D03*
X848000Y565000D03*
X848000Y595000D03*
X848000Y680000D03*
X1312000Y565000D03*
X1312000Y595000D03*
X1312000Y680000D03*
D16*
X1055250Y-179900D03*
X1055250Y-129100D03*
X1106050Y-179900D03*
X1106050Y-129100D03*
X1080650Y-181500D03*
X1080650Y-127500D03*
D14*
X848000Y-85000D03*
X848000Y-115000D03*
X848000Y-200000D03*
X1326000Y-85000D03*
X1326000Y-115000D03*
X1326000Y-200000D03*
D17*
X1281000Y-2930D03*
X1255600Y141850D03*
D18*
X1214960Y72000D03*
X1347040Y72000D03*
D17*
X1306400Y141850D03*
X1255600Y-2930D03*
X1306400Y-2930D03*
X878500Y-2930D03*
X853100Y141850D03*
D18*
X812460Y72000D03*
X944540Y72000D03*
D17*
X903900Y141850D03*
X853100Y-2930D03*
X903900Y-2930D03*
D14*
X913000Y342000D03*
X883000Y342000D03*
X798000Y342000D03*
X1247000Y341500D03*
X1277000Y341500D03*
X1362000Y341500D03*
D19*
X1280922Y116586D02*
X1280922Y-2286D01*
X1280922Y116586D02*
X1255776Y141732D01*
X1280922Y-2286D02*
X1281000Y-2930D01*
X1255776Y141732D02*
X1255600Y141850D01*
X1203960Y862584D02*
X1182624Y862584D01*
X1203960Y862584D02*
X1311402Y755142D01*
X1182624Y862584D02*
X1182250Y862800D01*
X1311402Y755142D02*
X1312000Y755000D01*
X1247394Y435102D02*
X1247394Y342138D01*
X1247000Y341500D01*
X1247394Y435102D02*
X1247000Y435500D01*
X1267968Y564642D02*
X1311402Y564642D01*
X1267968Y564642D02*
X1248156Y544830D01*
X1248156Y438150D01*
X1311402Y564642D02*
X1312000Y565000D01*
X1248156Y438150D02*
X1247000Y435500D01*
X1045464Y-170688D02*
X973836Y-170688D01*
X1045464Y-170688D02*
X1054608Y-179832D01*
X1055250Y-179900D01*
X886968Y-2286D02*
X878586Y-2286D01*
X886968Y-2286D02*
X899160Y9906D01*
X927354Y9906D02*
X997458Y9906D01*
X927354Y9906D02*
X899160Y9906D01*
X997458Y9906D02*
X998220Y9144D01*
X878586Y-2286D02*
X878500Y-2930D01*
X998220Y9144D02*
X998600Y8700D01*
X853440Y56388D02*
X853440Y141732D01*
X853440Y56388D02*
X897636Y12192D01*
X853440Y141732D02*
X853100Y141850D01*
X897636Y12192D02*
X899160Y9906D01*
X902970Y-84582D02*
X848106Y-84582D01*
X902970Y-84582D02*
X927354Y-60198D01*
X927354Y9906D01*
X848106Y-84582D02*
X848000Y-85000D01*
X922782Y640080D02*
X932688Y640080D01*
X867537Y584835D02*
X848106Y565404D01*
X867537Y584835D02*
X922782Y640080D01*
X848106Y565404D02*
X848000Y565000D01*
X1042416Y643128D02*
X1055370Y643128D01*
X1042416Y643128D02*
X1040892Y644652D01*
X1028700Y644652D02*
X1018794Y644652D01*
X1028700Y644652D02*
X1040892Y644652D01*
X1018794Y644652D02*
X1017270Y643128D01*
X1037082Y718566D02*
X1037082Y733044D01*
X1037082Y718566D02*
X1028700Y710184D01*
X1028700Y644652D01*
X886968Y754380D02*
X848106Y754380D01*
X886968Y754380D02*
X921258Y720090D01*
X921258Y642366D01*
X848106Y754380D02*
X848000Y755000D01*
X921258Y642366D02*
X922782Y640080D01*
X941832Y370332D02*
X913638Y342138D01*
X913000Y342000D01*
X913638Y399288D02*
X913638Y435102D01*
X913638Y399288D02*
X940308Y372618D01*
X913638Y435102D02*
X913000Y435500D01*
X940308Y372618D02*
X941832Y370332D01*
X912114Y540258D02*
X867537Y584835D01*
X912114Y540258D02*
X912114Y438150D01*
X913000Y435500D01*
X853440Y169926D02*
X853440Y144780D01*
X853440Y169926D02*
X897636Y214122D01*
X897636Y324612D01*
X912114Y339090D01*
X853440Y144780D02*
X853100Y141850D01*
X912114Y339090D02*
X913000Y342000D01*
X1046226Y440436D02*
X1150620Y440436D01*
X1046226Y440436D02*
X1006602Y400812D01*
X974598Y400812D01*
X944880Y371094D01*
X1150620Y440436D02*
X1151000Y440500D01*
X944880Y371094D02*
X941832Y370332D01*
D20*
X973836Y-170688D03*
X932688Y640080D03*
X1055370Y643128D03*
X1017270Y643128D03*
X1037082Y733044D03*
X941832Y370332D03*
D21*
X1181862Y341376D02*
X1181862Y319278D01*
X1151382Y288798D01*
X1151000Y288100D01*
D20*
X1181862Y341376D03*
D21*
X1200912Y354330D02*
X1200912Y377190D01*
X1200912Y354330D02*
X1187958Y341376D01*
X1187958Y64770D01*
X1255014Y-2286D01*
X1255600Y-2930D01*
D20*
X1200912Y377190D03*
D21*
X1061466Y253746D02*
X1027176Y253746D01*
X1008888Y272034D01*
X988314Y272034D01*
X982980Y266700D01*
X982980Y156972D01*
X995172Y144780D01*
X1008888Y144780D01*
X1014222Y139446D01*
X1014222Y106680D01*
X1001268Y93726D01*
X988314Y93726D01*
X963930Y69342D01*
X963930Y57150D01*
D20*
X1061466Y253746D03*
X963930Y57150D03*
D21*
X905256Y349758D02*
X905256Y400812D01*
X905256Y349758D02*
X896874Y341376D01*
X896874Y331470D01*
X883920Y318516D01*
X883920Y208026D01*
X842772Y166878D01*
X842772Y7620D01*
X852678Y-2286D01*
X853100Y-2930D01*
D20*
X905256Y400812D03*
D21*
X1267968Y53340D02*
X1267968Y-9144D01*
D20*
X1267968Y-9144D03*
X1267968Y53340D03*
D21*
X1037082Y636270D02*
X1008888Y636270D01*
X1110234Y-104394D02*
X1170432Y-104394D01*
X1027938Y-88392D02*
X967740Y-88392D01*
X1027938Y-88392D02*
X1060704Y-55626D01*
X1060800Y-55600D01*
X998982Y27432D02*
X998982Y33528D01*
X998982Y27432D02*
X1060704Y-34290D01*
X1060704Y-54864D01*
X998982Y33528D02*
X998600Y34100D01*
X1060704Y-54864D02*
X1060800Y-55600D01*
X892302Y405384D02*
X903732Y416814D01*
X892302Y405384D02*
X892302Y348234D01*
X893826Y346710D01*
X893826Y332994D01*
X880872Y320040D01*
X880872Y214122D01*
X845058Y178308D01*
D20*
X1037082Y636270D03*
X1008888Y636270D03*
X1170432Y-104394D03*
X1110234Y-104394D03*
X967740Y-88392D03*
X903732Y416814D03*
X845058Y178308D03*
D21*
X1194054Y305562D02*
X1194054Y342900D01*
X1210818Y359664D01*
X1210818Y643890D01*
X1141857Y712851D02*
X1106424Y748284D01*
X1141857Y712851D02*
X1210818Y643890D01*
X1106424Y748284D02*
X1106424Y862584D01*
X1106050Y862800D01*
X1141857Y712851D02*
X1106424Y677418D01*
D20*
X1194054Y305562D03*
X1106424Y677418D03*
D21*
X1150620Y217932D02*
X1150620Y212598D01*
X1150620Y217932D02*
X1031748Y336804D01*
X1031748Y401574D01*
X1150620Y212598D02*
X1151000Y211900D01*
D20*
X1031748Y401574D03*
D21*
X1151382Y15240D02*
X1151382Y9144D01*
X1151382Y15240D02*
X1166622Y30480D01*
X1166622Y266700D01*
X1154430Y278892D01*
X1140714Y278892D01*
X1135380Y284226D01*
X1135380Y419100D01*
X1147572Y431292D01*
X1161288Y431292D01*
X1166622Y436626D01*
X1166622Y559308D01*
X1090422Y635508D01*
X1090422Y671322D01*
X1108710Y689610D01*
X1151382Y9144D02*
X1151000Y8700D01*
D20*
X1108710Y689610D03*
D21*
X909828Y608076D02*
X909828Y554736D01*
X909828Y608076D02*
X1006602Y704850D01*
X1006602Y736092D01*
D20*
X909828Y554736D03*
X1006602Y736092D03*
D21*
X998982Y338328D02*
X998982Y332232D01*
X1110996Y220218D01*
X1110996Y-54864D01*
X998982Y338328D02*
X998600Y338900D01*
X1110996Y-54864D02*
X1111600Y-55600D01*
X998982Y441198D02*
X998982Y446532D01*
X1064514Y512064D01*
X1064514Y853440D01*
X1055370Y862584D01*
X998982Y441198D02*
X998600Y440500D01*
X1055370Y862584D02*
X1055250Y862800D01*
X902970Y776478D02*
X902970Y774954D01*
X902970Y776478D02*
X1000506Y874014D01*
X1069848Y874014D01*
X1080516Y863346D01*
X1080650Y862800D01*
X998982Y421386D02*
X998982Y415290D01*
X998982Y421386D02*
X1077468Y499872D01*
X1077468Y859536D01*
X1080516Y862584D01*
X998982Y415290D02*
X998600Y415100D01*
X1080516Y862584D02*
X1080650Y862800D01*
D20*
X902970Y774954D03*
D21*
X1037082Y710946D02*
X1037082Y677418D01*
X1037082Y710946D02*
X1055370Y729234D01*
D20*
X1037082Y677418D03*
X1055370Y729234D03*
D21*
X1117092Y861822D02*
X1188720Y790194D01*
X1117092Y861822D02*
X1117092Y867156D01*
X1107186Y877062D01*
X955548Y877062D01*
X847344Y768858D01*
X830580Y768858D01*
X810006Y748284D01*
D20*
X1188720Y790194D03*
X810006Y748284D03*
D21*
X1137666Y726186D02*
X1290828Y573024D01*
D20*
X1137666Y726186D03*
X1290828Y573024D03*
D21*
X1016508Y630174D02*
X1008126Y630174D01*
X979932Y601980D01*
X979932Y414528D01*
X1019556Y401574D02*
X1019556Y365760D01*
X1002030Y348234D01*
X988314Y348234D01*
X979932Y339852D01*
X979932Y154686D01*
X998220Y136398D01*
X998600Y135700D01*
D20*
X1016508Y630174D03*
X979932Y414528D03*
X1019556Y401574D03*
D21*
X1204722Y392430D02*
X1204722Y420624D01*
X1204722Y392430D02*
X1151382Y339090D01*
X1151000Y338900D01*
D20*
X1204722Y420624D03*
D19*
X998220Y389382D02*
X998220Y386334D01*
X905256Y293370D01*
X905256Y143256D01*
X904494Y142494D01*
X998220Y389382D02*
X998600Y389700D01*
X904494Y142494D02*
X903900Y141850D01*
D21*
X1025652Y726948D02*
X986790Y765810D01*
X836676Y765810D01*
X819150Y748284D01*
D20*
X1025652Y726948D03*
X819150Y748284D03*
D21*
X1116330Y784860D02*
X1175766Y784860D01*
X1280160Y680466D01*
X1311402Y680466D01*
X1312000Y680000D01*
D20*
X1116330Y784860D03*
D21*
X998982Y262128D02*
X998982Y256032D01*
X1072896Y182118D01*
X1072896Y-121158D01*
X1070610Y-123444D01*
X1070610Y-171450D01*
X1080516Y-181356D01*
X998982Y262128D02*
X998600Y262700D01*
X1080516Y-181356D02*
X1080650Y-181500D01*
X985266Y-102108D02*
X936498Y-102108D01*
X1150620Y103632D02*
X1150620Y109728D01*
X1150620Y103632D02*
X1123950Y76962D01*
X1123950Y-79248D01*
X1091184Y-112014D01*
X1091184Y-148590D01*
X1089660Y-150114D01*
X1089660Y-176022D01*
X1091184Y-177546D01*
X1091184Y-185166D01*
X1084326Y-192024D01*
X1076706Y-192024D01*
X1065276Y-180594D01*
X1065276Y-176022D01*
X991362Y-102108D01*
X985266Y-102108D01*
X1150620Y109728D02*
X1151000Y110300D01*
D20*
X985266Y-102108D03*
X936498Y-102108D03*
D21*
X1217676Y-160020D02*
X1286256Y-160020D01*
X1325880Y-199644D01*
X1326000Y-200000D01*
D20*
X1217676Y-160020D03*
D21*
X998982Y466344D02*
X998982Y525780D01*
X1061466Y588264D01*
X1061466Y831342D01*
X1030224Y862584D01*
X998982Y466344D02*
X998600Y465900D01*
X1030224Y862584D02*
X1029850Y862800D01*
X1107948Y697992D02*
X1113282Y697992D01*
X1107948Y697992D02*
X1083564Y673608D01*
X1083564Y586740D01*
X903732Y448818D02*
X903732Y441198D01*
X804672Y342138D01*
X798576Y342138D01*
X798000Y342000D01*
D20*
X1113282Y697992D03*
X1083564Y586740D03*
X903732Y448818D03*
M02*
